<svg width="335" height="335" viewBox="0 0 335 335" fill="none" xmlns="http://www.w3.org/2000/svg">
<path d="M6.29129 4H331V330.018L330.673 331H4.65466L4 330.345V4.32733L4.98198 4" fill="#F5F5F5"/>
<path d="M6.29129 4H331V330.018L330.673 331H4.65466L4 330.345V4.32733L4.98198 4" stroke="#F5F5F5" stroke-width="2.66667" stroke-linecap="square"/>
<path d="M8.26018 6H328.56V327.591L328.237 328.56H6.64577L6 327.914V6.32289L6.96865 6" fill="#E1E1F6"/>
<path d="M8.26018 6H328.56V327.591L328.237 328.56H6.64577L6 327.914V6.32289L6.96865 6" stroke="black" stroke-width="12" stroke-linecap="round"/>
<path d="M70.5445 38.4217L8.89868 6.12793" stroke="black" stroke-width="0.666667" stroke-linecap="square"/>
<path d="M84.9338 34.4409L28.2717 6.12793" stroke="black" stroke-width="0.666667" stroke-linecap="square"/>
<path d="M100.795 35.9997L47.6448 6.12793" stroke="black" stroke-width="0.666667" stroke-linecap="square"/>
<path d="M116.422 38.6548L67.0176 6.12793" stroke="black" stroke-width="0.666667" stroke-linecap="square"/>
<path d="M132.796 40.8649L86.3906 6.12793" stroke="black" stroke-width="0.666667" stroke-linecap="square"/>
<path d="M147.087 35.978L105.764 6.12793" stroke="black" stroke-width="0.666667" stroke-linecap="square"/>
<path d="M157.102 27.8897L125.137 6.12793" stroke="black" stroke-width="0.666667" stroke-linecap="square"/>
<path d="M163.13 42.2905L144.51 6.12793" stroke="black" stroke-width="0.666667" stroke-linecap="square"/>
<path d="M166.5 57.7096L163.883 6.12793" stroke="black" stroke-width="0.666667" stroke-linecap="square"/>
<path d="M170.573 73.2427L183.255 6.12793" stroke="black" stroke-width="0.666667" stroke-linecap="square"/>
<path d="M177.777 87.3767L202.628 6.12793" stroke="black" stroke-width="0.666667" stroke-linecap="square"/>
<path d="M191.073 91.2448L222.001 6.12793" stroke="black" stroke-width="0.666667" stroke-linecap="square"/>
<path d="M205.902 85.7491L241.374 6.12793" stroke="black" stroke-width="0.666667" stroke-linecap="square"/>
<path d="M220.486 78.6209L260.747 6.12793" stroke="black" stroke-width="0.666667" stroke-linecap="square"/>
<path d="M235.304 73.146L280.12 6.12793" stroke="black" stroke-width="0.666667" stroke-linecap="square"/>
<path d="M249.948 73.774L299.493 6.12793" stroke="black" stroke-width="0.666667" stroke-linecap="square"/>
<path d="M262.429 80.6646L318.866 6.12793" stroke="black" stroke-width="0.666667" stroke-linecap="square"/>
<path d="M275.371 91.2475L329.199 13.8772" stroke="black" stroke-width="0.666667" stroke-linecap="square"/>
<path d="M287.687 104.155L329.199 33.2502" stroke="black" stroke-width="0.666667" stroke-linecap="square"/>
<path d="M297.769 117.595L329.199 52.623" stroke="black" stroke-width="0.666667" stroke-linecap="square"/>
<path d="M303.839 129.413L329.199 71.9961" stroke="black" stroke-width="0.666667" stroke-linecap="square"/>
<path d="M301.265 144.173L329.198 91.3691" stroke="black" stroke-width="0.666667" stroke-linecap="square"/>
<path d="M291.677 156.942L329.199 110.742" stroke="black" stroke-width="0.666667" stroke-linecap="square"/>
<path d="M284.248 170.518L329.199 130.115" stroke="black" stroke-width="0.666667" stroke-linecap="square"/>
<path d="M287.262 184.636L329.198 149.488" stroke="black" stroke-width="0.666667" stroke-linecap="square"/>
<path d="M297.596 197.22L329.199 168.861" stroke="black" stroke-width="0.666667" stroke-linecap="square"/>
<path d="M308.941 208.425L329.199 188.234" stroke="black" stroke-width="0.666667" stroke-linecap="square"/>
<path d="M320.273 219.982L329.198 207.607" stroke="black" stroke-width="0.666667" stroke-linecap="square"/>
<path d="M329.004 233.311L329.198 226.98" stroke="black" stroke-width="0.666667" stroke-linecap="square"/>
<path d="M324.82 246.578L329.199 246.353" stroke="black" stroke-width="0.666667" stroke-linecap="square"/>
<path d="M312.194 255.73L329.199 265.726" stroke="black" stroke-width="0.666667" stroke-linecap="square"/>
<path d="M297.974 262.664L329.199 285.099" stroke="black" stroke-width="0.666667" stroke-linecap="square"/>
<path d="M283.298 269.097L329.199 304.472" stroke="black" stroke-width="0.666667" stroke-linecap="square"/>
<path d="M269.629 275.704L329.199 323.845" stroke="black" stroke-width="0.666667" stroke-linecap="square"/>
<path d="M255.707 283.685L314.669 328.688" stroke="black" stroke-width="0.666667" stroke-linecap="square"/>
<path d="M242.081 291.469L295.296 328.688" stroke="black" stroke-width="0.666667" stroke-linecap="square"/>
<path d="M227.134 298.729L275.923 328.688" stroke="black" stroke-width="0.666667" stroke-linecap="square"/>
<path d="M211.781 303.35L256.55 328.688" stroke="black" stroke-width="0.666667" stroke-linecap="square"/>
<path d="M197.477 303.033L237.177 328.688" stroke="black" stroke-width="0.666667" stroke-linecap="square"/>
<path d="M184.702 294.84L217.804 328.688" stroke="black" stroke-width="0.666667" stroke-linecap="square"/>
<path d="M175.044 282.525L198.431 328.688" stroke="black" stroke-width="0.666667" stroke-linecap="square"/>
<path d="M166.118 269.057L179.058 328.688" stroke="black" stroke-width="0.666667" stroke-linecap="square"/>
<path d="M156.617 256.1L159.685 328.688" stroke="black" stroke-width="0.666667" stroke-linecap="square"/>
<path d="M145.47 245.223L140.312 328.688" stroke="black" stroke-width="0.666667" stroke-linecap="square"/>
<path d="M132.129 238.457L120.939 328.688" stroke="black" stroke-width="0.666667" stroke-linecap="square"/>
<path d="M117.566 236.644L101.566 328.688" stroke="black" stroke-width="0.666667" stroke-linecap="square"/>
<path d="M100.756 237.504L82.1931 328.688" stroke="black" stroke-width="0.666667" stroke-linecap="square"/>
<path d="M85.3212 239.495L62.8203 328.688" stroke="black" stroke-width="0.666667" stroke-linecap="square"/>
<path d="M69.5535 242.018L43.4473 328.688" stroke="black" stroke-width="0.666667" stroke-linecap="square"/>
<path d="M53.1224 244.646L24.0742 328.688" stroke="black" stroke-width="0.666667" stroke-linecap="square"/>
<path d="M37.8715 246.506L6.63867 326.751" stroke="black" stroke-width="0.666667" stroke-linecap="square"/>
<path d="M22.5375 246.583L6.63867 307.378" stroke="black" stroke-width="0.666667" stroke-linecap="square"/>
<path d="M10.0786 239.764L6.63867 288.005" stroke="black" stroke-width="0.666667" stroke-linecap="square"/>
<path d="M8.73728 224.097L6.63867 268.632" stroke="black" stroke-width="0.666667" stroke-linecap="square"/>
<path d="M12.5898 209.281L6.63867 249.259" stroke="black" stroke-width="0.666667" stroke-linecap="square"/>
<path d="M18.7386 193.728L6.63867 229.886" stroke="black" stroke-width="0.666667" stroke-linecap="square"/>
<path d="M25.7708 178.831L6.63867 210.513" stroke="black" stroke-width="0.666667" stroke-linecap="square"/>
<path d="M32.8275 165.13L6.63867 191.14" stroke="black" stroke-width="0.666667" stroke-linecap="square"/>
<path d="M39.8309 151.896L6.63867 171.767" stroke="black" stroke-width="0.666667" stroke-linecap="square"/>
<path d="M49.8878 139.35L6.63867 152.394" stroke="black" stroke-width="0.666667" stroke-linecap="square"/>
<path d="M61.9244 129.988L6.63867 133.021" stroke="black" stroke-width="0.666667" stroke-linecap="square"/>
<path d="M74.7781 120.255L6.63867 113.648" stroke="black" stroke-width="0.666667" stroke-linecap="square"/>
<path d="M83.2016 107.854L6.63867 94.2751" stroke="black" stroke-width="0.666667" stroke-linecap="square"/>
<path d="M83.1202 92.6696L6.63867 74.9021" stroke="black" stroke-width="0.666667" stroke-linecap="square"/>
<path d="M78.56 77.4382L6.63867 55.5291" stroke="black" stroke-width="0.666667" stroke-linecap="square"/>
<path d="M72.9265 62.0688L6.63867 36.156" stroke="black" stroke-width="0.666667" stroke-linecap="square"/>
<path d="M68.9383 47.2045L6.63867 16.7832" stroke="black" stroke-width="0.666667" stroke-linecap="square"/>
<path fill-rule="evenodd" clip-rule="evenodd" d="M135.998 40.8204C121.347 42.3985 78.2277 27.5481 69.2333 38.5938C60.2391 49.6395 87.2243 88.0666 82.0319 107.095C76.8394 126.123 49.855 130.113 38.0784 152.762C26.3017 175.41 -4.29908 228.598 11.372 242.986C27.0432 257.373 101.319 229.062 132.105 239.087C162.891 249.111 172.719 297.377 196.086 303.131C219.454 308.886 250.333 284.568 272.31 273.615C294.287 262.663 326.185 253.382 327.947 237.417C329.709 221.452 287.146 195.832 282.881 177.825C278.616 159.817 308.383 146.822 302.355 129.372C296.328 111.921 267.026 79.62 246.718 73.1226C226.411 66.6251 195.44 97.7198 180.51 90.3869C165.581 83.054 164.559 37.3863 157.14 29.1252C149.722 20.8641 150.649 39.2423 135.998 40.8204Z" fill="#E8C9BF" stroke="black" stroke-width="12" stroke-dasharray="10 4"/>
</svg>
