<svg width="331" height="331" viewBox="0 0 331 331" fill="none" xmlns="http://www.w3.org/2000/svg">
<path d="M4.29129 2H329V328.018L328.673 329H2.65466L2 328.345V2.32733L2.98198 2" fill="#F5F5F5"/>
<path d="M4.29129 2H329V328.018L328.673 329H2.65466L2 328.345V2.32733L2.98198 2" stroke="#F5F5F5" stroke-width="2.66667" stroke-linecap="square"/>
<path d="M6.26018 4H326.56V325.591L326.237 326.56H4.64577L4 325.914V4.32289L4.96865 4" fill="#E1E1F6"/>
<path d="M6.26018 4H326.56V325.591L326.237 326.56H4.64577L4 325.914V4.32289L4.96865 4" stroke="black" stroke-width="2.66667" stroke-linecap="square"/>
<path d="M68.5445 36.4217L6.89868 4.12793" stroke="black" stroke-width="0.666667" stroke-linecap="square"/>
<path d="M82.9338 32.4409L26.2717 4.12793" stroke="black" stroke-width="0.666667" stroke-linecap="square"/>
<path d="M98.795 33.9997L45.6448 4.12793" stroke="black" stroke-width="0.666667" stroke-linecap="square"/>
<path d="M114.422 36.6548L65.0176 4.12793" stroke="black" stroke-width="0.666667" stroke-linecap="square"/>
<path d="M130.796 38.8649L84.3906 4.12793" stroke="black" stroke-width="0.666667" stroke-linecap="square"/>
<path d="M145.087 33.978L103.764 4.12793" stroke="black" stroke-width="0.666667" stroke-linecap="square"/>
<path d="M155.102 25.8897L123.137 4.12793" stroke="black" stroke-width="0.666667" stroke-linecap="square"/>
<path d="M161.13 40.2905L142.51 4.12793" stroke="black" stroke-width="0.666667" stroke-linecap="square"/>
<path d="M164.5 55.7096L161.883 4.12793" stroke="black" stroke-width="0.666667" stroke-linecap="square"/>
<path d="M168.573 71.2427L181.255 4.12793" stroke="black" stroke-width="0.666667" stroke-linecap="square"/>
<path d="M175.777 85.3767L200.628 4.12793" stroke="black" stroke-width="0.666667" stroke-linecap="square"/>
<path d="M189.073 89.2448L220.001 4.12793" stroke="black" stroke-width="0.666667" stroke-linecap="square"/>
<path d="M203.902 83.7491L239.374 4.12793" stroke="black" stroke-width="0.666667" stroke-linecap="square"/>
<path d="M218.486 76.6209L258.747 4.12793" stroke="black" stroke-width="0.666667" stroke-linecap="square"/>
<path d="M233.304 71.146L278.12 4.12793" stroke="black" stroke-width="0.666667" stroke-linecap="square"/>
<path d="M247.948 71.774L297.493 4.12793" stroke="black" stroke-width="0.666667" stroke-linecap="square"/>
<path d="M260.429 78.6646L316.866 4.12793" stroke="black" stroke-width="0.666667" stroke-linecap="square"/>
<path d="M273.371 89.2475L327.199 11.8772" stroke="black" stroke-width="0.666667" stroke-linecap="square"/>
<path d="M285.687 102.155L327.199 31.2502" stroke="black" stroke-width="0.666667" stroke-linecap="square"/>
<path d="M295.769 115.595L327.199 50.623" stroke="black" stroke-width="0.666667" stroke-linecap="square"/>
<path d="M301.839 127.413L327.199 69.9961" stroke="black" stroke-width="0.666667" stroke-linecap="square"/>
<path d="M299.265 142.173L327.198 89.3691" stroke="black" stroke-width="0.666667" stroke-linecap="square"/>
<path d="M289.677 154.942L327.199 108.742" stroke="black" stroke-width="0.666667" stroke-linecap="square"/>
<path d="M282.248 168.518L327.199 128.115" stroke="black" stroke-width="0.666667" stroke-linecap="square"/>
<path d="M285.262 182.636L327.198 147.488" stroke="black" stroke-width="0.666667" stroke-linecap="square"/>
<path d="M295.596 195.22L327.199 166.861" stroke="black" stroke-width="0.666667" stroke-linecap="square"/>
<path d="M306.941 206.425L327.199 186.234" stroke="black" stroke-width="0.666667" stroke-linecap="square"/>
<path d="M318.273 217.982L327.198 205.607" stroke="black" stroke-width="0.666667" stroke-linecap="square"/>
<path d="M327.004 231.311L327.198 224.98" stroke="black" stroke-width="0.666667" stroke-linecap="square"/>
<path d="M322.82 244.578L327.199 244.353" stroke="black" stroke-width="0.666667" stroke-linecap="square"/>
<path d="M310.194 253.73L327.199 263.726" stroke="black" stroke-width="0.666667" stroke-linecap="square"/>
<path d="M295.974 260.664L327.199 283.099" stroke="black" stroke-width="0.666667" stroke-linecap="square"/>
<path d="M281.298 267.097L327.199 302.472" stroke="black" stroke-width="0.666667" stroke-linecap="square"/>
<path d="M267.629 273.704L327.199 321.845" stroke="black" stroke-width="0.666667" stroke-linecap="square"/>
<path d="M253.707 281.685L312.669 326.688" stroke="black" stroke-width="0.666667" stroke-linecap="square"/>
<path d="M240.081 289.469L293.296 326.688" stroke="black" stroke-width="0.666667" stroke-linecap="square"/>
<path d="M225.134 296.729L273.923 326.688" stroke="black" stroke-width="0.666667" stroke-linecap="square"/>
<path d="M209.781 301.35L254.55 326.688" stroke="black" stroke-width="0.666667" stroke-linecap="square"/>
<path d="M195.477 301.033L235.177 326.688" stroke="black" stroke-width="0.666667" stroke-linecap="square"/>
<path d="M182.702 292.84L215.804 326.688" stroke="black" stroke-width="0.666667" stroke-linecap="square"/>
<path d="M173.044 280.525L196.431 326.688" stroke="black" stroke-width="0.666667" stroke-linecap="square"/>
<path d="M164.118 267.057L177.058 326.688" stroke="black" stroke-width="0.666667" stroke-linecap="square"/>
<path d="M154.617 254.1L157.685 326.688" stroke="black" stroke-width="0.666667" stroke-linecap="square"/>
<path d="M143.47 243.223L138.312 326.688" stroke="black" stroke-width="0.666667" stroke-linecap="square"/>
<path d="M130.129 236.457L118.939 326.688" stroke="black" stroke-width="0.666667" stroke-linecap="square"/>
<path d="M115.566 234.644L99.5662 326.688" stroke="black" stroke-width="0.666667" stroke-linecap="square"/>
<path d="M98.7556 235.504L80.1931 326.688" stroke="black" stroke-width="0.666667" stroke-linecap="square"/>
<path d="M83.3212 237.495L60.8203 326.688" stroke="black" stroke-width="0.666667" stroke-linecap="square"/>
<path d="M67.5535 240.018L41.4473 326.688" stroke="black" stroke-width="0.666667" stroke-linecap="square"/>
<path d="M51.1224 242.646L22.0742 326.688" stroke="black" stroke-width="0.666667" stroke-linecap="square"/>
<path d="M35.8715 244.506L4.63867 324.751" stroke="black" stroke-width="0.666667" stroke-linecap="square"/>
<path d="M20.5375 244.583L4.63867 305.378" stroke="black" stroke-width="0.666667" stroke-linecap="square"/>
<path d="M8.07859 237.764L4.63867 286.005" stroke="black" stroke-width="0.666667" stroke-linecap="square"/>
<path d="M6.73728 222.097L4.63867 266.632" stroke="black" stroke-width="0.666667" stroke-linecap="square"/>
<path d="M10.5898 207.281L4.63867 247.259" stroke="black" stroke-width="0.666667" stroke-linecap="square"/>
<path d="M16.7386 191.728L4.63867 227.886" stroke="black" stroke-width="0.666667" stroke-linecap="square"/>
<path d="M23.7708 176.831L4.63867 208.513" stroke="black" stroke-width="0.666667" stroke-linecap="square"/>
<path d="M30.8275 163.13L4.63867 189.14" stroke="black" stroke-width="0.666667" stroke-linecap="square"/>
<path d="M37.8309 149.896L4.63867 169.767" stroke="black" stroke-width="0.666667" stroke-linecap="square"/>
<path d="M47.8878 137.35L4.63867 150.394" stroke="black" stroke-width="0.666667" stroke-linecap="square"/>
<path d="M59.9244 127.988L4.63867 131.021" stroke="black" stroke-width="0.666667" stroke-linecap="square"/>
<path d="M72.7781 118.255L4.63867 111.648" stroke="black" stroke-width="0.666667" stroke-linecap="square"/>
<path d="M81.2016 105.854L4.63867 92.2751" stroke="black" stroke-width="0.666667" stroke-linecap="square"/>
<path d="M81.1202 90.6696L4.63867 72.9021" stroke="black" stroke-width="0.666667" stroke-linecap="square"/>
<path d="M76.56 75.4382L4.63867 53.5291" stroke="black" stroke-width="0.666667" stroke-linecap="square"/>
<path d="M70.9265 60.0688L4.63867 34.156" stroke="black" stroke-width="0.666667" stroke-linecap="square"/>
<path d="M66.9383 45.2045L4.63867 14.7832" stroke="black" stroke-width="0.666667" stroke-linecap="square"/>
<path fill-rule="evenodd" clip-rule="evenodd" d="M133.998 38.8204C119.347 40.3985 76.2277 25.5481 67.2333 36.5938C58.2391 47.6395 85.2243 86.0666 80.0319 105.095C74.8394 124.123 47.855 128.113 36.0784 150.762C24.3017 173.41 -6.29908 226.598 9.37205 240.986C25.0432 255.373 99.3195 227.062 130.105 237.087C160.891 247.111 170.719 295.377 194.086 301.131C217.454 306.886 248.333 282.568 270.31 271.615C292.287 260.663 324.185 251.382 325.947 235.417C327.709 219.452 285.146 193.832 280.881 175.825C276.616 157.817 306.383 144.822 300.355 127.372C294.328 109.921 265.026 77.62 244.718 71.1226C224.411 64.6251 193.44 95.7198 178.51 88.3869C163.581 81.054 162.559 35.3863 155.14 27.1252C147.722 18.8641 148.649 37.2423 133.998 38.8204Z" fill="#E8C9BF" stroke="black" stroke-width="2.67" stroke-dasharray="6 4"/>
<path d="M113.632 145.34V186.92L80.3917 148.52L79.3117 147.14L79.4317 148.88V182.66H84.1717V185H72.1117V182.66H76.9717V145.34H72.1117V143H78.5917L110.212 179.84L111.352 181.4L111.172 179.48V145.34H106.612V143H118.672V145.34H113.632ZM134.914 185H122.854V182.66H127.534V145.34H122.854V143H134.914V145.34H129.994V182.66H134.914V185ZM171.483 182.6C169.883 183.52 168.163 184.26 166.323 184.82C164.523 185.34 162.603 185.6 160.563 185.6C157.603 185.6 154.823 185.04 152.223 183.92C149.623 182.8 147.363 181.26 145.443 179.3C143.483 177.38 141.943 175.12 140.823 172.52C139.703 169.92 139.143 167.14 139.143 164.18C139.143 161.22 139.703 158.44 140.823 155.84C141.943 153.2 143.483 150.9 145.443 148.94C147.363 147.02 149.623 145.5 152.223 144.38C154.823 143.22 157.603 142.64 160.563 142.64C162.603 142.64 164.523 142.9 166.323 143.42C168.163 143.94 169.903 144.68 171.543 145.64L170.163 147.68C168.763 146.8 167.243 146.14 165.603 145.7C164.003 145.22 162.323 144.98 160.563 144.98C157.923 144.98 155.463 145.5 153.183 146.54C150.903 147.54 148.903 148.92 147.183 150.68C145.463 152.4 144.103 154.44 143.103 156.8C142.103 159.12 141.603 161.6 141.603 164.24C141.603 166.84 142.103 169.3 143.103 171.62C144.103 173.94 145.463 175.94 147.183 177.62C148.863 179.34 150.843 180.72 153.123 181.76C155.403 182.76 157.843 183.26 160.443 183.26C162.003 183.26 163.503 183.08 164.943 182.72C166.383 182.36 167.743 181.84 169.023 181.16V169.46H160.323V167.12H171.483V182.6ZM187.285 185H175.705V182.66H180.385V164.84H176.065V162.5H182.365L182.425 164.66C182.465 165.34 182.505 165.96 182.545 166.52C182.585 167.04 182.625 167.64 182.665 168.32C183.465 166.44 184.745 164.92 186.505 163.76C188.265 162.6 190.265 162.02 192.505 162.02C194.705 162.02 196.445 162.64 197.725 163.88C199.005 165.12 199.685 166.74 199.765 168.74V182.66H204.205V185H192.625V182.66H197.305V169.4C197.225 168.08 196.745 166.96 195.865 166.04C195.025 165.08 193.765 164.56 192.085 164.48C190.845 164.48 189.665 164.68 188.545 165.08C187.425 165.48 186.465 166.04 185.665 166.76C184.785 167.52 184.085 168.4 183.565 169.4C183.085 170.4 182.845 171.5 182.845 172.7V182.66H187.285V185ZM220.161 164.42C218.641 164.42 217.241 164.74 215.961 165.38C214.721 166.02 213.681 166.88 212.841 167.96C212.041 169 211.481 170.18 211.161 171.5C210.841 172.78 210.821 174.1 211.101 175.46C213.821 174.38 216.521 173.32 219.201 172.28C221.921 171.2 224.641 170.12 227.361 169.04C226.641 167.68 225.641 166.58 224.361 165.74C223.121 164.86 221.721 164.42 220.161 164.42ZM228.021 182.3C226.981 183.26 225.801 184.02 224.481 184.58C223.161 185.14 221.721 185.42 220.161 185.42C218.521 185.42 216.981 185.12 215.541 184.52C214.141 183.92 212.901 183.08 211.821 182C210.741 180.92 209.901 179.68 209.301 178.28C208.701 176.88 208.401 175.36 208.401 173.72C208.401 172.12 208.701 170.6 209.301 169.16C209.901 167.72 210.741 166.48 211.821 165.44C212.901 164.4 214.141 163.58 215.541 162.98C216.981 162.34 218.521 162.02 220.161 162.02C221.401 162.02 222.581 162.24 223.701 162.68C224.821 163.08 225.821 163.68 226.701 164.48C227.541 165.2 228.281 166.08 228.921 167.12C229.561 168.12 230.081 169.22 230.481 170.42C227.361 171.66 224.241 172.88 221.121 174.08C218.041 175.28 214.941 176.52 211.821 177.8C212.541 179.36 213.641 180.62 215.121 181.58C216.601 182.54 218.281 183.02 220.161 183.02C221.401 183.02 222.561 182.8 223.641 182.36C224.721 181.92 225.681 181.3 226.521 180.5L228.021 182.3ZM247.485 185H240.105V164.9H234.885V162.5H240.105V147.86H242.565V162.5H249.525V164.9H242.565V182.66H247.485V185ZM267.492 183.08C266.892 183.8 266.112 184.38 265.152 184.82C264.232 185.26 263.092 185.48 261.732 185.48C260.452 185.48 259.192 185.32 257.952 185C256.752 184.72 255.692 184.14 254.772 183.26V178.88H256.992V181.94C257.752 182.42 258.532 182.74 259.332 182.9C260.132 183.02 260.972 183.08 261.852 183.08C262.452 183.08 263.032 183 263.592 182.84C264.152 182.64 264.672 182.36 265.152 182C265.592 181.64 265.932 181.22 266.172 180.74C266.452 180.22 266.592 179.6 266.592 178.88C266.592 177.84 266.332 177.04 265.812 176.48C265.292 175.92 264.612 175.48 263.772 175.16C262.972 174.8 262.092 174.48 261.132 174.2C260.172 173.92 259.272 173.58 258.432 173.18C257.592 172.78 256.892 172.22 256.332 171.5C255.812 170.74 255.552 169.7 255.552 168.38C255.552 167.3 255.732 166.38 256.092 165.62C256.492 164.86 257.012 164.22 257.652 163.7C258.292 163.18 259.032 162.8 259.872 162.56C260.712 162.28 261.492 162.14 262.212 162.14C262.732 162.14 263.232 162.18 263.712 162.26C264.192 162.3 264.752 162.42 265.392 162.62C265.912 162.82 266.412 163.06 266.892 163.34C267.372 163.58 267.812 163.88 268.212 164.24V168.62H265.932V165.5C265.372 165.18 264.792 164.94 264.192 164.78C263.592 164.62 262.952 164.54 262.272 164.54C261.752 164.54 261.212 164.62 260.652 164.78C260.132 164.9 259.672 165.1 259.272 165.38C258.912 165.7 258.612 166.1 258.372 166.58C258.132 167.06 258.012 167.64 258.012 168.32C258.012 169.2 258.292 169.9 258.852 170.42C259.452 170.9 260.152 171.3 260.952 171.62C261.792 171.98 262.672 172.32 263.592 172.64C264.552 172.92 265.452 173.3 266.292 173.78C267.092 174.26 267.752 174.88 268.272 175.64C268.832 176.4 269.112 177.42 269.112 178.7C269.112 179.42 268.972 180.18 268.692 180.98C268.452 181.74 268.052 182.44 267.492 183.08Z" fill="black"/>
</svg>
