<?xml version="1.0" encoding="utf-8" standalone="no"?>
<!DOCTYPE svg PUBLIC "-//W3C//DTD SVG 1.1//EN"
  "http://www.w3.org/Graphics/SVG/1.1/DTD/svg11.dtd">
<svg xmlns:xlink="http://www.w3.org/1999/xlink" width="460.8pt" height="345.6pt" viewBox="0 0 460.8 345.6" xmlns="http://www.w3.org/2000/svg" version="1.1">
 <metadata>
  <rdf:RDF xmlns:dc="http://purl.org/dc/elements/1.1/" xmlns:cc="http://creativecommons.org/ns#" xmlns:rdf="http://www.w3.org/1999/02/22-rdf-syntax-ns#">
   <cc:Work>
    <dc:type rdf:resource="http://purl.org/dc/dcmitype/StillImage"/>
    <dc:date>2025-02-27T13:28:32.716045</dc:date>
    <dc:format>image/svg+xml</dc:format>
    <dc:creator>
     <cc:Agent>
      <dc:title>Matplotlib v3.10.0, https://matplotlib.org/</dc:title>
     </cc:Agent>
    </dc:creator>
   </cc:Work>
  </rdf:RDF>
 </metadata>
 <defs>
  <style type="text/css">*{stroke-linejoin: round; stroke-linecap: butt}</style>
 </defs>
 <g id="figure_1">
  <g id="patch_1">
   <path d="M 0 345.6 
L 460.8 345.6 
L 460.8 0 
L 0 0 
z
" style="fill: #ffffff"/>
  </g>
  <g id="axes_1">
   <g id="patch_2">
    <path d="M 57.6 307.584 
L 414.72 307.584 
L 414.72 41.472 
L 57.6 41.472 
z
" style="fill: #ffffff"/>
   </g>
   <g id="patch_3">
    <path d="M 116.774055 53.568 
L 117.742706 53.568 
L 118.711349 53.568 
L 119.68 53.568 
L 120.648651 53.568 
L 121.617301 53.568 
L 122.585945 53.568 
L 123.554595 53.568 
L 124.523246 53.568 
L 125.491896 53.568 
L 126.46054 53.568 
L 127.42919 53.568 
L 128.397841 53.568 
L 129.366484 53.568 
L 130.335135 53.568 
L 131.303786 53.568 
L 132.272436 53.568 
L 133.24108 53.568 
L 134.20973 53.568 
L 135.178381 53.568 
L 136.147031 53.568 
L 137.115675 53.568 
L 138.084325 53.568 
L 139.052976 53.568 
L 140.021619 53.568 
L 140.99027 53.568 
L 141.95892 53.568 
L 142.927571 53.568 
L 143.896214 53.568 
L 144.864865 53.568 
L 145.833516 53.568 
L 146.802166 53.568 
L 147.77081 53.568 
L 148.73946 53.568 
L 149.708111 53.568 
L 150.676761 53.568 
L 151.645405 53.568 
L 152.614055 53.568 
L 153.582706 53.568 
L 154.551349 53.568 
L 155.52 53.568 
L 156.488651 53.568 
L 157.457301 53.568 
L 158.425945 53.568 
L 159.394595 53.568 
L 160.363246 53.568 
L 161.331896 53.568 
L 162.30054 53.568 
L 163.26919 53.568 
L 164.237841 53.568 
L 165.206484 53.568 
L 166.175135 53.568 
L 167.143786 53.568 
L 168.112436 53.568 
L 169.08108 53.568 
L 170.04973 53.568 
L 171.018381 53.568 
L 171.987031 53.568 
L 172.955675 53.568 
L 173.924325 53.568 
L 174.892976 53.568 
L 175.861623 53.568 
L 176.83027 53.568 
L 177.79892 53.568 
L 178.767567 53.568 
L 179.736218 53.568 
L 180.704865 53.568 
L 181.673516 53.568 
L 182.642163 53.568 
L 183.610813 53.568 
L 184.57946 53.568 
L 185.548107 53.568 
L 186.516758 53.568 
L 187.485405 53.568 
L 188.454055 53.568 
L 189.422702 53.568 
L 190.391353 53.568 
L 191.36 53.568 
L 192.328651 53.568 
L 193.297298 53.568 
L 194.265948 53.568 
L 195.234595 53.568 
L 196.203242 53.568 
L 197.171893 53.568 
L 198.14054 53.568 
L 199.10919 53.568 
L 200.077837 53.568 
L 201.046488 53.568 
L 202.015135 53.568 
L 202.983786 53.568 
L 203.952433 53.568 
L 204.921083 53.568 
L 205.88973 53.568 
L 206.858379 53.568 
L 207.827028 53.568 
L 208.795677 53.568 
L 209.764325 53.568 
L 210.732974 53.568 
L 211.701621 53.568 
L 212.67027 53.568 
L 213.638919 53.568 
L 214.607567 53.568 
L 215.576216 53.568 
L 216.544865 53.568 
L 217.513514 53.568 
L 218.482163 53.568 
L 219.450811 53.568 
L 220.41946 53.568 
L 221.388108 53.568 
L 222.356757 53.568 
L 223.325406 53.568 
L 224.294055 53.568 
L 225.262702 53.568 
L 226.231351 53.568 
L 227.2 53.568 
L 228.168649 53.568 
L 229.137298 53.568 
L 230.105946 53.568 
L 231.074595 53.568 
L 232.043243 53.568 
L 233.011892 53.568 
L 233.980541 53.568 
L 234.949189 53.568 
L 235.917838 53.568 
L 236.886486 53.568 
L 237.855135 53.568 
L 238.823784 53.568 
L 239.792432 53.568 
L 240.761081 53.568 
L 241.72973 53.568 
L 242.698378 53.568 
L 243.667027 53.568 
L 244.635676 53.568 
L 245.604324 53.568 
L 246.572973 53.568 
L 247.541621 53.568 
L 248.51027 53.568 
L 249.478919 53.568 
L 250.447567 53.568 
L 251.416216 53.568 
L 252.384865 53.568 
L 253.353514 53.568 
L 254.322163 53.568 
L 255.290811 53.568 
L 256.259458 53.568 
L 257.228107 53.568 
L 258.196756 53.568 
L 259.165405 53.568 
L 260.134054 53.568 
L 261.102702 53.568 
L 262.071351 53.568 
L 263.04 53.568 
L 264.008649 53.568 
L 264.977298 53.568 
L 265.945946 53.568 
L 266.914595 53.568 
L 267.883242 53.568 
L 268.851893 53.568 
L 269.82054 53.568 
L 270.78919 53.568 
L 271.757837 53.568 
L 272.726484 53.568 
L 273.695135 53.568 
L 274.663782 53.568 
L 275.632433 53.568 
L 276.60108 53.568 
L 277.56973 53.568 
L 278.538377 53.568 
L 279.507028 53.568 
L 280.475675 53.568 
L 281.444325 53.568 
L 282.412972 53.568 
L 283.381619 53.568 
L 284.35027 53.568 
L 285.318917 53.568 
L 286.287567 53.568 
L 287.256214 53.568 
L 288.224865 53.568 
L 289.193512 53.568 
L 290.162163 53.568 
L 291.13081 53.568 
L 292.09946 53.568 
L 293.068107 53.568 
L 294.036754 53.568 
L 295.005405 53.568 
L 295.974052 53.568 
L 296.942699 53.568 
L 297.911349 53.568 
L 298.88 53.568 
L 299.848651 53.568 
L 300.817294 53.568 
L 301.785945 53.568 
L 302.754595 53.568 
L 303.723246 53.568 
L 304.691889 53.568 
L 305.66054 53.568 
L 306.62919 53.568 
L 307.597834 53.568 
L 308.566484 53.568 
L 309.535135 53.568 
L 310.503786 53.568 
L 311.472429 53.568 
L 312.44108 53.568 
L 313.40973 53.568 
L 314.378381 53.568 
L 315.347024 53.568 
L 316.315675 53.568 
L 317.284325 53.568 
L 318.252969 53.568 
L 319.221619 53.568 
L 320.19027 53.568 
L 321.15892 53.568 
L 322.127564 53.568 
L 323.096214 53.568 
L 324.064865 53.568 
L 325.033516 53.568 
L 326.002159 53.568 
L 326.97081 53.568 
L 327.93946 53.568 
L 328.908104 53.568 
L 329.876754 53.568 
L 330.845405 53.568 
L 331.814055 53.568 
L 332.782699 53.568 
L 333.751349 53.568 
L 334.72 53.568 
L 335.688651 53.568 
L 336.657294 53.568 
L 337.625945 53.568 
L 338.594595 53.568 
L 339.563239 53.568 
L 340.531889 53.568 
L 341.50054 53.568 
L 342.46919 53.568 
L 343.437834 53.568 
L 344.406484 53.568 
L 345.375135 53.568 
L 346.343786 53.568 
L 347.312429 53.568 
L 348.28108 53.568 
L 349.24973 53.568 
L 350.218374 53.568 
L 351.187024 53.568 
L 352.155675 53.568 
L 353.124325 53.568 
L 354.092969 53.568 
L 355.061619 53.568 
L 356.03027 53.568 
L 356.99892 53.568 
L 356.99892 53.568 
L 356.99892 54.536651 
L 356.99892 55.505301 
L 356.99892 56.473952 
L 356.99892 57.442595 
L 356.99892 58.411246 
L 356.99892 59.379896 
L 356.99892 60.348547 
L 356.99892 61.31719 
L 356.99892 62.285841 
L 356.99892 63.254492 
L 356.99892 64.223135 
L 356.99892 65.191786 
L 356.99892 66.160436 
L 356.99892 67.129087 
L 356.99892 68.09773 
L 356.99892 69.066381 
L 356.99892 70.035031 
L 356.99892 71.003682 
L 356.99892 71.972325 
L 356.99892 72.940976 
L 356.99892 73.909626 
L 356.99892 74.87827 
L 356.99892 75.84692 
L 356.99892 76.815571 
L 356.99892 77.784222 
L 356.99892 78.752865 
L 356.99892 79.721516 
L 356.99892 80.690166 
L 356.99892 81.658817 
L 356.99892 82.62746 
L 356.99892 83.596111 
L 356.99892 84.564761 
L 356.99892 85.533405 
L 356.99892 86.502055 
L 356.99892 87.470706 
L 356.99892 88.439357 
L 356.99892 89.408 
L 356.99892 90.376651 
L 356.99892 91.345301 
L 356.99892 92.313952 
L 356.99892 93.282595 
L 356.99892 94.251246 
L 356.99892 95.219896 
L 356.99892 96.18854 
L 356.99892 97.15719 
L 356.99892 98.125841 
L 356.99892 99.094492 
L 356.99892 100.063135 
L 356.99892 101.031786 
L 356.99892 102.000436 
L 356.99892 102.969087 
L 356.99892 103.93773 
L 356.99892 104.906381 
L 356.99892 105.875031 
L 356.99892 106.843675 
L 356.99892 107.812325 
L 356.99892 108.780976 
L 356.99892 109.749626 
L 356.99892 110.71827 
L 356.99892 111.68692 
L 356.99892 112.655571 
L 356.99892 113.624222 
L 356.99892 114.592869 
L 356.99892 115.561516 
L 356.99892 116.530166 
L 356.99892 117.498813 
L 356.99892 118.46746 
L 356.99892 119.436111 
L 356.99892 120.404758 
L 356.99892 121.373408 
L 356.99892 122.342055 
L 356.99892 123.310706 
L 356.99892 124.279353 
L 356.99892 125.248004 
L 356.99892 126.216651 
L 356.99892 127.185301 
L 356.99892 128.153948 
L 356.99892 129.122595 
L 356.99892 130.091246 
L 356.99892 131.059893 
L 356.99892 132.028543 
L 356.99892 132.99719 
L 356.99892 133.965841 
L 356.99892 134.934488 
L 356.99892 135.903139 
L 356.99892 136.871786 
L 356.99892 137.840436 
L 356.99892 138.809083 
L 356.99892 139.77773 
L 356.99892 140.746381 
L 356.99892 141.715028 
L 356.99892 142.683678 
L 356.99892 143.652325 
L 356.99892 144.620974 
L 356.99892 145.589623 
L 356.99892 146.558272 
L 356.99892 147.52692 
L 356.99892 148.495569 
L 356.99892 149.464218 
L 356.99892 150.432867 
L 356.99892 151.401516 
L 356.99892 152.370164 
L 356.99892 153.338813 
L 356.99892 154.307462 
L 356.99892 155.276109 
L 356.99892 156.244758 
L 356.99892 157.213407 
L 356.99892 158.182055 
L 356.99892 159.150704 
L 356.99892 160.119353 
L 356.99892 161.088002 
L 356.99892 162.056651 
L 356.99892 163.025299 
L 356.99892 163.993947 
L 356.99892 164.962596 
L 356.99892 165.931245 
L 356.99892 166.899894 
L 356.99892 167.868542 
L 356.99892 168.837191 
L 356.99892 169.80584 
L 356.99892 170.774488 
L 356.99892 171.743137 
L 356.99892 172.711785 
L 356.99892 173.680434 
L 356.99892 174.649083 
L 356.99892 175.617731 
L 356.99892 176.58638 
L 356.99892 177.555029 
L 356.99892 178.523677 
L 356.99892 179.492326 
L 356.99892 180.460975 
L 356.99892 181.429623 
L 356.99892 182.398272 
L 356.99892 183.36692 
L 356.99892 184.335569 
L 356.99892 185.304218 
L 356.99892 186.272866 
L 356.99892 187.241515 
L 356.99892 188.210164 
L 356.99892 189.178812 
L 356.99892 190.14746 
L 356.99892 191.116109 
L 356.99892 192.084758 
L 356.99892 193.053407 
L 356.99892 194.022055 
L 356.99892 194.990704 
L 356.99892 195.959353 
L 356.99892 196.928002 
L 356.99892 197.896651 
L 356.99892 198.865299 
L 356.99892 199.833946 
L 356.99892 200.802595 
L 356.99892 201.771244 
L 356.99892 202.739893 
L 356.99892 203.708542 
L 356.99892 204.67719 
L 356.99892 205.645837 
L 356.99892 206.614488 
L 356.99892 207.583135 
L 356.99892 208.551786 
L 356.99892 209.520433 
L 356.99892 210.489083 
L 356.99892 211.45773 
L 356.99892 212.426381 
L 356.99892 213.395028 
L 356.99892 214.363678 
L 356.99892 215.332325 
L 356.99892 216.300972 
L 356.99892 217.269623 
L 356.99892 218.23827 
L 356.99892 219.20692 
L 356.99892 220.175567 
L 356.99892 221.144218 
L 356.99892 222.112865 
L 356.99892 223.081516 
L 356.99892 224.050163 
L 356.99892 225.018813 
L 356.99892 225.98746 
L 356.99892 226.956107 
L 356.99892 227.924758 
L 356.99892 228.893405 
L 356.99892 229.862055 
L 356.99892 230.830702 
L 356.99892 231.799353 
L 356.99892 232.768 
L 356.99892 233.736651 
L 356.99892 234.705298 
L 356.99892 235.673945 
L 356.99892 236.642595 
L 356.99892 237.611246 
L 356.99892 238.579889 
L 356.99892 239.54854 
L 356.99892 240.51719 
L 356.99892 241.485841 
L 356.99892 242.454484 
L 356.99892 243.423135 
L 356.99892 244.391786 
L 356.99892 245.360436 
L 356.99892 246.32908 
L 356.99892 247.29773 
L 356.99892 248.266381 
L 356.99892 249.235024 
L 356.99892 250.203675 
L 356.99892 251.172325 
L 356.99892 252.140976 
L 356.99892 253.109619 
L 356.99892 254.07827 
L 356.99892 255.04692 
L 356.99892 256.015571 
L 356.99892 256.984214 
L 356.99892 257.952865 
L 356.99892 258.921516 
L 356.99892 259.890159 
L 356.99892 260.85881 
L 356.99892 261.82746 
L 356.99892 262.796111 
L 356.99892 263.764754 
L 356.99892 264.733405 
L 356.99892 265.702055 
L 356.99892 266.670706 
L 356.99892 267.639349 
L 356.99892 268.608 
L 356.99892 269.576651 
L 356.99892 270.545301 
L 356.99892 271.513945 
L 356.99892 272.482595 
L 356.99892 273.451246 
L 356.99892 274.419889 
L 356.99892 275.38854 
L 356.99892 276.35719 
L 356.99892 277.325841 
L 356.99892 278.294484 
L 356.99892 279.263135 
L 356.99892 280.231786 
L 356.99892 281.200436 
L 356.99892 282.16908 
L 356.99892 283.13773 
L 356.99892 284.106381 
L 356.99892 285.075024 
L 356.99892 286.043675 
L 356.99892 287.012325 
L 356.99892 287.980976 
L 356.99892 288.949619 
L 356.99892 289.91827 
L 356.99892 290.88692 
L 356.99892 291.855571 
L 356.99892 292.824214 
L 356.99892 293.792865 
L 356.99892 294.761516 
L 356.756754 295.488 
L 355.788104 295.488 
L 354.81946 295.488 
L 353.85081 295.488 
L 352.882159 295.488 
L 351.913508 295.488 
L 350.944865 295.488 
L 349.976214 295.488 
L 349.007564 295.488 
L 348.03892 295.488 
L 347.07027 295.488 
L 346.101619 295.488 
L 345.132969 295.488 
L 344.164325 295.488 
L 343.195675 295.488 
L 342.227024 295.488 
L 341.258374 295.488 
L 340.28973 295.488 
L 339.32108 295.488 
L 338.352429 295.488 
L 337.383786 295.488 
L 336.415135 295.488 
L 335.446484 295.488 
L 334.477834 295.488 
L 333.50919 295.488 
L 332.54054 295.488 
L 331.571889 295.488 
L 330.603239 295.488 
L 329.634595 295.488 
L 328.665945 295.488 
L 327.697294 295.488 
L 326.728651 295.488 
L 325.76 295.488 
L 324.791349 295.488 
L 323.822699 295.488 
L 322.854055 295.488 
L 321.885405 295.488 
L 320.916754 295.488 
L 319.948104 295.488 
L 318.97946 295.488 
L 318.01081 295.488 
L 317.042159 295.488 
L 316.073516 295.488 
L 315.104865 295.488 
L 314.136214 295.488 
L 313.167564 295.488 
L 312.19892 295.488 
L 311.23027 295.488 
L 310.261619 295.488 
L 309.292969 295.488 
L 308.324325 295.488 
L 307.355675 295.488 
L 306.387024 295.488 
L 305.418381 295.488 
L 304.44973 295.488 
L 303.48108 295.488 
L 302.512429 295.488 
L 301.543786 295.488 
L 300.575135 295.488 
L 299.606484 295.488 
L 298.637834 295.488 
L 297.66919 295.488 
L 296.70054 295.488 
L 295.731893 295.488 
L 294.763242 295.488 
L 293.794595 295.488 
L 292.825945 295.488 
L 291.857298 295.488 
L 290.888647 295.488 
L 289.92 295.488 
L 288.951349 295.488 
L 287.982702 295.488 
L 287.014052 295.488 
L 286.045405 295.488 
L 285.076758 295.488 
L 284.108107 295.488 
L 283.13946 295.488 
L 282.17081 295.488 
L 281.202163 295.488 
L 280.233512 295.488 
L 279.264865 295.488 
L 278.296214 295.488 
L 277.327567 295.488 
L 276.358917 295.488 
L 275.39027 295.488 
L 274.421623 295.488 
L 273.452972 295.488 
L 272.484325 295.488 
L 271.515675 295.488 
L 270.547028 295.488 
L 269.578377 295.488 
L 268.60973 295.488 
L 267.64108 295.488 
L 266.672433 295.488 
L 265.703784 295.488 
L 264.735135 295.488 
L 263.766486 295.488 
L 262.797837 295.488 
L 261.829189 295.488 
L 260.86054 295.488 
L 259.891891 295.488 
L 258.923242 295.488 
L 257.954595 295.488 
L 256.985946 295.488 
L 256.017298 295.488 
L 255.048649 295.488 
L 254.08 295.488 
L 253.111351 295.488 
L 252.142702 295.488 
L 251.174054 295.488 
L 250.205405 295.488 
L 249.236757 295.488 
L 248.268108 295.488 
L 247.299459 295.488 
L 246.330811 295.488 
L 245.362162 295.488 
L 244.393514 295.488 
L 243.424865 295.488 
L 242.456216 295.488 
L 241.487567 295.488 
L 240.518919 295.488 
L 239.55027 295.488 
L 238.581622 295.488 
L 237.612973 295.488 
L 236.644324 295.488 
L 235.675676 295.488 
L 234.707027 295.488 
L 233.738378 295.488 
L 232.76973 295.488 
L 231.801081 295.488 
L 230.832433 295.488 
L 229.863784 295.488 
L 228.895135 295.488 
L 227.926486 295.488 
L 226.957838 295.488 
L 225.989189 295.488 
L 225.020541 295.488 
L 224.051892 295.488 
L 223.083243 295.488 
L 222.114595 295.488 
L 221.145946 295.488 
L 220.177298 295.488 
L 219.208649 295.488 
L 218.24 295.488 
L 217.271351 295.488 
L 216.302702 295.488 
L 215.334054 295.488 
L 214.365405 295.488 
L 213.396758 295.488 
L 212.428109 295.488 
L 211.45946 295.488 
L 210.490811 295.488 
L 209.522163 295.488 
L 208.553514 295.488 
L 207.584865 295.488 
L 206.616216 295.488 
L 205.647567 295.488 
L 204.67892 295.488 
L 203.71027 295.488 
L 202.741623 295.488 
L 201.772972 295.488 
L 200.804325 295.488 
L 199.835675 295.488 
L 198.867028 295.488 
L 197.898377 295.488 
L 196.92973 295.488 
L 195.961083 295.488 
L 194.992433 295.488 
L 194.023786 295.488 
L 193.055135 295.488 
L 192.086488 295.488 
L 191.117837 295.488 
L 190.14919 295.488 
L 189.18054 295.488 
L 188.211893 295.488 
L 187.243242 295.488 
L 186.274595 295.488 
L 185.305948 295.488 
L 184.337298 295.488 
L 183.368651 295.488 
L 182.4 295.488 
L 181.431353 295.488 
L 180.462702 295.488 
L 179.494055 295.488 
L 178.525405 295.488 
L 177.556758 295.488 
L 176.588107 295.488 
L 175.61946 295.488 
L 174.65081 295.488 
L 173.682166 295.488 
L 172.713516 295.488 
L 171.744865 295.488 
L 170.776214 295.488 
L 169.807571 295.488 
L 168.83892 295.488 
L 167.87027 295.488 
L 166.901619 295.488 
L 165.932976 295.488 
L 164.964325 295.488 
L 163.995675 295.488 
L 163.027031 295.488 
L 162.058381 295.488 
L 161.08973 295.488 
L 160.12108 295.488 
L 159.152436 295.488 
L 158.183786 295.488 
L 157.215135 295.488 
L 156.246484 295.488 
L 155.277841 295.488 
L 154.30919 295.488 
L 153.34054 295.488 
L 152.371896 295.488 
L 151.403246 295.488 
L 150.434595 295.488 
L 149.465945 295.488 
L 148.497301 295.488 
L 147.528651 295.488 
L 146.56 295.488 
L 145.591349 295.488 
L 144.622706 295.488 
L 143.654055 295.488 
L 142.685405 295.488 
L 141.716761 295.488 
L 140.748111 295.488 
L 139.77946 295.488 
L 138.81081 295.488 
L 137.842166 295.488 
L 136.873516 295.488 
L 135.904865 295.488 
L 134.936214 295.488 
L 133.967571 295.488 
L 132.99892 295.488 
L 132.03027 295.488 
L 131.061626 295.488 
L 130.092976 295.488 
L 129.124325 295.488 
L 128.155675 295.488 
L 127.187031 295.488 
L 126.218381 295.488 
L 125.24973 295.488 
L 124.28108 295.488 
L 123.312436 295.488 
L 122.343786 295.488 
L 121.375135 295.488 
L 120.406492 295.488 
L 119.437841 295.488 
L 118.46919 295.488 
L 117.50054 295.488 
L 116.531896 295.488 
L 115.563246 295.488 
L 115.07892 295.003675 
L 115.07892 294.035024 
L 115.07892 293.066381 
L 115.07892 292.09773 
L 115.07892 291.12908 
L 115.07892 290.160429 
L 115.07892 289.191786 
L 115.07892 288.223135 
L 115.07892 287.254484 
L 115.07892 286.285841 
L 115.07892 285.31719 
L 115.07892 284.34854 
L 115.07892 283.379889 
L 115.07892 282.411246 
L 115.07892 281.442595 
L 115.07892 280.473945 
L 115.07892 279.505294 
L 115.07892 278.536651 
L 115.07892 277.568 
L 115.07892 276.599349 
L 115.07892 275.630706 
L 115.07892 274.662055 
L 115.07892 273.693405 
L 115.07892 272.724754 
L 115.07892 271.756111 
L 115.07892 270.78746 
L 115.07892 269.81881 
L 115.07892 268.850159 
L 115.07892 267.881516 
L 115.07892 266.912865 
L 115.07892 265.944214 
L 115.07892 264.975571 
L 115.07892 264.00692 
L 115.07892 263.03827 
L 115.07892 262.069619 
L 115.07892 261.100976 
L 115.07892 260.132325 
L 115.07892 259.163675 
L 115.07892 258.195024 
L 115.07892 257.226381 
L 115.07892 256.25773 
L 115.07892 255.28908 
L 115.07892 254.320436 
L 115.07892 253.351786 
L 115.07892 252.383135 
L 115.07892 251.414484 
L 115.07892 250.445841 
L 115.07892 249.47719 
L 115.07892 248.50854 
L 115.07892 247.539889 
L 115.07892 246.571246 
L 115.07892 245.602595 
L 115.07892 244.633945 
L 115.07892 243.665301 
L 115.07892 242.696651 
L 115.07892 241.728 
L 115.07892 240.759349 
L 115.07892 239.790706 
L 115.07892 238.822055 
L 115.07892 237.853405 
L 115.07892 236.884754 
L 115.07892 235.916111 
L 115.07892 234.94746 
L 115.07892 233.978813 
L 115.07892 233.010163 
L 115.07892 232.041516 
L 115.07892 231.072865 
L 115.07892 230.104218 
L 115.07892 229.135567 
L 115.07892 228.16692 
L 115.07892 227.19827 
L 115.07892 226.229623 
L 115.07892 225.260972 
L 115.07892 224.292325 
L 115.07892 223.323678 
L 115.07892 222.355028 
L 115.07892 221.386381 
L 115.07892 220.41773 
L 115.07892 219.449083 
L 115.07892 218.480433 
L 115.07892 217.511786 
L 115.07892 216.543135 
L 115.07892 215.574488 
L 115.07892 214.605837 
L 115.07892 213.63719 
L 115.07892 212.668543 
L 115.07892 211.699893 
L 115.07892 210.731246 
L 115.07892 209.762595 
L 115.07892 208.793948 
L 115.07892 207.825298 
L 115.07892 206.856651 
L 115.07892 205.888 
L 115.07892 204.919353 
L 115.07892 203.950704 
L 115.07892 202.982055 
L 115.07892 202.013407 
L 115.07892 201.044758 
L 115.07892 200.076109 
L 115.07892 199.10746 
L 115.07892 198.138811 
L 115.07892 197.170163 
L 115.07892 196.201516 
L 115.07892 195.232867 
L 115.07892 194.264218 
L 115.07892 193.295569 
L 115.07892 192.32692 
L 115.07892 191.358272 
L 115.07892 190.389623 
L 115.07892 189.420974 
L 115.07892 188.452325 
L 115.07892 187.483677 
L 115.07892 186.515029 
L 115.07892 185.54638 
L 115.07892 184.577731 
L 115.07892 183.609082 
L 115.07892 182.640434 
L 115.07892 181.671785 
L 115.07892 180.703137 
L 115.07892 179.734488 
L 115.07892 178.765839 
L 115.07892 177.797191 
L 115.07892 176.828542 
L 115.07892 175.859893 
L 115.07892 174.891245 
L 115.07892 173.922596 
L 115.07892 172.953948 
L 115.07892 171.985299 
L 115.07892 171.01665 
L 115.07892 170.048002 
L 115.07892 169.079353 
L 115.07892 168.110704 
L 115.07892 167.142056 
L 115.07892 166.173407 
L 115.07892 165.204759 
L 115.07892 164.23611 
L 115.07892 163.267461 
L 115.07892 162.298812 
L 115.07892 161.330164 
L 115.07892 160.361516 
L 115.07892 159.392867 
L 115.07892 158.424218 
L 115.07892 157.455569 
L 115.07892 156.48692 
L 115.07892 155.518272 
L 115.07892 154.549623 
L 115.07892 153.580974 
L 115.07892 152.612325 
L 115.07892 151.643678 
L 115.07892 150.67503 
L 115.07892 149.706381 
L 115.07892 148.737732 
L 115.07892 147.769083 
L 115.07892 146.800434 
L 115.07892 145.831786 
L 115.07892 144.863137 
L 115.07892 143.894488 
L 115.07892 142.925841 
L 115.07892 141.95719 
L 115.07892 140.988543 
L 115.07892 140.019893 
L 115.07892 139.051246 
L 115.07892 138.082595 
L 115.07892 137.113948 
L 115.07892 136.145298 
L 115.07892 135.176651 
L 115.07892 134.208004 
L 115.07892 133.239353 
L 115.07892 132.270706 
L 115.07892 131.302055 
L 115.07892 130.333408 
L 115.07892 129.364758 
L 115.07892 128.396111 
L 115.07892 127.42746 
L 115.07892 126.458813 
L 115.07892 125.490163 
L 115.07892 124.521516 
L 115.07892 123.552869 
L 115.07892 122.584218 
L 115.07892 121.615571 
L 115.07892 120.64692 
L 115.07892 119.678273 
L 115.07892 118.709623 
L 115.07892 117.740976 
L 115.07892 116.772325 
L 115.07892 115.803678 
L 115.07892 114.835028 
L 115.07892 113.866381 
L 115.07892 112.89773 
L 115.07892 111.929087 
L 115.07892 110.960436 
L 115.07892 109.991786 
L 115.07892 109.023135 
L 115.07892 108.054492 
L 115.07892 107.085841 
L 115.07892 106.11719 
L 115.07892 105.14854 
L 115.07892 104.179896 
L 115.07892 103.211246 
L 115.07892 102.242595 
L 115.07892 101.273952 
L 115.07892 100.305301 
L 115.07892 99.336651 
L 115.07892 98.368 
L 115.07892 97.399357 
L 115.07892 96.430706 
L 115.07892 95.462055 
L 115.07892 94.493405 
L 115.07892 93.524761 
L 115.07892 92.556111 
L 115.07892 91.58746 
L 115.07892 90.618817 
L 115.07892 89.650166 
L 115.07892 88.681516 
L 115.07892 87.712865 
L 115.07892 86.744222 
L 115.07892 85.775571 
L 115.07892 84.80692 
L 115.07892 83.83827 
L 115.07892 82.869626 
L 115.07892 81.900976 
L 115.07892 80.932325 
L 115.07892 79.963682 
L 115.07892 78.995031 
L 115.07892 78.026381 
L 115.07892 77.05773 
L 115.07892 76.089087 
L 115.07892 75.120436 
L 115.07892 74.151786 
L 115.07892 73.183135 
L 115.07892 72.214492 
L 115.07892 71.245841 
L 115.07892 70.27719 
L 115.07892 69.308547 
L 115.07892 68.339896 
L 115.07892 67.371246 
L 115.07892 66.402595 
L 115.07892 65.433952 
L 115.07892 64.465301 
L 115.07892 63.496651 
L 115.07892 62.528 
L 115.07892 61.559357 
L 115.07892 60.590706 
L 115.07892 59.622055 
L 115.07892 58.653412 
L 115.07892 57.684761 
L 115.07892 56.716111 
L 115.07892 55.74746 
L 115.07892 54.778817 
L 115.07892 53.810166 
L 115.805405 53.568 
z
" clip-path="url(#pfe69f84ed1)" style="fill: #c9c9f5; opacity: 0.46; stroke: #c9c9f5; stroke-linejoin: miter"/>
   </g>
   <g id="patch_4">
    <path d="M 163.008433 77.788292 
L 163.429068 77.331319 
L 163.909713 76.916782 
L 164.448483 76.54344 
L 165.043503 76.210065 
L 165.692903 75.915403 
L 166.394791 75.658218 
L 167.1473 75.437277 
L 167.948553 75.251338 
L 168.796665 75.09916 
L 169.689761 74.979503 
L 170.625964 74.891131 
L 171.603398 74.832803 
L 172.396314 74.807291 
L 173.091109 74.799013 
L 173.800352 74.802722 
L 174.523358 74.817929 
L 175.259412 74.844162 
L 176.007818 74.880947 
L 176.767872 74.927807 
L 177.538871 74.984266 
L 178.320114 75.049847 
L 179.110894 75.124074 
L 179.910508 75.206463 
L 180.71826 75.296545 
L 181.533441 75.393838 
L 182.355352 75.497878 
L 183.183286 75.608175 
L 184.016545 75.724253 
L 184.854424 75.845643 
L 185.696218 75.971861 
L 186.517516 76.098729 
L 187.291924 76.221374 
L 188.067647 76.346863 
L 188.844145 76.474821 
L 189.620885 76.604885 
L 190.397325 76.736682 
L 191.172932 76.869843 
L 191.947171 77.004 
L 192.719501 77.138791 
L 193.489392 77.273843 
L 194.258959 77.409227 
L 195.044528 77.547598 
L 195.84048 77.687644 
L 196.631304 77.826311 
L 197.416343 77.963174 
L 198.194941 78.0978 
L 198.966442 78.229748 
L 199.730187 78.358593 
L 200.485522 78.483902 
L 201.231792 78.605234 
L 202.117259 78.745417 
L 203.042878 78.886769 
L 203.950917 79.019295 
L 204.839971 79.142049 
L 205.708638 79.254093 
L 206.555523 79.354481 
L 207.379224 79.442283 
L 208.178338 79.516553 
L 208.951468 79.576346 
L 209.697211 79.62073 
L 210.414169 79.648761 
L 211.10094 79.659493 
L 211.756124 79.651987 
L 212.378321 79.625306 
L 212.966131 79.578511 
L 213.889312 79.45313 
L 214.826915 79.254056 
L 215.704488 78.994468 
L 216.524989 78.680009 
L 217.291384 78.316287 
L 218.006631 77.908931 
L 218.673694 77.463556 
L 219.295538 76.985798 
L 219.875122 76.481258 
L 220.415408 75.95558 
L 220.919358 75.41437 
L 221.389937 74.863259 
L 221.830104 74.30786 
L 222.242822 73.753804 
L 222.631054 73.206713 
L 222.997762 72.672201 
L 223.371288 72.118087 
L 223.843393 71.421633 
L 224.290736 70.792534 
L 224.7775 70.180064 
L 225.358045 69.606558 
L 225.958446 69.255185 
L 226.707801 69.208765 
L 227.340973 69.467703 
L 227.926174 69.889342 
L 228.591271 70.530644 
L 229.043481 71.070309 
L 229.42381 71.646095 
L 229.793078 72.320387 
L 230.152206 73.089386 
L 230.502119 73.949291 
L 230.756884 74.645428 
L 230.986609 75.323659 
L 231.21236 76.036453 
L 231.434576 76.782164 
L 231.653692 77.559131 
L 231.870145 78.365709 
L 232.084371 79.200239 
L 232.275707 79.974118 
L 232.447491 80.689957 
L 232.618409 81.420237 
L 232.788732 82.1641 
L 232.95873 82.920694 
L 233.128673 83.689152 
L 233.298832 84.468624 
L 233.469477 85.25825 
L 233.640878 86.057171 
L 233.813307 86.864522 
L 233.983993 87.665449 
L 234.144678 88.419907 
L 234.306884 89.179394 
L 234.470811 89.943234 
L 234.636656 90.710761 
L 234.804619 91.481313 
L 234.974897 92.254224 
L 235.147689 93.028824 
L 235.323194 93.804449 
L 235.506849 94.602865 
L 235.694056 95.40175 
L 235.884731 96.199012 
L 236.07909 96.993834 
L 236.277348 97.785401 
L 236.479719 98.572919 
L 236.68642 99.355574 
L 236.897664 100.132555 
L 237.113667 100.903049 
L 237.334643 101.66626 
L 237.560809 102.421367 
L 237.792377 103.167561 
L 238.029564 103.904048 
L 238.272585 104.630006 
L 238.521654 105.344626 
L 238.776986 106.047106 
L 239.038797 106.736632 
L 239.3073 107.412396 
L 239.589653 108.089833 
L 239.958514 108.925496 
L 240.340651 109.735034 
L 240.736606 110.516461 
L 241.146921 111.267815 
L 241.572138 111.987133 
L 242.012798 112.672437 
L 242.469445 113.321757 
L 242.942619 113.933127 
L 243.432862 114.504576 
L 243.940718 115.034134 
L 244.466726 115.51983 
L 245.01143 115.959699 
L 245.575372 116.351766 
L 246.159093 116.694061 
L 246.781216 116.992263 
L 247.437934 117.239196 
L 248.116465 117.430569 
L 248.815948 117.568656 
L 249.535524 117.65574 
L 250.274331 117.694087 
L 251.031506 117.685979 
L 251.80619 117.633692 
L 252.597521 117.539499 
L 253.404639 117.405674 
L 254.226682 117.234502 
L 255.062787 117.028247 
L 255.912097 116.789191 
L 256.773749 116.519611 
L 257.494007 116.275547 
L 258.168166 116.033182 
L 258.849694 115.775763 
L 259.538249 115.504209 
L 260.233491 115.219419 
L 260.93508 114.922314 
L 261.642673 114.613798 
L 262.35593 114.294785 
L 263.074512 113.966181 
L 263.798075 113.628898 
L 264.526279 113.283854 
L 265.258784 112.931946 
L 265.995247 112.574091 
L 266.735329 112.211199 
L 267.47869 111.844179 
L 268.224989 111.47394 
L 268.973882 111.101398 
L 269.693809 110.743024 
L 270.404629 110.389536 
L 271.124759 110.032504 
L 271.846209 109.676468 
L 272.568728 109.322186 
L 273.292055 108.970415 
L 274.015938 108.621906 
L 274.74012 108.277417 
L 275.464345 107.937713 
L 276.188358 107.603545 
L 276.911905 107.27567 
L 277.63473 106.954845 
L 278.356577 106.64183 
L 279.077194 106.337381 
L 279.796321 106.042249 
L 280.513701 105.757207 
L 281.229086 105.482997 
L 281.942219 105.220378 
L 282.652836 104.970114 
L 283.360694 104.732956 
L 284.114437 104.49468 
L 284.94175 104.251301 
L 285.763137 104.029869 
L 286.57821 103.831568 
L 287.386561 103.657588 
L 288.187791 103.509113 
L 288.981506 103.387319 
L 289.767303 103.293397 
L 290.544779 103.22853 
L 291.31354 103.193911 
L 292.07318 103.190713 
L 292.823307 103.220137 
L 293.563514 103.283351 
L 294.293409 103.381545 
L 295.012586 103.515911 
L 295.720645 103.687625 
L 296.393081 103.889586 
L 296.973948 104.086949 
L 297.561109 104.30252 
L 298.154259 104.53594 
L 298.753111 104.786824 
L 299.357368 105.05482 
L 299.966721 105.339545 
L 300.580887 105.640638 
L 301.199557 105.957731 
L 301.822441 106.290449 
L 302.449244 106.638423 
L 303.079663 107.001294 
L 303.713402 107.378678 
L 304.350164 107.770221 
L 304.989655 108.175542 
L 305.631571 108.594279 
L 306.275623 109.026058 
L 306.921515 109.470516 
L 307.568944 109.92728 
L 308.217608 110.395988 
L 308.867224 110.876257 
L 309.517482 111.367727 
L 310.168094 111.87003 
L 310.818757 112.382798 
L 311.469181 112.905654 
L 312.119057 113.43824 
L 312.768096 113.980178 
L 313.416002 114.531106 
L 314.062478 115.09065 
L 314.707223 115.65844 
L 315.34994 116.234111 
L 315.990333 116.817294 
L 316.628106 117.407616 
L 317.262963 118.004714 
L 317.894602 118.608213 
L 318.522733 119.217746 
L 319.147053 119.832948 
L 319.767267 120.453444 
L 320.383079 121.078872 
L 320.994185 121.708854 
L 321.621653 122.365604 
L 322.248622 123.032004 
L 322.869218 123.701864 
L 323.483096 124.374758 
L 324.089937 125.050258 
L 324.689395 125.727937 
L 325.281145 126.407371 
L 325.864841 127.088132 
L 326.440158 127.769791 
L 327.00675 128.451923 
L 327.564299 129.134103 
L 328.112452 129.815899 
L 328.650883 130.496891 
L 329.179253 131.176646 
L 329.697239 131.85474 
L 330.204485 132.530749 
L 330.700675 133.204242 
L 331.18547 133.874791 
L 331.658529 134.541974 
L 332.119522 135.20536 
L 332.568109 135.864528 
L 333.003965 136.519044 
L 333.426743 137.168483 
L 333.83612 137.812423 
L 334.231749 138.450435 
L 334.613304 139.082088 
L 334.980447 139.706957 
L 335.332846 140.32462 
L 335.670161 140.934643 
L 335.99206 141.536606 
L 336.298205 142.130081 
L 336.588271 142.714636 
L 336.86191 143.289848 
L 337.118792 143.855289 
L 337.358584 144.410534 
L 337.580954 144.955153 
L 337.785563 145.488724 
L 337.979202 146.031828 
L 338.216872 146.826361 
L 338.389142 147.613135 
L 338.498696 148.392613 
L 338.548212 149.165268 
L 338.540388 149.931565 
L 338.477896 150.691971 
L 338.363428 151.446956 
L 338.19966 152.196987 
L 337.989284 152.942533 
L 337.734986 153.68406 
L 337.43945 154.422035 
L 337.109417 155.148489 
L 336.781434 155.802024 
L 336.427158 156.452999 
L 336.04854 157.101742 
L 335.647528 157.748581 
L 335.22607 158.393845 
L 334.786108 159.037863 
L 334.329597 159.68096 
L 333.858471 160.323469 
L 333.374687 160.965714 
L 332.880193 161.608026 
L 332.37693 162.250732 
L 331.866848 162.894161 
L 331.351886 163.538642 
L 330.850154 164.164232 
L 330.348601 164.789927 
L 329.848124 165.417337 
L 329.350628 166.04666 
L 328.858039 166.678089 
L 328.372292 167.31182 
L 327.895299 167.948048 
L 327.428995 168.586967 
L 326.975291 169.228773 
L 326.536123 169.873661 
L 326.113409 170.521825 
L 325.70907 171.173462 
L 325.325032 171.828765 
L 324.963229 172.487931 
L 324.605382 173.192386 
L 324.271935 173.91308 
L 323.970799 174.640017 
L 323.704427 175.37346 
L 323.475273 176.113668 
L 323.285798 176.860904 
L 323.138448 177.615429 
L 323.035686 178.377505 
L 322.979956 179.147394 
L 322.973728 179.925356 
L 323.019447 180.711653 
L 323.119569 181.506547 
L 323.276553 182.310299 
L 323.442219 182.946811 
L 323.64109 183.57205 
L 323.876047 184.203717 
L 324.145775 184.841538 
L 324.44899 185.485243 
L 324.784385 186.134559 
L 325.150662 186.789217 
L 325.546529 187.448942 
L 325.970679 188.113464 
L 326.42182 188.782512 
L 326.898654 189.455813 
L 327.399874 190.133097 
L 327.924196 190.81409 
L 328.470306 191.498521 
L 329.03692 192.186121 
L 329.62273 192.876616 
L 330.220745 193.563276 
L 330.709783 194.112972 
L 331.209098 194.664559 
L 331.718098 195.217904 
L 332.23617 195.772877 
L 332.762701 196.329339 
L 333.29709 196.887159 
L 333.838733 197.4462 
L 334.387022 198.006331 
L 334.941345 198.567416 
L 335.501095 199.129322 
L 336.065666 199.691916 
L 336.634459 200.25506 
L 337.206854 200.818624 
L 337.782257 201.382472 
L 338.36005 201.946469 
L 338.939625 202.510483 
L 339.520391 203.074379 
L 340.10172 203.638023 
L 340.678733 204.197239 
L 341.242864 204.744326 
L 341.806057 205.290714 
L 342.394711 205.862701 
L 342.999286 206.451936 
L 343.60049 207.040034 
L 344.197632 207.626859 
L 344.790046 208.212273 
L 345.377055 208.796139 
L 345.957965 209.378323 
L 346.532113 209.958688 
L 347.09882 210.537094 
L 347.657401 211.113411 
L 348.207185 211.687498 
L 348.747492 212.259221 
L 349.277645 212.828439 
L 349.796966 213.39502 
L 350.304768 213.958827 
L 350.800388 214.519724 
L 351.28314 215.077573 
L 351.752346 215.632238 
L 352.207334 216.183584 
L 352.647419 216.731473 
L 353.114849 217.331754 
L 353.69791 218.112532 
L 354.243154 218.882942 
L 354.74882 219.642625 
L 355.213147 220.391218 
L 355.634374 221.12837 
L 356.010733 221.853717 
L 356.340464 222.566897 
L 356.621811 223.267555 
L 356.853007 223.955335 
L 357.032299 224.629871 
L 357.157911 225.290807 
L 357.228096 225.937786 
L 357.24108 226.570445 
L 357.193483 227.203683 
L 357.077795 227.919774 
L 356.906832 228.624799 
L 356.681979 229.319081 
L 356.404615 230.002942 
L 356.076119 230.67671 
L 355.697877 231.340706 
L 355.271273 231.995258 
L 354.797687 232.640689 
L 354.278496 233.277325 
L 353.715087 233.905485 
L 353.108845 234.525501 
L 352.475849 235.124291 
L 351.958579 235.583624 
L 351.419505 236.038237 
L 350.8593 236.488281 
L 350.27865 236.933902 
L 349.678232 237.375243 
L 349.058732 237.812441 
L 348.420829 238.245656 
L 347.765209 238.675024 
L 347.092549 239.100696 
L 346.403521 239.522811 
L 345.698824 239.941512 
L 344.979124 240.356951 
L 344.245112 240.76928 
L 343.497468 241.178628 
L 342.736876 241.585147 
L 341.988726 241.9762 
L 341.322497 242.317758 
L 340.648574 242.657426 
L 339.96739 242.995283 
L 339.279365 243.331429 
L 338.584932 243.665951 
L 337.884508 243.99895 
L 337.178527 244.33052 
L 336.467415 244.660748 
L 335.751604 244.989728 
L 335.031507 245.31756 
L 334.307556 245.644331 
L 333.580184 245.970142 
L 332.84981 246.295073 
L 332.116859 246.619224 
L 331.381765 246.94269 
L 330.644953 247.265571 
L 329.906842 247.58794 
L 329.167865 247.909912 
L 328.439353 248.22694 
L 327.715632 248.541774 
L 326.97623 248.863371 
L 326.237686 249.184924 
L 325.500448 249.506513 
L 324.764964 249.828232 
L 324.031681 250.150168 
L 323.301047 250.472407 
L 322.573502 250.795042 
L 321.849493 251.118155 
L 321.129475 251.44183 
L 320.413888 251.766168 
L 319.70318 252.091244 
L 318.997799 252.417149 
L 318.29819 252.743977 
L 317.604796 253.071817 
L 316.91807 253.400738 
L 316.238453 253.730851 
L 315.566399 254.062234 
L 314.926778 254.383275 
L 314.284719 254.711799 
L 313.636474 255.049324 
L 312.982203 255.395444 
L 312.322071 255.74974 
L 311.656239 256.111817 
L 310.98487 256.481248 
L 310.308118 256.857628 
L 309.626156 257.240548 
L 308.939141 257.629587 
L 308.247241 258.024335 
L 307.550606 258.424387 
L 306.84941 258.829333 
L 306.143804 259.238746 
L 305.433962 259.652229 
L 304.720035 260.069371 
L 304.002197 260.489747 
L 303.280599 260.912952 
L 302.555413 261.338581 
L 301.879939 261.735494 
L 301.213897 262.126201 
L 300.545199 262.518004 
L 299.873946 262.910594 
L 299.200261 263.303675 
L 298.524245 263.696943 
L 297.846014 264.090104 
L 297.165675 264.482838 
L 296.483348 264.874865 
L 295.799137 265.265875 
L 295.113155 265.655564 
L 294.425512 266.043636 
L 293.736322 266.429788 
L 293.045695 266.813718 
L 292.353744 267.195122 
L 291.660577 267.573711 
L 290.966305 267.949168 
L 290.271042 268.321197 
L 289.574901 268.689502 
L 288.877989 269.053779 
L 288.180419 269.413734 
L 287.482301 269.769048 
L 286.731525 270.1454 
L 285.945092 270.532888 
L 285.158714 270.913144 
L 284.372549 271.285736 
L 283.586752 271.650252 
L 282.801481 272.006274 
L 282.016893 272.353382 
L 281.233145 272.691152 
L 280.450397 273.019172 
L 279.6688 273.337022 
L 278.88852 273.644286 
L 278.109709 273.940536 
L 277.332526 274.225362 
L 276.557124 274.498345 
L 275.783668 274.759059 
L 275.012309 275.007093 
L 274.243208 275.242028 
L 273.476521 275.463438 
L 272.712404 275.670912 
L 271.951015 275.864031 
L 271.192516 276.042371 
L 270.437055 276.205518 
L 269.684795 276.353048 
L 268.935895 276.484541 
L 268.190509 276.599595 
L 267.448794 276.697768 
L 266.71091 276.778656 
L 265.977014 276.84184 
L 265.247262 276.886896 
L 264.521811 276.913411 
L 263.800819 276.920953 
L 263.084442 276.909124 
L 262.372839 276.877485 
L 261.666169 276.825638 
L 260.964585 276.753144 
L 260.268246 276.659597 
L 259.577311 276.544572 
L 258.891937 276.407652 
L 258.207744 276.247124 
L 257.509197 276.05036 
L 256.820885 275.819459 
L 256.142419 275.555296 
L 255.473405 275.258706 
L 254.813454 274.930564 
L 254.162175 274.571713 
L 253.519175 274.183027 
L 252.884063 273.765351 
L 252.256449 273.319543 
L 251.635943 272.846462 
L 251.022152 272.346966 
L 250.414685 271.821915 
L 249.813152 271.272168 
L 249.217161 270.698569 
L 248.626321 270.10199 
L 248.040241 269.483284 
L 247.458529 268.84331 
L 246.880796 268.182919 
L 246.397426 267.612069 
L 245.933434 267.048927 
L 245.47173 266.474317 
L 245.012095 265.88873 
L 244.55431 265.292628 
L 244.098154 264.686509 
L 243.643408 264.070834 
L 243.189852 263.446102 
L 242.737265 262.812782 
L 242.28543 262.171357 
L 241.834125 261.522311 
L 241.38313 260.866113 
L 240.932227 260.203254 
L 240.481195 259.53421 
L 240.029815 258.859457 
L 239.577867 258.179486 
L 239.125131 257.494766 
L 238.671387 256.805781 
L 238.216415 256.113015 
L 237.759996 255.416943 
L 237.321598 254.748288 
L 236.891062 254.091968 
L 236.458271 253.433107 
L 236.019344 252.766964 
L 235.578194 252.09994 
L 235.13464 251.432476 
L 234.6885 250.765005 
L 234.239594 250.097953 
L 233.787739 249.431767 
L 233.332755 248.766872 
L 232.87446 248.103702 
L 232.412673 247.442691 
L 231.947212 246.784277 
L 231.477897 246.128887 
L 231.004545 245.476969 
L 230.526975 244.828941 
L 230.045007 244.185242 
L 229.558458 243.546315 
L 229.067148 242.912583 
L 228.570895 242.284481 
L 228.069518 241.662441 
L 227.562835 241.046911 
L 227.050665 240.438309 
L 226.532828 239.837075 
L 226.00914 239.243643 
L 225.479421 238.658446 
L 224.94349 238.081917 
L 224.401166 237.514495 
L 223.852266 236.956607 
L 223.29661 236.408692 
L 222.734017 235.871185 
L 222.164304 235.344518 
L 221.587292 234.82912 
L 221.002797 234.325431 
L 220.410639 233.833885 
L 219.810638 233.354911 
L 219.202612 232.888946 
L 218.586376 232.436426 
L 217.961754 231.997781 
L 217.328562 231.573447 
L 216.686618 231.163857 
L 216.035742 230.769448 
L 215.375753 230.39065 
L 214.706469 230.027898 
L 214.027707 229.681627 
L 213.339289 229.352269 
L 212.641032 229.04026 
L 211.932754 228.746034 
L 211.214274 228.470023 
L 210.485411 228.212662 
L 209.822435 227.998368 
L 209.196665 227.814345 
L 208.556651 227.643151 
L 207.902703 227.484532 
L 207.235131 227.338247 
L 206.554248 227.204047 
L 205.860364 227.081687 
L 205.153784 226.970917 
L 204.434827 226.871492 
L 203.7038 226.783166 
L 202.961012 226.705692 
L 202.206775 226.638823 
L 201.441398 226.582314 
L 200.665196 226.535916 
L 199.878475 226.49938 
L 199.081546 226.472464 
L 198.274722 226.454919 
L 197.458314 226.446497 
L 196.632628 226.446955 
L 195.797979 226.456042 
L 194.954677 226.473514 
L 194.103028 226.499124 
L 193.243351 226.532625 
L 192.375947 226.573769 
L 191.501136 226.62231 
L 190.619222 226.678 
L 189.730518 226.740597 
L 188.835333 226.809848 
L 187.933977 226.885511 
L 187.161051 226.954906 
L 186.415763 227.025553 
L 185.6667 227.100068 
L 184.914026 227.178326 
L 184.157905 227.260188 
L 183.398511 227.345533 
L 182.636007 227.434222 
L 181.870554 227.526127 
L 181.102327 227.621117 
L 180.33149 227.719059 
L 179.558211 227.819826 
L 178.782651 227.923282 
L 178.004984 228.0293 
L 177.225371 228.137749 
L 176.44398 228.248494 
L 175.66098 228.361408 
L 174.876536 228.47636 
L 174.090814 228.593214 
L 173.303981 228.711847 
L 172.51621 228.832118 
L 171.72766 228.953908 
L 170.938496 229.077074 
L 170.148884 229.201495 
L 169.359006 229.327034 
L 168.569012 229.453563 
L 167.779069 229.580946 
L 166.989356 229.709059 
L 166.200034 229.837767 
L 165.411259 229.96694 
L 164.623214 230.096445 
L 163.836056 230.226153 
L 163.04996 230.355932 
L 162.265083 230.485654 
L 161.486181 230.614413 
L 160.711704 230.742204 
L 159.897764 230.876505 
L 159.050684 231.015995 
L 158.206079 231.154623 
L 157.364151 231.292215 
L 156.525118 231.428612 
L 155.689174 231.563639 
L 154.856542 231.697135 
L 154.027417 231.828932 
L 153.202017 231.958863 
L 152.38055 232.086759 
L 151.563218 232.212461 
L 150.75023 232.335792 
L 149.941797 232.456594 
L 149.138134 232.574696 
L 148.339437 232.689934 
L 147.545921 232.80214 
L 146.757789 232.911145 
L 145.975257 233.016788 
L 145.198528 233.118898 
L 144.427818 233.217308 
L 143.663322 233.311855 
L 142.905256 233.402367 
L 142.153837 233.488682 
L 141.409253 233.570634 
L 140.671726 233.648055 
L 139.941467 233.720777 
L 139.218671 233.788635 
L 138.503561 233.851459 
L 137.796331 233.909086 
L 137.097206 233.961352 
L 136.406381 234.008082 
L 135.724065 234.049118 
L 135.022061 234.08565 
L 134.138376 234.122774 
L 133.2716 234.148727 
L 132.422196 234.163132 
L 131.590647 234.165618 
L 130.777428 234.155806 
L 129.983025 234.133325 
L 129.207905 234.097796 
L 128.452553 234.048847 
L 127.717444 233.986099 
L 127.003048 233.909184 
L 126.309856 233.817719 
L 125.638329 233.711337 
L 124.73995 233.537512 
L 123.883026 233.332134 
L 123.074008 233.095323 
L 122.313914 232.826266 
L 121.603748 232.524145 
L 120.944526 232.18814 
L 120.337252 231.817435 
L 119.78295 231.411219 
L 119.278677 230.965581 
L 118.812099 230.476297 
L 118.387119 229.950889 
L 118.002965 229.390197 
L 117.658859 228.795055 
L 117.354028 228.166303 
L 117.087692 227.504776 
L 116.859072 226.811316 
L 116.667395 226.086755 
L 116.511884 225.331937 
L 116.391764 224.547695 
L 116.306257 223.734874 
L 116.254583 222.8943 
L 116.235971 222.02682 
L 116.24964 221.13327 
L 116.294818 220.214489 
L 116.370719 219.271311 
L 116.465608 218.394475 
L 116.552638 217.724492 
L 116.652875 217.045066 
L 116.766016 216.3565 
L 116.891772 215.659114 
L 117.029862 214.953217 
L 117.179983 214.239124 
L 117.341845 213.517146 
L 117.515161 212.787595 
L 117.699642 212.050783 
L 117.894992 211.307025 
L 118.100914 210.556634 
L 118.317128 209.799918 
L 118.543331 209.037193 
L 118.779247 208.268771 
L 119.024567 207.494961 
L 119.279009 206.716082 
L 119.542285 205.932442 
L 119.814092 205.144357 
L 120.094147 204.352135 
L 120.382163 203.556092 
L 120.677836 202.756539 
L 120.980878 201.953789 
L 121.291006 201.148154 
L 121.607926 200.339946 
L 121.92227 199.552005 
L 122.227173 198.79971 
L 122.5371 198.046151 
L 122.851811 197.291581 
L 123.171077 196.536249 
L 123.494658 195.780406 
L 123.822317 195.024301 
L 124.153829 194.268184 
L 124.488951 193.512306 
L 124.827449 192.756918 
L 125.16908 192.002266 
L 125.513627 191.248604 
L 125.860836 190.496182 
L 126.210485 189.745248 
L 126.562335 188.996052 
L 126.916141 188.248845 
L 127.271679 187.503877 
L 127.628711 186.761399 
L 127.987006 186.021659 
L 128.346319 185.284908 
L 128.706418 184.551396 
L 129.067073 183.821374 
L 129.428038 183.09509 
L 129.78909 182.372796 
L 130.149983 181.654741 
L 130.510493 180.941175 
L 130.870376 180.232349 
L 131.2294 179.528512 
L 131.587327 178.829914 
L 131.943926 178.136806 
L 132.298951 177.449437 
L 132.65218 176.768058 
L 133.003373 176.092919 
L 133.352301 175.424269 
L 133.698709 174.762359 
L 134.042382 174.107438 
L 134.383075 173.459758 
L 134.720556 172.819567 
L 135.054595 172.187116 
L 135.384938 171.562655 
L 135.71137 170.946434 
L 136.033645 170.338703 
L 136.351532 169.739712 
L 136.664793 169.14971 
L 137.024964 168.471381 
L 137.41964 167.727825 
L 137.804992 167.001199 
L 138.180492 166.292052 
L 138.545621 165.600932 
L 138.899846 164.928388 
L 139.242639 164.274967 
L 139.57348 163.641218 
L 139.973099 162.894428 
L 140.392096 162.157486 
L 140.825477 161.438466 
L 141.272693 160.736848 
L 141.733187 160.05211 
L 142.206398 159.383727 
L 142.691777 158.73118 
L 143.188761 158.093949 
L 143.696794 157.471506 
L 144.215328 156.863332 
L 144.7438 156.268906 
L 145.281647 155.687705 
L 145.828327 155.119206 
L 146.38327 154.562888 
L 146.945929 154.018228 
L 147.515739 153.484707 
L 148.092154 152.961799 
L 148.674608 152.448983 
L 149.262555 151.945738 
L 149.855424 151.451542 
L 150.452667 150.965873 
L 151.053727 150.488207 
L 151.658049 150.018023 
L 152.265078 149.5548 
L 152.87425 149.098015 
L 153.48501 148.647148 
L 154.096809 148.201673 
L 154.709084 147.76107 
L 155.32128 147.324818 
L 155.932841 146.892393 
L 156.543204 146.463274 
L 157.151827 146.036939 
L 157.769047 145.605152 
L 158.453088 145.126525 
L 159.143667 144.641422 
L 159.828921 144.156844 
L 160.507925 143.671992 
L 161.17974 143.186057 
L 161.84343 142.698239 
L 162.498076 142.207732 
L 163.142727 141.713732 
L 163.776458 141.215438 
L 164.398332 140.712046 
L 165.007425 140.20275 
L 165.602791 139.686745 
L 166.183507 139.163232 
L 166.748633 138.631401 
L 167.29724 138.090451 
L 167.828397 137.539581 
L 168.341164 136.977984 
L 168.834612 136.404857 
L 169.307801 135.819396 
L 169.759802 135.220797 
L 170.189689 134.608258 
L 170.596519 133.980971 
L 170.979358 133.338136 
L 171.337285 132.678946 
L 171.669354 132.002602 
L 171.974633 131.308295 
L 172.252191 130.595227 
L 172.501098 129.862586 
L 172.71685 129.122617 
L 172.874455 128.460786 
L 173.000499 127.780819 
L 173.096045 127.083451 
L 173.16216 126.36942 
L 173.199927 125.639457 
L 173.210399 124.894299 
L 173.194651 124.134681 
L 173.153752 123.361337 
L 173.088771 122.575002 
L 173.000781 121.776413 
L 172.890844 120.966305 
L 172.760036 120.145408 
L 172.609425 119.314461 
L 172.440078 118.474201 
L 172.253057 117.625356 
L 172.049444 116.76867 
L 171.84031 115.943212 
L 171.647638 115.220664 
L 171.445338 114.4934 
L 171.233981 113.761828 
L 171.014144 113.026351 
L 170.786419 112.287382 
L 170.551376 111.545316 
L 170.309592 110.800565 
L 170.061653 110.053527 
L 169.808134 109.304619 
L 169.549621 108.554232 
L 169.286684 107.802784 
L 169.019908 107.050673 
L 168.74987 106.298308 
L 168.477147 105.546095 
L 168.202324 104.794431 
L 167.925985 104.043733 
L 167.648694 103.2944 
L 167.371041 102.546835 
L 167.093606 101.801442 
L 166.818451 101.062573 
L 166.520223 100.260982 
L 166.222428 99.458271 
L 165.927751 98.660173 
L 165.63692 97.867177 
L 165.350658 97.079766 
L 165.069693 96.298433 
L 164.794755 95.52366 
L 164.526571 94.755937 
L 164.265865 93.995743 
L 164.013364 93.243566 
L 163.76979 92.49989 
L 163.535873 91.765215 
L 163.312341 91.040008 
L 163.099923 90.324768 
L 162.899341 89.619978 
L 162.711324 88.926121 
L 162.536593 88.243682 
L 162.375885 87.573158 
L 162.218086 86.859044 
L 162.04985 86.004913 
L 161.911183 85.176647 
L 161.80365 84.375323 
L 161.728824 83.602 
L 161.688264 82.85774 
L 161.683544 82.143626 
L 161.720799 81.404057 
L 161.829068 80.552192 
L 162.009024 79.763122 
L 162.26361 79.038405 
L 162.595765 78.379609 
z
" clip-path="url(#pfe69f84ed1)" style="fill: #f69e5e; opacity: 0.36; stroke: #f69e5e; stroke-linejoin: miter"/>
   </g>
   <g id="matplotlib.axis_1">
    <g id="xtick_1">
     <g id="line2d_1">
      <defs>
       <path id="m85cd6d8f50" d="M 0 0 
L 0 3.5 
" style="stroke: #000000; stroke-width: 0.8"/>
      </defs>
      <g>
       <use xlink:href="#m85cd6d8f50" x="115.07892" y="307.584" style="stroke: #000000; stroke-width: 0.8"/>
      </g>
     </g>
     <g id="text_1">
      <!-- −1.0 -->
      <g transform="translate(102.937514 322.182437) scale(0.1 -0.1)">
       <defs>
        <path id="DejaVuSans-2212" d="M 678 2272 
L 4684 2272 
L 4684 1741 
L 678 1741 
L 678 2272 
z
" transform="scale(0.015625)"/>
        <path id="DejaVuSans-31" d="M 794 531 
L 1825 531 
L 1825 4091 
L 703 3866 
L 703 4441 
L 1819 4666 
L 2450 4666 
L 2450 531 
L 3481 531 
L 3481 0 
L 794 0 
L 794 531 
z
" transform="scale(0.015625)"/>
        <path id="DejaVuSans-2e" d="M 684 794 
L 1344 794 
L 1344 0 
L 684 0 
L 684 794 
z
" transform="scale(0.015625)"/>
        <path id="DejaVuSans-30" d="M 2034 4250 
Q 1547 4250 1301 3770 
Q 1056 3291 1056 2328 
Q 1056 1369 1301 889 
Q 1547 409 2034 409 
Q 2525 409 2770 889 
Q 3016 1369 3016 2328 
Q 3016 3291 2770 3770 
Q 2525 4250 2034 4250 
z
M 2034 4750 
Q 2819 4750 3233 4129 
Q 3647 3509 3647 2328 
Q 3647 1150 3233 529 
Q 2819 -91 2034 -91 
Q 1250 -91 836 529 
Q 422 1150 422 2328 
Q 422 3509 836 4129 
Q 1250 4750 2034 4750 
z
" transform="scale(0.015625)"/>
       </defs>
       <use xlink:href="#DejaVuSans-2212"/>
       <use xlink:href="#DejaVuSans-31" transform="translate(83.789062 0)"/>
       <use xlink:href="#DejaVuSans-2e" transform="translate(147.412109 0)"/>
       <use xlink:href="#DejaVuSans-30" transform="translate(179.199219 0)"/>
      </g>
     </g>
    </g>
    <g id="xtick_2">
     <g id="line2d_2">
      <g>
       <use xlink:href="#m85cd6d8f50" x="175.61946" y="307.584" style="stroke: #000000; stroke-width: 0.8"/>
      </g>
     </g>
     <g id="text_2">
      <!-- −0.5 -->
      <g transform="translate(163.478054 322.182437) scale(0.1 -0.1)">
       <defs>
        <path id="DejaVuSans-35" d="M 691 4666 
L 3169 4666 
L 3169 4134 
L 1269 4134 
L 1269 2991 
Q 1406 3038 1543 3061 
Q 1681 3084 1819 3084 
Q 2600 3084 3056 2656 
Q 3513 2228 3513 1497 
Q 3513 744 3044 326 
Q 2575 -91 1722 -91 
Q 1428 -91 1123 -41 
Q 819 9 494 109 
L 494 744 
Q 775 591 1075 516 
Q 1375 441 1709 441 
Q 2250 441 2565 725 
Q 2881 1009 2881 1497 
Q 2881 1984 2565 2268 
Q 2250 2553 1709 2553 
Q 1456 2553 1204 2497 
Q 953 2441 691 2322 
L 691 4666 
z
" transform="scale(0.015625)"/>
       </defs>
       <use xlink:href="#DejaVuSans-2212"/>
       <use xlink:href="#DejaVuSans-30" transform="translate(83.789062 0)"/>
       <use xlink:href="#DejaVuSans-2e" transform="translate(147.412109 0)"/>
       <use xlink:href="#DejaVuSans-35" transform="translate(179.199219 0)"/>
      </g>
     </g>
    </g>
    <g id="xtick_3">
     <g id="line2d_3">
      <g>
       <use xlink:href="#m85cd6d8f50" x="236.16" y="307.584" style="stroke: #000000; stroke-width: 0.8"/>
      </g>
     </g>
     <g id="text_3">
      <!-- 0.0 -->
      <g transform="translate(228.208438 322.182437) scale(0.1 -0.1)">
       <use xlink:href="#DejaVuSans-30"/>
       <use xlink:href="#DejaVuSans-2e" transform="translate(63.623047 0)"/>
       <use xlink:href="#DejaVuSans-30" transform="translate(95.410156 0)"/>
      </g>
     </g>
    </g>
    <g id="xtick_4">
     <g id="line2d_4">
      <g>
       <use xlink:href="#m85cd6d8f50" x="296.70054" y="307.584" style="stroke: #000000; stroke-width: 0.8"/>
      </g>
     </g>
     <g id="text_4">
      <!-- 0.5 -->
      <g transform="translate(288.748977 322.182437) scale(0.1 -0.1)">
       <use xlink:href="#DejaVuSans-30"/>
       <use xlink:href="#DejaVuSans-2e" transform="translate(63.623047 0)"/>
       <use xlink:href="#DejaVuSans-35" transform="translate(95.410156 0)"/>
      </g>
     </g>
    </g>
    <g id="xtick_5">
     <g id="line2d_5">
      <g>
       <use xlink:href="#m85cd6d8f50" x="357.24108" y="307.584" style="stroke: #000000; stroke-width: 0.8"/>
      </g>
     </g>
     <g id="text_5">
      <!-- 1.0 -->
      <g transform="translate(349.289517 322.182437) scale(0.1 -0.1)">
       <use xlink:href="#DejaVuSans-31"/>
       <use xlink:href="#DejaVuSans-2e" transform="translate(63.623047 0)"/>
       <use xlink:href="#DejaVuSans-30" transform="translate(95.410156 0)"/>
      </g>
     </g>
    </g>
   </g>
   <g id="matplotlib.axis_2">
    <g id="ytick_1">
     <g id="line2d_6">
      <defs>
       <path id="m8902b446c5" d="M 0 0 
L -3.5 0 
" style="stroke: #000000; stroke-width: 0.8"/>
      </defs>
      <g>
       <use xlink:href="#m8902b446c5" x="57.6" y="295.488" style="stroke: #000000; stroke-width: 0.8"/>
      </g>
     </g>
     <g id="text_6">
      <!-- −1.00 -->
      <g transform="translate(19.954687 299.287219) scale(0.1 -0.1)">
       <use xlink:href="#DejaVuSans-2212"/>
       <use xlink:href="#DejaVuSans-31" transform="translate(83.789062 0)"/>
       <use xlink:href="#DejaVuSans-2e" transform="translate(147.412109 0)"/>
       <use xlink:href="#DejaVuSans-30" transform="translate(179.199219 0)"/>
       <use xlink:href="#DejaVuSans-30" transform="translate(242.822266 0)"/>
      </g>
     </g>
    </g>
    <g id="ytick_2">
     <g id="line2d_7">
      <g>
       <use xlink:href="#m8902b446c5" x="57.6" y="265.21773" style="stroke: #000000; stroke-width: 0.8"/>
      </g>
     </g>
     <g id="text_7">
      <!-- −0.75 -->
      <g transform="translate(19.954687 269.016949) scale(0.1 -0.1)">
       <defs>
        <path id="DejaVuSans-37" d="M 525 4666 
L 3525 4666 
L 3525 4397 
L 1831 0 
L 1172 0 
L 2766 4134 
L 525 4134 
L 525 4666 
z
" transform="scale(0.015625)"/>
       </defs>
       <use xlink:href="#DejaVuSans-2212"/>
       <use xlink:href="#DejaVuSans-30" transform="translate(83.789062 0)"/>
       <use xlink:href="#DejaVuSans-2e" transform="translate(147.412109 0)"/>
       <use xlink:href="#DejaVuSans-37" transform="translate(179.199219 0)"/>
       <use xlink:href="#DejaVuSans-35" transform="translate(242.822266 0)"/>
      </g>
     </g>
    </g>
    <g id="ytick_3">
     <g id="line2d_8">
      <g>
       <use xlink:href="#m8902b446c5" x="57.6" y="234.94746" style="stroke: #000000; stroke-width: 0.8"/>
      </g>
     </g>
     <g id="text_8">
      <!-- −0.50 -->
      <g transform="translate(19.954687 238.746679) scale(0.1 -0.1)">
       <use xlink:href="#DejaVuSans-2212"/>
       <use xlink:href="#DejaVuSans-30" transform="translate(83.789062 0)"/>
       <use xlink:href="#DejaVuSans-2e" transform="translate(147.412109 0)"/>
       <use xlink:href="#DejaVuSans-35" transform="translate(179.199219 0)"/>
       <use xlink:href="#DejaVuSans-30" transform="translate(242.822266 0)"/>
      </g>
     </g>
    </g>
    <g id="ytick_4">
     <g id="line2d_9">
      <g>
       <use xlink:href="#m8902b446c5" x="57.6" y="204.67719" style="stroke: #000000; stroke-width: 0.8"/>
      </g>
     </g>
     <g id="text_9">
      <!-- −0.25 -->
      <g transform="translate(19.954687 208.476409) scale(0.1 -0.1)">
       <defs>
        <path id="DejaVuSans-32" d="M 1228 531 
L 3431 531 
L 3431 0 
L 469 0 
L 469 531 
Q 828 903 1448 1529 
Q 2069 2156 2228 2338 
Q 2531 2678 2651 2914 
Q 2772 3150 2772 3378 
Q 2772 3750 2511 3984 
Q 2250 4219 1831 4219 
Q 1534 4219 1204 4116 
Q 875 4013 500 3803 
L 500 4441 
Q 881 4594 1212 4672 
Q 1544 4750 1819 4750 
Q 2544 4750 2975 4387 
Q 3406 4025 3406 3419 
Q 3406 3131 3298 2873 
Q 3191 2616 2906 2266 
Q 2828 2175 2409 1742 
Q 1991 1309 1228 531 
z
" transform="scale(0.015625)"/>
       </defs>
       <use xlink:href="#DejaVuSans-2212"/>
       <use xlink:href="#DejaVuSans-30" transform="translate(83.789062 0)"/>
       <use xlink:href="#DejaVuSans-2e" transform="translate(147.412109 0)"/>
       <use xlink:href="#DejaVuSans-32" transform="translate(179.199219 0)"/>
       <use xlink:href="#DejaVuSans-35" transform="translate(242.822266 0)"/>
      </g>
     </g>
    </g>
    <g id="ytick_5">
     <g id="line2d_10">
      <g>
       <use xlink:href="#m8902b446c5" x="57.6" y="174.40692" style="stroke: #000000; stroke-width: 0.8"/>
      </g>
     </g>
     <g id="text_10">
      <!-- 0.00 -->
      <g transform="translate(28.334375 178.206139) scale(0.1 -0.1)">
       <use xlink:href="#DejaVuSans-30"/>
       <use xlink:href="#DejaVuSans-2e" transform="translate(63.623047 0)"/>
       <use xlink:href="#DejaVuSans-30" transform="translate(95.410156 0)"/>
       <use xlink:href="#DejaVuSans-30" transform="translate(159.033203 0)"/>
      </g>
     </g>
    </g>
    <g id="ytick_6">
     <g id="line2d_11">
      <g>
       <use xlink:href="#m8902b446c5" x="57.6" y="144.136651" style="stroke: #000000; stroke-width: 0.8"/>
      </g>
     </g>
     <g id="text_11">
      <!-- 0.25 -->
      <g transform="translate(28.334375 147.935869) scale(0.1 -0.1)">
       <use xlink:href="#DejaVuSans-30"/>
       <use xlink:href="#DejaVuSans-2e" transform="translate(63.623047 0)"/>
       <use xlink:href="#DejaVuSans-32" transform="translate(95.410156 0)"/>
       <use xlink:href="#DejaVuSans-35" transform="translate(159.033203 0)"/>
      </g>
     </g>
    </g>
    <g id="ytick_7">
     <g id="line2d_12">
      <g>
       <use xlink:href="#m8902b446c5" x="57.6" y="113.866381" style="stroke: #000000; stroke-width: 0.8"/>
      </g>
     </g>
     <g id="text_12">
      <!-- 0.50 -->
      <g transform="translate(28.334375 117.665599) scale(0.1 -0.1)">
       <use xlink:href="#DejaVuSans-30"/>
       <use xlink:href="#DejaVuSans-2e" transform="translate(63.623047 0)"/>
       <use xlink:href="#DejaVuSans-35" transform="translate(95.410156 0)"/>
       <use xlink:href="#DejaVuSans-30" transform="translate(159.033203 0)"/>
      </g>
     </g>
    </g>
    <g id="ytick_8">
     <g id="line2d_13">
      <g>
       <use xlink:href="#m8902b446c5" x="57.6" y="83.596111" style="stroke: #000000; stroke-width: 0.8"/>
      </g>
     </g>
     <g id="text_13">
      <!-- 0.75 -->
      <g transform="translate(28.334375 87.39533) scale(0.1 -0.1)">
       <use xlink:href="#DejaVuSans-30"/>
       <use xlink:href="#DejaVuSans-2e" transform="translate(63.623047 0)"/>
       <use xlink:href="#DejaVuSans-37" transform="translate(95.410156 0)"/>
       <use xlink:href="#DejaVuSans-35" transform="translate(159.033203 0)"/>
      </g>
     </g>
    </g>
    <g id="ytick_9">
     <g id="line2d_14">
      <g>
       <use xlink:href="#m8902b446c5" x="57.6" y="53.325841" style="stroke: #000000; stroke-width: 0.8"/>
      </g>
     </g>
     <g id="text_14">
      <!-- 1.00 -->
      <g transform="translate(28.334375 57.12506) scale(0.1 -0.1)">
       <use xlink:href="#DejaVuSans-31"/>
       <use xlink:href="#DejaVuSans-2e" transform="translate(63.623047 0)"/>
       <use xlink:href="#DejaVuSans-30" transform="translate(95.410156 0)"/>
       <use xlink:href="#DejaVuSans-30" transform="translate(159.033203 0)"/>
      </g>
     </g>
    </g>
   </g>
   <g id="line2d_15">
    <path d="M 116.774055 53.568 
L 356.99892 53.568 
L 356.99892 53.568 
L 356.99892 294.761516 
L 356.756754 295.488 
L 115.563246 295.488 
L 115.07892 295.003675 
L 115.07892 53.810166 
L 115.805405 53.568 
L 115.805405 53.568 
" clip-path="url(#pfe69f84ed1)" style="fill: none; stroke: #000000; stroke-width: 2; stroke-linecap: square"/>
   </g>
   <g id="line2d_16">
    <path d="M 163.008433 77.788292 
L 163.909713 76.916782 
L 165.043503 76.210065 
L 166.394791 75.658218 
L 167.948553 75.251338 
L 169.689761 74.979503 
L 172.396314 74.807291 
L 175.259412 74.844162 
L 179.110894 75.124074 
L 184.016545 75.724253 
L 191.172932 76.869843 
L 204.839971 79.142049 
L 208.951468 79.576346 
L 211.756124 79.651987 
L 213.889312 79.45313 
L 215.704488 78.994468 
L 217.291384 78.316287 
L 218.673694 77.463556 
L 219.875122 76.481258 
L 221.389937 74.863259 
L 222.997762 72.672201 
L 224.7775 70.180064 
L 225.358045 69.606558 
L 225.958446 69.255185 
L 226.707801 69.208765 
L 227.340973 69.467703 
L 227.926174 69.889342 
L 229.043481 71.070309 
L 229.793078 72.320387 
L 230.756884 74.645428 
L 231.653692 77.559131 
L 232.788732 82.1641 
L 236.897664 100.132555 
L 238.272585 104.630006 
L 239.589653 108.089833 
L 240.736606 110.516461 
L 242.012798 112.672437 
L 243.432862 114.504576 
L 244.466726 115.51983 
L 245.575372 116.351766 
L 246.781216 116.992263 
L 248.116465 117.430569 
L 249.535524 117.65574 
L 251.031506 117.685979 
L 252.597521 117.539499 
L 255.062787 117.028247 
L 257.494007 116.275547 
L 260.93508 114.922314 
L 265.258784 112.931946 
L 279.077194 106.337381 
L 282.652836 104.970114 
L 285.763137 104.029869 
L 288.187791 103.509113 
L 290.544779 103.22853 
L 292.823307 103.220137 
L 295.012586 103.515911 
L 296.973948 104.086949 
L 299.357368 105.05482 
L 301.822441 106.290449 
L 304.989655 108.175542 
L 308.217608 110.395988 
L 311.469181 112.905654 
L 314.707223 115.65844 
L 318.522733 119.217746 
L 322.248622 123.032004 
L 325.864841 127.088132 
L 329.179253 131.176646 
L 332.119522 135.20536 
L 334.231749 138.450435 
L 335.99206 141.536606 
L 337.358584 144.410534 
L 337.979202 146.031828 
L 338.389142 147.613135 
L 338.548212 149.165268 
L 338.477896 150.691971 
L 338.19966 152.196987 
L 337.734986 153.68406 
L 336.781434 155.802024 
L 335.647528 157.748581 
L 333.858471 160.323469 
L 330.850154 164.164232 
L 327.428995 168.586967 
L 325.70907 171.173462 
L 324.605382 173.192386 
L 323.704427 175.37346 
L 323.285798 176.860904 
L 323.035686 178.377505 
L 322.973728 179.925356 
L 323.119569 181.506547 
L 323.442219 182.946811 
L 324.145775 184.841538 
L 325.150662 186.789217 
L 326.42182 188.782512 
L 328.470306 191.498521 
L 331.209098 194.664559 
L 334.941345 198.567416 
L 341.242864 204.744326 
L 347.657401 211.113411 
L 350.800388 214.519724 
L 353.114849 217.331754 
L 354.74882 219.642625 
L 356.010733 221.853717 
L 356.621811 223.267555 
L 357.032299 224.629871 
L 357.228096 225.937786 
L 357.193483 227.203683 
L 356.906832 228.624799 
L 356.404615 230.002942 
L 355.697877 231.340706 
L 354.797687 232.640689 
L 353.715087 233.905485 
L 351.958579 235.583624 
L 349.678232 237.375243 
L 347.092549 239.100696 
L 343.497468 241.178628 
L 339.279365 243.331429 
L 333.580184 245.970142 
L 314.926778 254.383275 
L 310.308118 256.857628 
L 303.280599 260.912952 
L 293.045695 266.813718 
L 287.482301 269.769048 
L 282.801481 272.006274 
L 278.88852 273.644286 
L 275.012309 275.007093 
L 271.951015 275.864031 
L 268.935895 276.484541 
L 265.977014 276.84184 
L 263.084442 276.909124 
L 260.964585 276.753144 
L 258.891937 276.407652 
L 256.820885 275.819459 
L 254.813454 274.930564 
L 252.884063 273.765351 
L 251.022152 272.346966 
L 249.217161 270.698569 
L 246.880796 268.182919 
L 244.55431 265.292628 
L 241.834125 261.522311 
L 237.759996 255.416943 
L 232.412673 247.442691 
L 229.558458 243.546315 
L 227.050665 240.438309 
L 224.401166 237.514495 
L 222.164304 235.344518 
L 219.810638 233.354911 
L 217.328562 231.573447 
L 214.706469 230.027898 
L 212.641032 229.04026 
L 210.485411 228.212662 
L 207.902703 227.484532 
L 205.153784 226.970917 
L 202.206775 226.638823 
L 198.274722 226.454919 
L 194.103028 226.499124 
L 188.835333 226.809848 
L 182.636007 227.434222 
L 174.876536 228.47636 
L 163.836056 230.226153 
L 148.339437 232.689934 
L 141.409253 233.570634 
L 136.406381 234.008082 
L 132.422196 234.163132 
L 129.207905 234.097796 
L 126.309856 233.817719 
L 123.883026 233.332134 
L 122.313914 232.826266 
L 120.944526 232.18814 
L 119.78295 231.411219 
L 118.812099 230.476297 
L 118.002965 229.390197 
L 117.354028 228.166303 
L 116.859072 226.811316 
L 116.511884 225.331937 
L 116.306257 223.734874 
L 116.24964 221.13327 
L 116.465608 218.394475 
L 116.891772 215.659114 
L 117.699642 212.050783 
L 118.779247 208.268771 
L 120.382163 203.556092 
L 122.5371 198.046151 
L 125.16908 192.002266 
L 128.346319 185.284908 
L 132.298951 177.449437 
L 139.57348 163.641218 
L 140.825477 161.438466 
L 142.206398 159.383727 
L 144.215328 156.863332 
L 146.38327 154.562888 
L 148.674608 152.448983 
L 151.658049 150.018023 
L 155.932841 146.892393 
L 163.142727 141.713732 
L 165.602791 139.686745 
L 167.828397 137.539581 
L 169.307801 135.819396 
L 170.596519 133.980971 
L 171.669354 132.002602 
L 172.501098 129.862586 
L 173.000499 127.780819 
L 173.199927 125.639457 
L 173.153752 123.361337 
L 172.890844 120.966305 
L 172.253057 117.625356 
L 171.233981 113.761828 
L 169.808134 109.304619 
L 167.371041 102.546835 
L 164.013364 93.243566 
L 162.711324 88.926121 
L 162.04985 86.004913 
L 161.728824 83.602 
L 161.683544 82.143626 
L 161.829068 80.552192 
L 162.26361 79.038405 
L 163.008433 77.788292 
L 163.008433 77.788292 
" clip-path="url(#pfe69f84ed1)" style="fill: none; stroke-dasharray: 7.4,3.2; stroke-dashoffset: 0; stroke: #000000; stroke-width: 2"/>
   </g>
   <g id="line2d_17">
    <path d="M 163.008433 77.788292 
L 116.774055 53.568 
" clip-path="url(#pfe69f84ed1)" style="fill: none; stroke: #000000; stroke-width: 0.5; stroke-linecap: square"/>
   </g>
   <g id="line2d_18">
    <path d="M 173.800352 74.802722 
L 131.303786 53.568 
" clip-path="url(#pfe69f84ed1)" style="fill: none; stroke: #000000; stroke-width: 0.5; stroke-linecap: square"/>
   </g>
   <g id="line2d_19">
    <path d="M 185.696218 75.971861 
L 145.833516 53.568 
" clip-path="url(#pfe69f84ed1)" style="fill: none; stroke: #000000; stroke-width: 0.5; stroke-linecap: square"/>
   </g>
   <g id="line2d_20">
    <path d="M 197.416343 77.963174 
L 160.363246 53.568 
" clip-path="url(#pfe69f84ed1)" style="fill: none; stroke: #000000; stroke-width: 0.5; stroke-linecap: square"/>
   </g>
   <g id="line2d_21">
    <path d="M 209.697211 79.62073 
L 174.892976 53.568 
" clip-path="url(#pfe69f84ed1)" style="fill: none; stroke: #000000; stroke-width: 0.5; stroke-linecap: square"/>
   </g>
   <g id="line2d_22">
    <path d="M 220.415408 75.95558 
L 189.422702 53.568 
" clip-path="url(#pfe69f84ed1)" style="fill: none; stroke: #000000; stroke-width: 0.5; stroke-linecap: square"/>
   </g>
   <g id="line2d_23">
    <path d="M 227.926174 69.889342 
L 203.952433 53.568 
" clip-path="url(#pfe69f84ed1)" style="fill: none; stroke: #000000; stroke-width: 0.5; stroke-linecap: square"/>
   </g>
   <g id="line2d_24">
    <path d="M 232.447491 80.689957 
L 218.482163 53.568 
" clip-path="url(#pfe69f84ed1)" style="fill: none; stroke: #000000; stroke-width: 0.5; stroke-linecap: square"/>
   </g>
   <g id="line2d_25">
    <path d="M 234.974897 92.254224 
L 233.011892 53.568 
" clip-path="url(#pfe69f84ed1)" style="fill: none; stroke: #000000; stroke-width: 0.5; stroke-linecap: square"/>
   </g>
   <g id="line2d_26">
    <path d="M 238.029564 103.904048 
L 247.541621 53.568 
" clip-path="url(#pfe69f84ed1)" style="fill: none; stroke: #000000; stroke-width: 0.5; stroke-linecap: square"/>
   </g>
   <g id="line2d_27">
    <path d="M 243.432862 114.504576 
L 262.071351 53.568 
" clip-path="url(#pfe69f84ed1)" style="fill: none; stroke: #000000; stroke-width: 0.5; stroke-linecap: square"/>
   </g>
   <g id="line2d_28">
    <path d="M 253.404639 117.405674 
L 276.60108 53.568 
" clip-path="url(#pfe69f84ed1)" style="fill: none; stroke: #000000; stroke-width: 0.5; stroke-linecap: square"/>
   </g>
   <g id="line2d_29">
    <path d="M 264.526279 113.283854 
L 291.13081 53.568 
" clip-path="url(#pfe69f84ed1)" style="fill: none; stroke: #000000; stroke-width: 0.5; stroke-linecap: square"/>
   </g>
   <g id="line2d_30">
    <path d="M 275.464345 107.937713 
L 305.66054 53.568 
" clip-path="url(#pfe69f84ed1)" style="fill: none; stroke: #000000; stroke-width: 0.5; stroke-linecap: square"/>
   </g>
   <g id="line2d_31">
    <path d="M 286.57821 103.831568 
L 320.19027 53.568 
" clip-path="url(#pfe69f84ed1)" style="fill: none; stroke: #000000; stroke-width: 0.5; stroke-linecap: square"/>
   </g>
   <g id="line2d_32">
    <path d="M 297.561109 104.30252 
L 334.72 53.568 
" clip-path="url(#pfe69f84ed1)" style="fill: none; stroke: #000000; stroke-width: 0.5; stroke-linecap: square"/>
   </g>
   <g id="line2d_33">
    <path d="M 306.921515 109.470516 
L 349.24973 53.568 
" clip-path="url(#pfe69f84ed1)" style="fill: none; stroke: #000000; stroke-width: 0.5; stroke-linecap: square"/>
   </g>
   <g id="line2d_34">
    <path d="M 316.628106 117.407616 
L 356.99892 59.379896 
" clip-path="url(#pfe69f84ed1)" style="fill: none; stroke: #000000; stroke-width: 0.5; stroke-linecap: square"/>
   </g>
   <g id="line2d_35">
    <path d="M 325.864841 127.088132 
L 356.99892 73.909626 
" clip-path="url(#pfe69f84ed1)" style="fill: none; stroke: #000000; stroke-width: 0.5; stroke-linecap: square"/>
   </g>
   <g id="line2d_36">
    <path d="M 333.426743 137.168483 
L 356.99892 88.439357 
" clip-path="url(#pfe69f84ed1)" style="fill: none; stroke: #000000; stroke-width: 0.5; stroke-linecap: square"/>
   </g>
   <g id="line2d_37">
    <path d="M 337.979202 146.031828 
L 356.99892 102.969087 
" clip-path="url(#pfe69f84ed1)" style="fill: none; stroke: #000000; stroke-width: 0.5; stroke-linecap: square"/>
   </g>
   <g id="line2d_38">
    <path d="M 336.04854 157.101742 
L 356.99892 117.498813 
" clip-path="url(#pfe69f84ed1)" style="fill: none; stroke: #000000; stroke-width: 0.5; stroke-linecap: square"/>
   </g>
   <g id="line2d_39">
    <path d="M 328.858039 166.678089 
L 356.99892 132.028543 
" clip-path="url(#pfe69f84ed1)" style="fill: none; stroke: #000000; stroke-width: 0.5; stroke-linecap: square"/>
   </g>
   <g id="line2d_40">
    <path d="M 323.285798 176.860904 
L 356.99892 146.558272 
" clip-path="url(#pfe69f84ed1)" style="fill: none; stroke: #000000; stroke-width: 0.5; stroke-linecap: square"/>
   </g>
   <g id="line2d_41">
    <path d="M 325.546529 187.448942 
L 356.99892 161.088002 
" clip-path="url(#pfe69f84ed1)" style="fill: none; stroke: #000000; stroke-width: 0.5; stroke-linecap: square"/>
   </g>
   <g id="line2d_42">
    <path d="M 333.29709 196.887159 
L 356.99892 175.617731 
" clip-path="url(#pfe69f84ed1)" style="fill: none; stroke: #000000; stroke-width: 0.5; stroke-linecap: square"/>
   </g>
   <g id="line2d_43">
    <path d="M 341.806057 205.290714 
L 356.99892 190.14746 
" clip-path="url(#pfe69f84ed1)" style="fill: none; stroke: #000000; stroke-width: 0.5; stroke-linecap: square"/>
   </g>
   <g id="line2d_44">
    <path d="M 350.304768 213.958827 
L 356.99892 204.67719 
" clip-path="url(#pfe69f84ed1)" style="fill: none; stroke: #000000; stroke-width: 0.5; stroke-linecap: square"/>
   </g>
   <g id="line2d_45">
    <path d="M 356.853007 223.955335 
L 356.99892 219.20692 
" clip-path="url(#pfe69f84ed1)" style="fill: none; stroke: #000000; stroke-width: 0.5; stroke-linecap: square"/>
   </g>
   <g id="line2d_46">
    <path d="M 353.715087 233.905485 
L 356.99892 233.736651 
" clip-path="url(#pfe69f84ed1)" style="fill: none; stroke: #000000; stroke-width: 0.5; stroke-linecap: square"/>
   </g>
   <g id="line2d_47">
    <path d="M 344.245112 240.76928 
L 356.99892 248.266381 
" clip-path="url(#pfe69f84ed1)" style="fill: none; stroke: #000000; stroke-width: 0.5; stroke-linecap: square"/>
   </g>
   <g id="line2d_48">
    <path d="M 333.580184 245.970142 
L 356.99892 262.796111 
" clip-path="url(#pfe69f84ed1)" style="fill: none; stroke: #000000; stroke-width: 0.5; stroke-linecap: square"/>
   </g>
   <g id="line2d_49">
    <path d="M 322.573502 250.795042 
L 356.99892 277.325841 
" clip-path="url(#pfe69f84ed1)" style="fill: none; stroke: #000000; stroke-width: 0.5; stroke-linecap: square"/>
   </g>
   <g id="line2d_50">
    <path d="M 312.322071 255.74974 
L 356.99892 291.855571 
" clip-path="url(#pfe69f84ed1)" style="fill: none; stroke: #000000; stroke-width: 0.5; stroke-linecap: square"/>
   </g>
   <g id="line2d_51">
    <path d="M 301.879939 261.735494 
L 346.101619 295.488 
" clip-path="url(#pfe69f84ed1)" style="fill: none; stroke: #000000; stroke-width: 0.5; stroke-linecap: square"/>
   </g>
   <g id="line2d_52">
    <path d="M 291.660577 267.573711 
L 331.571889 295.488 
" clip-path="url(#pfe69f84ed1)" style="fill: none; stroke: #000000; stroke-width: 0.5; stroke-linecap: square"/>
   </g>
   <g id="line2d_53">
    <path d="M 280.450397 273.019172 
L 317.042159 295.488 
" clip-path="url(#pfe69f84ed1)" style="fill: none; stroke: #000000; stroke-width: 0.5; stroke-linecap: square"/>
   </g>
   <g id="line2d_54">
    <path d="M 268.935895 276.484541 
L 302.512429 295.488 
" clip-path="url(#pfe69f84ed1)" style="fill: none; stroke: #000000; stroke-width: 0.5; stroke-linecap: square"/>
   </g>
   <g id="line2d_55">
    <path d="M 258.207744 276.247124 
L 287.982702 295.488 
" clip-path="url(#pfe69f84ed1)" style="fill: none; stroke: #000000; stroke-width: 0.5; stroke-linecap: square"/>
   </g>
   <g id="line2d_56">
    <path d="M 248.626321 270.10199 
L 273.452972 295.488 
" clip-path="url(#pfe69f84ed1)" style="fill: none; stroke: #000000; stroke-width: 0.5; stroke-linecap: square"/>
   </g>
   <g id="line2d_57">
    <path d="M 241.38313 260.866113 
L 258.923242 295.488 
" clip-path="url(#pfe69f84ed1)" style="fill: none; stroke: #000000; stroke-width: 0.5; stroke-linecap: square"/>
   </g>
   <g id="line2d_58">
    <path d="M 234.6885 250.765005 
L 244.393514 295.488 
" clip-path="url(#pfe69f84ed1)" style="fill: none; stroke: #000000; stroke-width: 0.5; stroke-linecap: square"/>
   </g>
   <g id="line2d_59">
    <path d="M 227.562835 241.046911 
L 229.863784 295.488 
" clip-path="url(#pfe69f84ed1)" style="fill: none; stroke: #000000; stroke-width: 0.5; stroke-linecap: square"/>
   </g>
   <g id="line2d_60">
    <path d="M 219.202612 232.888946 
L 215.334054 295.488 
" clip-path="url(#pfe69f84ed1)" style="fill: none; stroke: #000000; stroke-width: 0.5; stroke-linecap: square"/>
   </g>
   <g id="line2d_61">
    <path d="M 209.196665 227.814345 
L 200.804325 295.488 
" clip-path="url(#pfe69f84ed1)" style="fill: none; stroke: #000000; stroke-width: 0.5; stroke-linecap: square"/>
   </g>
   <g id="line2d_62">
    <path d="M 198.274722 226.454919 
L 186.274595 295.488 
" clip-path="url(#pfe69f84ed1)" style="fill: none; stroke: #000000; stroke-width: 0.5; stroke-linecap: square"/>
   </g>
   <g id="line2d_63">
    <path d="M 185.6667 227.100068 
L 171.744865 295.488 
" clip-path="url(#pfe69f84ed1)" style="fill: none; stroke: #000000; stroke-width: 0.5; stroke-linecap: square"/>
   </g>
   <g id="line2d_64">
    <path d="M 174.090814 228.593214 
L 157.215135 295.488 
" clip-path="url(#pfe69f84ed1)" style="fill: none; stroke: #000000; stroke-width: 0.5; stroke-linecap: square"/>
   </g>
   <g id="line2d_65">
    <path d="M 162.265083 230.485654 
L 142.685405 295.488 
" clip-path="url(#pfe69f84ed1)" style="fill: none; stroke: #000000; stroke-width: 0.5; stroke-linecap: square"/>
   </g>
   <g id="line2d_66">
    <path d="M 149.941797 232.456594 
L 128.155675 295.488 
" clip-path="url(#pfe69f84ed1)" style="fill: none; stroke: #000000; stroke-width: 0.5; stroke-linecap: square"/>
   </g>
   <g id="line2d_67">
    <path d="M 138.503561 233.851459 
L 115.07892 294.035024 
" clip-path="url(#pfe69f84ed1)" style="fill: none; stroke: #000000; stroke-width: 0.5; stroke-linecap: square"/>
   </g>
   <g id="line2d_68">
    <path d="M 127.003048 233.909184 
L 115.07892 279.505294 
" clip-path="url(#pfe69f84ed1)" style="fill: none; stroke: #000000; stroke-width: 0.5; stroke-linecap: square"/>
   </g>
   <g id="line2d_69">
    <path d="M 117.658859 228.795055 
L 115.07892 264.975571 
" clip-path="url(#pfe69f84ed1)" style="fill: none; stroke: #000000; stroke-width: 0.5; stroke-linecap: square"/>
   </g>
   <g id="line2d_70">
    <path d="M 116.652875 217.045066 
L 115.07892 250.445841 
" clip-path="url(#pfe69f84ed1)" style="fill: none; stroke: #000000; stroke-width: 0.5; stroke-linecap: square"/>
   </g>
   <g id="line2d_71">
    <path d="M 119.542285 205.932442 
L 115.07892 235.916111 
" clip-path="url(#pfe69f84ed1)" style="fill: none; stroke: #000000; stroke-width: 0.5; stroke-linecap: square"/>
   </g>
   <g id="line2d_72">
    <path d="M 124.153829 194.268184 
L 115.07892 221.386381 
" clip-path="url(#pfe69f84ed1)" style="fill: none; stroke: #000000; stroke-width: 0.5; stroke-linecap: square"/>
   </g>
   <g id="line2d_73">
    <path d="M 129.428038 183.09509 
L 115.07892 206.856651 
" clip-path="url(#pfe69f84ed1)" style="fill: none; stroke: #000000; stroke-width: 0.5; stroke-linecap: square"/>
   </g>
   <g id="line2d_74">
    <path d="M 134.720556 172.819567 
L 115.07892 192.32692 
" clip-path="url(#pfe69f84ed1)" style="fill: none; stroke: #000000; stroke-width: 0.5; stroke-linecap: square"/>
   </g>
   <g id="line2d_75">
    <path d="M 139.973099 162.894428 
L 115.07892 177.797191 
" clip-path="url(#pfe69f84ed1)" style="fill: none; stroke: #000000; stroke-width: 0.5; stroke-linecap: square"/>
   </g>
   <g id="line2d_76">
    <path d="M 147.515739 153.484707 
L 115.07892 163.267461 
" clip-path="url(#pfe69f84ed1)" style="fill: none; stroke: #000000; stroke-width: 0.5; stroke-linecap: square"/>
   </g>
   <g id="line2d_77">
    <path d="M 156.543204 146.463274 
L 115.07892 148.737732 
" clip-path="url(#pfe69f84ed1)" style="fill: none; stroke: #000000; stroke-width: 0.5; stroke-linecap: square"/>
   </g>
   <g id="line2d_78">
    <path d="M 166.183507 139.163232 
L 115.07892 134.208004 
" clip-path="url(#pfe69f84ed1)" style="fill: none; stroke: #000000; stroke-width: 0.5; stroke-linecap: square"/>
   </g>
   <g id="line2d_79">
    <path d="M 172.501098 129.862586 
L 115.07892 119.678273 
" clip-path="url(#pfe69f84ed1)" style="fill: none; stroke: #000000; stroke-width: 0.5; stroke-linecap: square"/>
   </g>
   <g id="line2d_80">
    <path d="M 172.440078 118.474201 
L 115.07892 105.14854 
" clip-path="url(#pfe69f84ed1)" style="fill: none; stroke: #000000; stroke-width: 0.5; stroke-linecap: square"/>
   </g>
   <g id="line2d_81">
    <path d="M 169.019908 107.050673 
L 115.07892 90.618817 
" clip-path="url(#pfe69f84ed1)" style="fill: none; stroke: #000000; stroke-width: 0.5; stroke-linecap: square"/>
   </g>
   <g id="line2d_82">
    <path d="M 164.794755 95.52366 
L 115.07892 76.089087 
" clip-path="url(#pfe69f84ed1)" style="fill: none; stroke: #000000; stroke-width: 0.5; stroke-linecap: square"/>
   </g>
   <g id="line2d_83">
    <path d="M 161.80365 84.375323 
L 115.07892 61.559357 
" clip-path="url(#pfe69f84ed1)" style="fill: none; stroke: #000000; stroke-width: 0.5; stroke-linecap: square"/>
   </g>
   <g id="patch_5">
    <path d="M 57.6 307.584 
L 57.6 41.472 
" style="fill: none; stroke: #000000; stroke-width: 0.8; stroke-linejoin: miter; stroke-linecap: square"/>
   </g>
   <g id="patch_6">
    <path d="M 414.72 307.584 
L 414.72 41.472 
" style="fill: none; stroke: #000000; stroke-width: 0.8; stroke-linejoin: miter; stroke-linecap: square"/>
   </g>
   <g id="patch_7">
    <path d="M 57.6 307.584 
L 414.72 307.584 
" style="fill: none; stroke: #000000; stroke-width: 0.8; stroke-linejoin: miter; stroke-linecap: square"/>
   </g>
   <g id="patch_8">
    <path d="M 57.6 41.472 
L 414.72 41.472 
" style="fill: none; stroke: #000000; stroke-width: 0.8; stroke-linejoin: miter; stroke-linecap: square"/>
   </g>
  </g>
 </g>
 <defs>
  <clipPath id="pfe69f84ed1">
   <rect x="57.6" y="41.472" width="357.12" height="266.112"/>
  </clipPath>
 </defs>
</svg>
