<svg width="414" height="357" viewBox="0 0 414 357" fill="none" xmlns="http://www.w3.org/2000/svg">
<path d="M80.6511 15.2581C83.401 11.8835 88.8439 10.4096 95.9712 10.1706C103.062 9.93288 111.652 10.9206 120.505 12.2954C124.928 12.9823 129.409 13.7646 133.794 14.5365C134.157 14.6004 134.52 14.6642 134.881 14.7279C138.886 15.4334 142.8 16.1229 146.497 16.7133C154.541 17.9977 161.624 18.8256 166.424 18.3089C176.121 17.2652 180.66 10.6425 183.918 5.79918L184.026 5.63856C184.801 4.48504 185.497 3.45098 186.178 2.60703C186.893 1.72039 187.555 1.09356 188.22 0.764739C188.857 0.450096 189.522 0.396006 190.31 0.710774C191.126 1.03671 192.093 1.76628 193.267 3.07324C194.399 4.33303 195.44 6.34581 196.423 8.97589C197.402 11.5962 198.309 14.7842 199.192 18.3583C200.212 22.4867 201.193 27.0949 202.22 31.9132C202.974 35.4563 203.753 39.1131 204.589 42.7762C206.556 51.3941 208.833 60.0063 211.832 67.0627C214.823 74.0992 218.575 79.6964 223.559 82.1424C228.56 84.5967 234.832 83.8066 241.721 81.5005C248.213 79.3269 255.37 75.764 262.705 72.1121C263.168 71.8816 263.632 71.6507 264.096 71.4198C271.935 67.5221 279.951 63.6111 287.636 61.193C295.325 58.7738 302.613 57.8719 309.017 59.9194C321.99 64.0671 337.914 76.4922 351.594 90.7429C365.271 104.992 376.602 120.959 380.453 132.101C382.342 137.564 381.438 142.689 379.055 147.705C376.665 152.738 372.806 157.62 368.83 162.579L368.412 163.1C364.585 167.869 360.698 172.714 358.063 177.768C355.325 183.018 353.911 188.542 355.323 194.5C356.729 200.431 361.266 206.926 367.156 213.613C372.342 219.501 378.629 225.594 384.867 231.638C385.725 232.47 386.583 233.302 387.437 234.131C394.504 240.998 401.299 247.756 406.187 254.076C411.094 260.42 413.979 266.201 413.434 271.132C412.885 276.109 409.98 280.612 405.409 284.803C400.837 288.995 394.641 292.836 387.6 296.492C380.561 300.147 372.706 303.602 364.826 307.03C364.266 307.274 363.706 307.517 363.146 307.761C355.833 310.941 348.548 314.108 341.952 317.392C335.113 320.798 327.611 325.203 319.759 329.812L318.842 330.351C310.65 335.159 302.086 340.16 293.47 344.488C276.209 353.158 258.865 359.056 243.988 355.395C236.604 353.578 230.245 348.393 224.224 341.346C218.839 335.044 213.767 327.307 208.493 319.26C207.87 318.31 207.244 317.355 206.615 316.398C194.734 298.333 181.551 279.386 161.505 272.864C151.477 269.601 137.959 269.468 123.068 270.783C109.033 272.023 93.7141 274.556 78.8531 277.013C77.9346 277.165 77.0178 277.316 76.1031 277.467C60.3772 280.063 45.2968 282.476 32.8873 283.086C26.6835 283.391 21.1693 283.243 16.5891 282.45C12.0035 281.656 8.40329 280.222 5.97673 277.996C1.10736 273.529 -0.235396 265.982 0.854676 256.535C1.94219 247.11 5.43625 235.939 10.0498 224.402C17.5681 205.601 28.0198 185.919 35.7469 171.368C37.5027 168.061 39.1178 165.02 40.5259 162.314C47.9373 148.07 60.06 139.593 71.3594 131.691C71.5389 131.565 71.7182 131.44 71.8972 131.315C83.3008 123.338 93.8483 115.824 97.2524 103.358C98.9624 97.0965 98.0138 89.2966 95.8691 80.9637C93.7927 72.8959 90.5731 64.2518 87.4661 55.9099C87.3595 55.6236 87.253 55.3377 87.1467 55.0521C83.9364 46.4299 80.8971 38.1739 79.3792 31.1876C78.6207 27.6963 78.2484 24.5483 78.416 21.8481C78.5835 19.1495 79.2878 16.9312 80.6511 15.2581Z" fill="#F5F99E" stroke="#BC4D4D"/>
</svg>
