<svg width="660" height="230" viewBox="0 0 660 230" fill="none" xmlns="http://www.w3.org/2000/svg">
<path d="M657.5 2.5H2.5V227.5H657.5V2.5Z" fill="#E1E1F6" stroke="black" stroke-width="5"/>
<path d="M617.5 42.5H42.5V187.5H617.5V42.5Z" fill="#E8C9BF"/>
<path d="M617.5 42.5H42.5V187.5H617.5V42.5Z" stroke="black" stroke-width="5"/>
<path d="M183.445 73.0001V173.8L103.645 85.3001L100.795 81.7001L101.245 86.2001V160H112.495V169H79.1953V160H91.7953V73.0001H79.1953V64.0001H95.9953L171.595 148.9L174.445 152.8L173.995 148V73.0001H162.895V64.0001H196.345V73.0001H183.445ZM240.083 169H206.783V160H218.483V73.0001H206.783V64.0001H240.083V73.0001H227.933V160H240.083V169ZM331.432 163C327.432 165.3 323.132 167.15 318.532 168.55C314.032 169.85 309.232 170.5 304.132 170.5C296.732 170.5 289.782 169.1 283.282 166.3C276.782 163.5 271.132 159.65 266.332 154.75C261.432 149.95 257.582 144.3 254.782 137.8C251.982 131.3 250.582 124.35 250.582 116.95C250.582 109.55 251.982 102.6 254.782 96.1001C257.582 89.5001 261.432 83.7501 266.332 78.8501C271.132 74.0501 276.782 70.2501 283.282 67.4501C289.782 64.5501 296.732 63.1001 304.132 63.1001C309.232 63.1001 314.032 63.7501 318.532 65.0501C323.132 66.3501 327.482 68.2001 331.582 70.6001L326.332 78.2501C323.032 76.3501 319.532 74.8501 315.832 73.7501C312.132 72.6501 308.232 72.1001 304.132 72.1001C298.032 72.1001 292.282 73.3001 286.882 75.7001C281.582 78.0001 276.982 81.2001 273.082 85.3001C268.982 89.4001 265.782 94.2001 263.482 99.7001C261.182 105.1 260.032 110.85 260.032 116.95C260.032 123.05 261.182 128.85 263.482 134.35C265.782 139.75 268.982 144.4 273.082 148.3C276.982 152.4 281.582 155.65 286.882 158.05C292.182 160.35 297.882 161.5 303.982 161.5C307.182 161.5 310.282 161.2 313.282 160.6C316.382 159.9 319.282 158.9 321.982 157.6V133.3H303.532V124.3H331.432V163ZM373.188 169H341.988V160H353.538V121.75H343.188V112.75H361.638L361.788 116.05C361.888 118.15 361.988 120.05 362.088 121.75C362.188 123.35 362.338 125.2 362.538 127.3C364.538 122.5 367.738 118.7 372.138 115.9C376.638 113 381.588 111.55 386.988 111.55C392.788 111.55 397.338 113.1 400.638 116.2C403.938 119.3 405.688 123.35 405.888 128.35V160H415.938V169H384.738V160H396.438V132.1C396.238 129.1 395.138 126.55 393.138 124.45C391.238 122.25 388.288 121.05 384.288 120.85C381.388 120.85 378.638 121.35 376.038 122.35C373.538 123.25 371.338 124.55 369.438 126.25C367.438 127.95 365.838 130 364.638 132.4C363.538 134.7 362.988 137.25 362.988 140.05V160H373.188V169ZM456.21 120.7C452.91 120.7 449.91 121.35 447.21 122.65C444.61 123.85 442.36 125.55 440.46 127.75C438.96 129.65 437.81 131.85 437.01 134.35C436.21 136.85 435.96 139.5 436.26 142.3C441.96 140.1 447.61 137.9 453.21 135.7C458.91 133.5 464.61 131.35 470.31 129.25C468.71 126.65 466.71 124.6 464.31 123.1C461.91 121.5 459.21 120.7 456.21 120.7ZM475.56 162.25C473.06 164.75 470.16 166.7 466.86 168.1C463.66 169.5 460.11 170.2 456.21 170.2C452.11 170.2 448.21 169.45 444.51 167.95C440.91 166.35 437.81 164.25 435.21 161.65C432.51 158.95 430.36 155.85 428.76 152.35C427.26 148.75 426.51 144.9 426.51 140.8C426.51 136.8 427.26 133 428.76 129.4C430.36 125.8 432.51 122.65 435.21 119.95C437.81 117.35 440.91 115.3 444.51 113.8C448.21 112.2 452.11 111.4 456.21 111.4C459.31 111.4 462.26 112 465.06 113.2C467.86 114.4 470.41 116 472.71 118C474.91 120.1 476.81 122.55 478.41 125.35C480.11 128.15 481.41 131.2 482.31 134.5C475.01 137.3 467.76 140.1 460.56 142.9C453.36 145.6 446.11 148.35 438.81 151.15C440.51 154.15 442.86 156.55 445.86 158.35C448.86 160.15 452.31 161.05 456.21 161.05C458.91 161.05 461.41 160.6 463.71 159.7C466.01 158.7 468.01 157.3 469.71 155.5L475.56 162.25ZM527.503 169H506.203V122.05H493.453V112.75H506.203V76.1501H515.653V112.75H531.703V122.05H515.653V160H527.503V169ZM577.482 163.9C576.082 165.7 574.132 167.2 571.632 168.4C569.232 169.6 566.182 170.2 562.482 170.2C559.082 170.2 555.732 169.8 552.432 169C549.232 168.1 546.532 166.55 544.332 164.35V152.2H552.882V158.95C554.382 159.85 555.882 160.4 557.382 160.6C558.982 160.8 560.782 160.9 562.782 160.9C563.882 160.9 564.982 160.75 566.082 160.45C567.182 160.15 568.232 159.65 569.232 158.95C569.932 158.35 570.532 157.6 571.032 156.7C571.532 155.7 571.782 154.5 571.782 153.1C571.782 150.9 571.182 149.25 569.982 148.15C568.882 146.95 567.382 146 565.482 145.3C563.582 144.5 561.482 143.8 559.182 143.2C556.982 142.5 554.882 141.6 552.882 140.5C550.982 139.4 549.382 137.9 548.082 136C546.782 134 546.132 131.3 546.132 127.9C546.132 125 546.682 122.55 547.782 120.55C548.882 118.45 550.282 116.75 551.982 115.45C553.682 114.15 555.582 113.2 557.682 112.6C559.782 111.9 561.732 111.55 563.532 111.55C564.632 111.55 565.832 111.65 567.132 111.85C568.532 112.05 569.982 112.4 571.482 112.9C572.882 113.4 574.232 114 575.532 114.7C576.932 115.4 578.132 116.3 579.132 117.4V129.55H570.582V122.35C569.582 121.85 568.532 121.5 567.432 121.3C566.332 121 565.132 120.85 563.832 120.85C562.732 120.85 561.632 121 560.532 121.3C559.532 121.6 558.632 122 557.832 122.5C557.132 123.2 556.582 124 556.182 124.9C555.782 125.8 555.632 126.85 555.732 128.05C555.832 129.75 556.532 131.1 557.832 132.1C559.232 133.1 560.882 133.95 562.782 134.65C564.682 135.45 566.732 136.3 568.932 137.2C571.132 138 573.132 139 574.932 140.2C576.832 141.5 578.382 143.15 579.582 145.15C580.782 147.15 581.382 149.75 581.382 152.95C581.382 154.45 581.082 156.2 580.482 158.2C579.882 160.2 578.882 162.1 577.482 163.9Z" fill="black"/>
<path d="M42.5 42.5L2.5 2.5" stroke="black" stroke-width="2"/>
<path d="M66.4584 42.5L29.7917 2.5" stroke="black" stroke-width="2"/>
<path d="M90.4166 42.5L57.0833 2.5" stroke="black" stroke-width="2"/>
<path d="M114.375 42.5L84.375 2.5" stroke="black" stroke-width="2"/>
<path d="M138.333 42.5L111.667 2.5" stroke="black" stroke-width="2"/>
<path d="M162.292 42.5L138.958 2.5" stroke="black" stroke-width="2"/>
<path d="M186.25 42.5L166.25 2.5" stroke="black" stroke-width="2"/>
<path d="M210.208 42.5L193.542 2.5" stroke="black" stroke-width="2"/>
<path d="M234.167 42.5L220.833 2.5" stroke="black" stroke-width="2"/>
<path d="M258.125 42.5L248.125 2.5" stroke="black" stroke-width="2"/>
<path d="M282.083 42.5L275.417 2.5" stroke="black" stroke-width="2"/>
<path d="M306.042 42.5L302.708 2.5" stroke="black" stroke-width="2"/>
<path d="M330 42.5V2.5" stroke="black" stroke-width="2"/>
<path d="M353.958 42.5L357.292 2.5" stroke="black" stroke-width="2"/>
<path d="M377.917 42.5L384.583 2.5" stroke="black" stroke-width="2"/>
<path d="M401.875 42.5L411.875 2.5" stroke="black" stroke-width="2"/>
<path d="M425.833 42.5L439.167 2.5" stroke="black" stroke-width="2"/>
<path d="M449.792 42.5L466.458 2.5" stroke="black" stroke-width="2"/>
<path d="M473.75 42.5L493.75 2.5" stroke="black" stroke-width="2"/>
<path d="M497.708 42.5L521.042 2.5" stroke="black" stroke-width="2"/>
<path d="M521.667 42.5L548.333 2.5" stroke="black" stroke-width="2"/>
<path d="M545.625 42.5L575.625 2.5" stroke="black" stroke-width="2"/>
<path d="M569.583 42.5L602.917 2.5" stroke="black" stroke-width="2"/>
<path d="M593.542 42.5L630.208 2.5" stroke="black" stroke-width="2"/>
<path d="M617.5 42.5L657.5 2.5" stroke="black" stroke-width="2"/>
<path d="M42.5 187.5L2.5 227.5" stroke="black" stroke-width="2"/>
<path d="M66.4584 187.5L29.7917 227.5" stroke="black" stroke-width="2"/>
<path d="M90.4166 187.5L57.0833 227.5" stroke="black" stroke-width="2"/>
<path d="M114.375 187.5L84.375 227.5" stroke="black" stroke-width="2"/>
<path d="M138.333 187.5L111.667 227.5" stroke="black" stroke-width="2"/>
<path d="M162.292 187.5L138.958 227.5" stroke="black" stroke-width="2"/>
<path d="M186.25 187.5L166.25 227.5" stroke="black" stroke-width="2"/>
<path d="M210.208 187.5L193.542 227.5" stroke="black" stroke-width="2"/>
<path d="M234.167 187.5L220.833 227.5" stroke="black" stroke-width="2"/>
<path d="M258.125 187.5L248.125 227.5" stroke="black" stroke-width="2"/>
<path d="M282.083 187.5L275.417 227.5" stroke="black" stroke-width="2"/>
<path d="M306.042 187.5L302.708 227.5" stroke="black" stroke-width="2"/>
<path d="M330 187.5V227.5" stroke="black" stroke-width="2"/>
<path d="M353.958 187.5L357.292 227.5" stroke="black" stroke-width="2"/>
<path d="M377.917 187.5L384.583 227.5" stroke="black" stroke-width="2"/>
<path d="M401.875 187.5L411.875 227.5" stroke="black" stroke-width="2"/>
<path d="M425.833 187.5L439.167 227.5" stroke="black" stroke-width="2"/>
<path d="M449.792 187.5L466.458 227.5" stroke="black" stroke-width="2"/>
<path d="M473.75 187.5L493.75 227.5" stroke="black" stroke-width="2"/>
<path d="M497.708 187.5L521.042 227.5" stroke="black" stroke-width="2"/>
<path d="M521.667 187.5L548.333 227.5" stroke="black" stroke-width="2"/>
<path d="M545.625 187.5L575.625 227.5" stroke="black" stroke-width="2"/>
<path d="M569.583 187.5L602.917 227.5" stroke="black" stroke-width="2"/>
<path d="M593.542 187.5L630.208 227.5" stroke="black" stroke-width="2"/>
<path d="M617.5 187.5L657.5 227.5" stroke="black" stroke-width="2"/>
<path d="M42.5 42.5L2.5 2.5" stroke="black" stroke-width="2"/>
<path d="M42.5 58.6111L2.5 27.5" stroke="black" stroke-width="2"/>
<path d="M42.5 74.7222L2.5 52.5" stroke="black" stroke-width="2"/>
<path d="M42.5 90.8333L2.5 77.5" stroke="black" stroke-width="2"/>
<path d="M42.5 106.944L2.5 102.5" stroke="black" stroke-width="2"/>
<path d="M42.5 123.056L2.5 127.5" stroke="black" stroke-width="2"/>
<path d="M42.5 139.167L2.5 152.5" stroke="black" stroke-width="2"/>
<path d="M42.5 155.278L2.5 177.5" stroke="black" stroke-width="2"/>
<path d="M42.5 171.389L2.5 202.5" stroke="black" stroke-width="2"/>
<path d="M42.5 187.5L2.5 227.5" stroke="black" stroke-width="2"/>
<path d="M617.5 42.5L657.5 2.5" stroke="black" stroke-width="2"/>
<path d="M617.5 58.6111L657.5 27.5" stroke="black" stroke-width="2"/>
<path d="M617.5 74.7222L657.5 52.5" stroke="black" stroke-width="2"/>
<path d="M617.5 90.8333L657.5 77.5" stroke="black" stroke-width="2"/>
<path d="M617.5 106.944L657.5 102.5" stroke="black" stroke-width="2"/>
<path d="M617.5 123.056L657.5 127.5" stroke="black" stroke-width="2"/>
<path d="M617.5 139.167L657.5 152.5" stroke="black" stroke-width="2"/>
<path d="M617.5 155.278L657.5 177.5" stroke="black" stroke-width="2"/>
<path d="M617.5 171.389L657.5 202.5" stroke="black" stroke-width="2"/>
<path d="M617.5 187.5L657.5 227.5" stroke="black" stroke-width="2"/>
</svg>
