<svg width="331" height="331" viewBox="0 0 331 331" fill="none" xmlns="http://www.w3.org/2000/svg">
<path d="M4.29129 2H329V328.018L328.673 329H2.65466L2 328.345V2.32733L2.98198 2" fill="#F5F5F5"/>
<path d="M4.29129 2H329V328.018L328.673 329H2.65466L2 328.345V2.32733L2.98198 2" stroke="#F5F5F5" stroke-width="2.66667" stroke-linecap="square"/>
<path d="M6.26018 4H326.56V325.591L326.237 326.56H4.64577L4 325.914V4.32289L4.96865 4" fill="#E1E1F6"/>
<path d="M6.26018 4H326.56V325.591L326.237 326.56H4.64577L4 325.914V4.32289L4.96865 4" stroke="black" stroke-width="2.66667" stroke-linecap="square"/>
<path d="M68.5445 36.4217L6.89868 4.12793" stroke="black" stroke-width="0.666667" stroke-linecap="square"/>
<path d="M82.9338 32.4409L26.2717 4.12793" stroke="black" stroke-width="0.666667" stroke-linecap="square"/>
<path d="M98.795 33.9997L45.6448 4.12793" stroke="black" stroke-width="0.666667" stroke-linecap="square"/>
<path d="M114.422 36.6548L65.0176 4.12793" stroke="black" stroke-width="0.666667" stroke-linecap="square"/>
<path d="M130.796 38.8649L84.3906 4.12793" stroke="black" stroke-width="0.666667" stroke-linecap="square"/>
<path d="M145.087 33.978L103.764 4.12793" stroke="black" stroke-width="0.666667" stroke-linecap="square"/>
<path d="M155.102 25.8897L123.137 4.12793" stroke="black" stroke-width="0.666667" stroke-linecap="square"/>
<path d="M161.13 40.2905L142.51 4.12793" stroke="black" stroke-width="0.666667" stroke-linecap="square"/>
<path d="M164.5 55.7096L161.883 4.12793" stroke="black" stroke-width="0.666667" stroke-linecap="square"/>
<path d="M168.573 71.2427L181.255 4.12793" stroke="black" stroke-width="0.666667" stroke-linecap="square"/>
<path d="M175.777 85.3767L200.628 4.12793" stroke="black" stroke-width="0.666667" stroke-linecap="square"/>
<path d="M189.073 89.2448L220.001 4.12793" stroke="black" stroke-width="0.666667" stroke-linecap="square"/>
<path d="M203.902 83.7491L239.374 4.12793" stroke="black" stroke-width="0.666667" stroke-linecap="square"/>
<path d="M218.486 76.6209L258.747 4.12793" stroke="black" stroke-width="0.666667" stroke-linecap="square"/>
<path d="M233.304 71.146L278.12 4.12793" stroke="black" stroke-width="0.666667" stroke-linecap="square"/>
<path d="M247.948 71.774L297.493 4.12793" stroke="black" stroke-width="0.666667" stroke-linecap="square"/>
<path d="M260.429 78.6646L316.866 4.12793" stroke="black" stroke-width="0.666667" stroke-linecap="square"/>
<path d="M273.371 89.2475L327.199 11.8772" stroke="black" stroke-width="0.666667" stroke-linecap="square"/>
<path d="M285.687 102.155L327.199 31.2502" stroke="black" stroke-width="0.666667" stroke-linecap="square"/>
<path d="M295.769 115.595L327.199 50.623" stroke="black" stroke-width="0.666667" stroke-linecap="square"/>
<path d="M301.839 127.413L327.199 69.9961" stroke="black" stroke-width="0.666667" stroke-linecap="square"/>
<path d="M299.265 142.173L327.198 89.3691" stroke="black" stroke-width="0.666667" stroke-linecap="square"/>
<path d="M289.677 154.942L327.199 108.742" stroke="black" stroke-width="0.666667" stroke-linecap="square"/>
<path d="M282.248 168.518L327.199 128.115" stroke="black" stroke-width="0.666667" stroke-linecap="square"/>
<path d="M285.262 182.636L327.198 147.488" stroke="black" stroke-width="0.666667" stroke-linecap="square"/>
<path d="M295.596 195.22L327.199 166.861" stroke="black" stroke-width="0.666667" stroke-linecap="square"/>
<path d="M306.941 206.425L327.199 186.234" stroke="black" stroke-width="0.666667" stroke-linecap="square"/>
<path d="M318.273 217.982L327.198 205.607" stroke="black" stroke-width="0.666667" stroke-linecap="square"/>
<path d="M327.004 231.311L327.198 224.98" stroke="black" stroke-width="0.666667" stroke-linecap="square"/>
<path d="M322.82 244.578L327.199 244.353" stroke="black" stroke-width="0.666667" stroke-linecap="square"/>
<path d="M310.194 253.73L327.199 263.726" stroke="black" stroke-width="0.666667" stroke-linecap="square"/>
<path d="M295.974 260.664L327.199 283.099" stroke="black" stroke-width="0.666667" stroke-linecap="square"/>
<path d="M281.298 267.097L327.199 302.472" stroke="black" stroke-width="0.666667" stroke-linecap="square"/>
<path d="M267.629 273.704L327.199 321.845" stroke="black" stroke-width="0.666667" stroke-linecap="square"/>
<path d="M253.707 281.685L312.669 326.688" stroke="black" stroke-width="0.666667" stroke-linecap="square"/>
<path d="M240.081 289.469L293.296 326.688" stroke="black" stroke-width="0.666667" stroke-linecap="square"/>
<path d="M225.134 296.729L273.923 326.688" stroke="black" stroke-width="0.666667" stroke-linecap="square"/>
<path d="M209.781 301.35L254.55 326.688" stroke="black" stroke-width="0.666667" stroke-linecap="square"/>
<path d="M195.477 301.033L235.177 326.688" stroke="black" stroke-width="0.666667" stroke-linecap="square"/>
<path d="M182.702 292.84L215.804 326.688" stroke="black" stroke-width="0.666667" stroke-linecap="square"/>
<path d="M173.044 280.525L196.431 326.688" stroke="black" stroke-width="0.666667" stroke-linecap="square"/>
<path d="M164.118 267.057L177.058 326.688" stroke="black" stroke-width="0.666667" stroke-linecap="square"/>
<path d="M154.617 254.1L157.685 326.688" stroke="black" stroke-width="0.666667" stroke-linecap="square"/>
<path d="M143.47 243.223L138.312 326.688" stroke="black" stroke-width="0.666667" stroke-linecap="square"/>
<path d="M130.129 236.457L118.939 326.688" stroke="black" stroke-width="0.666667" stroke-linecap="square"/>
<path d="M115.566 234.644L99.5662 326.688" stroke="black" stroke-width="0.666667" stroke-linecap="square"/>
<path d="M98.7556 235.504L80.1931 326.688" stroke="black" stroke-width="0.666667" stroke-linecap="square"/>
<path d="M83.3212 237.495L60.8203 326.688" stroke="black" stroke-width="0.666667" stroke-linecap="square"/>
<path d="M67.5535 240.018L41.4473 326.688" stroke="black" stroke-width="0.666667" stroke-linecap="square"/>
<path d="M51.1224 242.646L22.0742 326.688" stroke="black" stroke-width="0.666667" stroke-linecap="square"/>
<path d="M35.8715 244.506L4.63867 324.751" stroke="black" stroke-width="0.666667" stroke-linecap="square"/>
<path d="M20.5375 244.583L4.63867 305.378" stroke="black" stroke-width="0.666667" stroke-linecap="square"/>
<path d="M8.07859 237.764L4.63867 286.005" stroke="black" stroke-width="0.666667" stroke-linecap="square"/>
<path d="M6.73728 222.097L4.63867 266.632" stroke="black" stroke-width="0.666667" stroke-linecap="square"/>
<path d="M10.5898 207.281L4.63867 247.259" stroke="black" stroke-width="0.666667" stroke-linecap="square"/>
<path d="M16.7386 191.728L4.63867 227.886" stroke="black" stroke-width="0.666667" stroke-linecap="square"/>
<path d="M23.7708 176.831L4.63867 208.513" stroke="black" stroke-width="0.666667" stroke-linecap="square"/>
<path d="M30.8275 163.13L4.63867 189.14" stroke="black" stroke-width="0.666667" stroke-linecap="square"/>
<path d="M37.8309 149.896L4.63867 169.767" stroke="black" stroke-width="0.666667" stroke-linecap="square"/>
<path d="M47.8878 137.35L4.63867 150.394" stroke="black" stroke-width="0.666667" stroke-linecap="square"/>
<path d="M59.9244 127.988L4.63867 131.021" stroke="black" stroke-width="0.666667" stroke-linecap="square"/>
<path d="M72.7781 118.255L4.63867 111.648" stroke="black" stroke-width="0.666667" stroke-linecap="square"/>
<path d="M81.2016 105.854L4.63867 92.2751" stroke="black" stroke-width="0.666667" stroke-linecap="square"/>
<path d="M81.1202 90.6696L4.63867 72.9021" stroke="black" stroke-width="0.666667" stroke-linecap="square"/>
<path d="M76.56 75.4382L4.63867 53.5291" stroke="black" stroke-width="0.666667" stroke-linecap="square"/>
<path d="M70.9265 60.0688L4.63867 34.156" stroke="black" stroke-width="0.666667" stroke-linecap="square"/>
<path d="M66.9383 45.2045L4.63867 14.7832" stroke="black" stroke-width="0.666667" stroke-linecap="square"/>
<path fill-rule="evenodd" clip-rule="evenodd" d="M133.998 38.8204C119.347 40.3985 76.2277 25.5481 67.2333 36.5938C58.2391 47.6395 85.2243 86.0666 80.0319 105.095C74.8394 124.123 47.855 128.113 36.0784 150.762C24.3017 173.41 -6.29908 226.598 9.37205 240.986C25.0432 255.373 99.3195 227.062 130.105 237.087C160.891 247.111 170.719 295.377 194.086 301.131C217.454 306.886 248.333 282.568 270.31 271.615C292.287 260.663 324.185 251.382 325.947 235.417C327.709 219.452 285.146 193.832 280.881 175.825C276.616 157.817 306.383 144.822 300.355 127.372C294.328 109.921 265.026 77.62 244.718 71.1226C224.411 64.6251 193.44 95.7198 178.51 88.3869C163.581 81.054 162.559 35.3863 155.14 27.1252C147.722 18.8641 148.649 37.2423 133.998 38.8204Z" fill="#E8C9BF" stroke="black" stroke-width="2.67" stroke-dasharray="6 4"/>
</svg>
