<svg width="427" height="151" viewBox="0 0 427 151" fill="none" xmlns="http://www.w3.org/2000/svg">
<path d="M1.31 10.07C1.15667 10.07 1.03667 10.0267 0.95 9.94C0.863333 9.85333 0.82 9.73 0.82 9.57V3.4C0.82 3.23333 0.86 3.10667 0.94 3.02C1.02667 2.92667 1.14 2.88 1.28 2.88C1.4 2.88 1.49 2.90333 1.55 2.95C1.61667 2.99 1.69333 3.06667 1.78 3.18L5.9 8.61H5.65V3.37C5.65 3.21667 5.69 3.09667 5.77 3.01C5.85667 2.92333 5.97667 2.88 6.13 2.88C6.29 2.88 6.41 2.92333 6.49 3.01C6.57 3.09667 6.61 3.21667 6.61 3.37V9.58C6.61 9.73333 6.57 9.85333 6.49 9.94C6.41667 10.0267 6.31667 10.07 6.19 10.07C6.07 10.07 5.97 10.0467 5.89 10C5.81667 9.95333 5.73667 9.87333 5.65 9.76L1.55 4.34H1.78V9.57C1.78 9.73 1.74 9.85333 1.66 9.94C1.58 10.0267 1.46333 10.07 1.31 10.07ZM10.2616 10.09C9.76831 10.09 9.34164 9.98667 8.98164 9.78C8.62831 9.57333 8.35164 9.28 8.15164 8.9C7.95164 8.52 7.85164 8.07333 7.85164 7.56C7.85164 7.16667 7.90831 6.81667 8.02164 6.51C8.13497 6.20333 8.29497 5.94 8.50164 5.72C8.71497 5.49333 8.96831 5.32333 9.26164 5.21C9.56164 5.09 9.89497 5.03 10.2616 5.03C10.7483 5.03 11.1683 5.13333 11.5216 5.34C11.8816 5.54667 12.1616 5.84 12.3616 6.22C12.5616 6.59333 12.6616 7.04 12.6616 7.56C12.6616 7.94667 12.605 8.29667 12.4916 8.61C12.3783 8.92333 12.215 9.19 12.0016 9.41C11.795 9.63 11.5416 9.8 11.2416 9.92C10.9483 10.0333 10.6216 10.09 10.2616 10.09ZM10.2616 9.31C10.535 9.31 10.775 9.24333 10.9816 9.11C11.1883 8.97667 11.3483 8.78 11.4616 8.52C11.5816 8.26 11.6416 7.94 11.6416 7.56C11.6416 6.98667 11.515 6.55333 11.2616 6.26C11.0083 5.96667 10.675 5.82 10.2616 5.82C9.98164 5.82 9.73831 5.88667 9.53164 6.02C9.32497 6.14667 9.16164 6.34 9.04164 6.6C8.92831 6.86 8.87164 7.18 8.87164 7.56C8.87164 8.12667 8.99831 8.56 9.25164 8.86C9.50497 9.16 9.84164 9.31 10.2616 9.31ZM15.8271 10.09C15.4271 10.09 15.0904 10.02 14.8171 9.88C14.5438 9.74 14.3404 9.53333 14.2071 9.26C14.0738 8.98667 14.0071 8.65333 14.0071 8.26V5.9H13.4071C13.2738 5.9 13.1704 5.86667 13.0971 5.8C13.0238 5.72667 12.9871 5.63 12.9871 5.51C12.9871 5.38333 13.0238 5.28667 13.0971 5.22C13.1704 5.15333 13.2738 5.12 13.4071 5.12H14.0071V4.09C14.0071 3.92333 14.0504 3.79667 14.1371 3.71C14.2304 3.62333 14.3571 3.58 14.5171 3.58C14.6771 3.58 14.8004 3.62333 14.8871 3.71C14.9738 3.79667 15.0171 3.92333 15.0171 4.09V5.12H16.1871C16.3204 5.12 16.4238 5.15333 16.4971 5.22C16.5704 5.28667 16.6071 5.38333 16.6071 5.51C16.6071 5.63 16.5704 5.72667 16.4971 5.8C16.4238 5.86667 16.3204 5.9 16.1871 5.9H15.0171V8.18C15.0171 8.53333 15.0904 8.8 15.2371 8.98C15.3904 9.16 15.6371 9.25 15.9771 9.25C16.0971 9.25 16.2004 9.24 16.2871 9.22C16.3804 9.19333 16.4571 9.17667 16.5171 9.17C16.5904 9.17 16.6504 9.19667 16.6971 9.25C16.7438 9.29667 16.7671 9.39 16.7671 9.53C16.7671 9.63 16.7471 9.72333 16.7071 9.81C16.6738 9.89667 16.6104 9.95333 16.5171 9.98C16.4371 10.0067 16.3271 10.03 16.1871 10.05C16.0538 10.0767 15.9338 10.09 15.8271 10.09ZM22.4962 10.09C22.1895 10.09 21.8895 10.0667 21.5962 10.02C21.3028 9.97333 21.0262 9.90333 20.7662 9.81C20.5062 9.71 20.2728 9.59 20.0662 9.45C19.9662 9.37667 19.8962 9.29333 19.8562 9.2C19.8228 9.10667 19.8128 9.01667 19.8262 8.93C19.8462 8.83667 19.8862 8.75667 19.9462 8.69C20.0062 8.62333 20.0795 8.58333 20.1662 8.57C20.2528 8.55 20.3495 8.57667 20.4562 8.65C20.7562 8.84333 21.0728 8.98667 21.4062 9.08C21.7395 9.16667 22.1028 9.21 22.4962 9.21C23.0628 9.21 23.4795 9.11 23.7462 8.91C24.0195 8.70333 24.1562 8.43667 24.1562 8.11C24.1562 7.84333 24.0595 7.63333 23.8662 7.48C23.6728 7.32 23.3495 7.19333 22.8962 7.1L21.8262 6.88C21.1928 6.74667 20.7195 6.52667 20.4062 6.22C20.0995 5.91333 19.9462 5.5 19.9462 4.98C19.9462 4.66667 20.0095 4.38 20.1362 4.12C20.2695 3.86 20.4528 3.63667 20.6862 3.45C20.9195 3.25667 21.1995 3.11 21.5262 3.01C21.8528 2.91 22.2095 2.86 22.5962 2.86C23.0095 2.86 23.3962 2.91333 23.7562 3.02C24.1228 3.12667 24.4495 3.29 24.7362 3.51C24.8228 3.57 24.8795 3.64667 24.9062 3.74C24.9395 3.82667 24.9462 3.91333 24.9262 4C24.9128 4.08667 24.8762 4.16 24.8162 4.22C24.7562 4.28 24.6795 4.31667 24.5862 4.33C24.4928 4.33667 24.3895 4.30333 24.2762 4.23C24.0162 4.05667 23.7495 3.93333 23.4762 3.86C23.2095 3.78 22.9128 3.74 22.5862 3.74C22.2595 3.74 21.9728 3.79 21.7262 3.89C21.4862 3.99 21.2995 4.13 21.1662 4.31C21.0395 4.49 20.9762 4.70333 20.9762 4.95C20.9762 5.23 21.0662 5.45333 21.2462 5.62C21.4262 5.78667 21.7262 5.91333 22.1462 6L23.2062 6.22C23.8728 6.36 24.3695 6.57667 24.6962 6.87C25.0228 7.16333 25.1862 7.55333 25.1862 8.04C25.1862 8.35333 25.1228 8.63667 24.9962 8.89C24.8695 9.13667 24.6895 9.35 24.4562 9.53C24.2228 9.71 23.9395 9.85 23.6062 9.95C23.2795 10.0433 22.9095 10.09 22.4962 10.09ZM26.7569 10.06C26.5969 10.06 26.4735 10.0133 26.3869 9.92C26.3002 9.82 26.2569 9.68333 26.2569 9.51V5.61C26.2569 5.43667 26.3002 5.30333 26.3869 5.21C26.4735 5.11667 26.5969 5.07 26.7569 5.07C26.9169 5.07 27.0402 5.11667 27.1269 5.21C27.2202 5.30333 27.2669 5.43667 27.2669 5.61V9.51C27.2669 9.68333 27.2235 9.82 27.1369 9.92C27.0502 10.0133 26.9235 10.06 26.7569 10.06ZM26.7569 4.03C26.5569 4.03 26.4002 3.98 26.2869 3.88C26.1802 3.78 26.1269 3.64 26.1269 3.46C26.1269 3.27333 26.1802 3.13333 26.2869 3.04C26.4002 2.94 26.5569 2.89 26.7569 2.89C26.9569 2.89 27.1102 2.94 27.2169 3.04C27.3302 3.13333 27.3869 3.27333 27.3869 3.46C27.3869 3.64 27.3302 3.78 27.2169 3.88C27.1102 3.98 26.9569 4.03 26.7569 4.03ZM29.2085 10.07C29.0485 10.07 28.9252 10.0267 28.8385 9.94C28.7518 9.84667 28.7085 9.72 28.7085 9.56V5.56C28.7085 5.39333 28.7518 5.26667 28.8385 5.18C28.9252 5.09333 29.0452 5.05 29.1985 5.05C29.3585 5.05 29.4785 5.09333 29.5585 5.18C29.6452 5.26667 29.6885 5.39333 29.6885 5.56V6.38L29.5785 6.16C29.7118 5.80667 29.9185 5.53 30.1985 5.33C30.4785 5.13 30.8152 5.03 31.2085 5.03C31.6152 5.03 31.9452 5.12667 32.1985 5.32C32.4518 5.51333 32.6252 5.81 32.7185 6.21H32.5785C32.7052 5.84333 32.9218 5.55667 33.2285 5.35C33.5352 5.13667 33.8918 5.03 34.2985 5.03C34.6718 5.03 34.9785 5.10333 35.2185 5.25C35.4585 5.39 35.6385 5.60667 35.7585 5.9C35.8785 6.18667 35.9385 6.55 35.9385 6.99V9.56C35.9385 9.72 35.8918 9.84667 35.7985 9.94C35.7118 10.0267 35.5885 10.07 35.4285 10.07C35.2685 10.07 35.1452 10.0267 35.0585 9.94C34.9718 9.84667 34.9285 9.72 34.9285 9.56V7.04C34.9285 6.62667 34.8552 6.32333 34.7085 6.13C34.5685 5.93667 34.3352 5.84 34.0085 5.84C33.6418 5.84 33.3518 5.96667 33.1385 6.22C32.9252 6.47333 32.8185 6.82333 32.8185 7.27V9.56C32.8185 9.72 32.7752 9.84667 32.6885 9.94C32.6018 10.0267 32.4785 10.07 32.3185 10.07C32.1585 10.07 32.0318 10.0267 31.9385 9.94C31.8518 9.84667 31.8085 9.72 31.8085 9.56V7.04C31.8085 6.62667 31.7385 6.32333 31.5985 6.13C31.4585 5.93667 31.2252 5.84 30.8985 5.84C30.5318 5.84 30.2418 5.96667 30.0285 6.22C29.8218 6.47333 29.7185 6.82333 29.7185 7.27V9.56C29.7185 9.9 29.5485 10.07 29.2085 10.07ZM37.8506 11.87C37.6906 11.87 37.5673 11.8267 37.4806 11.74C37.394 11.6533 37.3506 11.5267 37.3506 11.36V5.56C37.3506 5.39333 37.394 5.26667 37.4806 5.18C37.5673 5.09333 37.6873 5.05 37.8406 5.05C38.0006 5.05 38.124 5.09333 38.2106 5.18C38.2973 5.26667 38.3406 5.39333 38.3406 5.56V6.43L38.2306 6.22C38.3373 5.86 38.5473 5.57333 38.8606 5.36C39.174 5.14 39.544 5.03 39.9706 5.03C40.404 5.03 40.7806 5.13333 41.1006 5.34C41.4273 5.54667 41.6773 5.83667 41.8506 6.21C42.0306 6.58333 42.1206 7.03333 42.1206 7.56C42.1206 8.07333 42.0306 8.52333 41.8506 8.91C41.6773 9.29 41.4306 9.58333 41.1106 9.79C40.7906 9.99 40.4106 10.09 39.9706 10.09C39.5506 10.09 39.184 9.98333 38.8706 9.77C38.5573 9.55667 38.3473 9.27333 38.2406 8.92H38.3606V11.36C38.3606 11.5267 38.314 11.6533 38.2206 11.74C38.134 11.8267 38.0106 11.87 37.8506 11.87ZM39.7206 9.31C40.0006 9.31 40.244 9.24333 40.4506 9.11C40.6573 8.97667 40.8173 8.78 40.9306 8.52C41.044 8.26 41.1006 7.94 41.1006 7.56C41.1006 6.98667 40.974 6.55333 40.7206 6.26C40.474 5.96667 40.1406 5.82 39.7206 5.82C39.4473 5.82 39.204 5.88667 38.9906 6.02C38.784 6.14667 38.624 6.34 38.5106 6.6C38.3973 6.86 38.3406 7.18 38.3406 7.56C38.3406 8.12667 38.4673 8.56 38.7206 8.86C38.974 9.16 39.3073 9.31 39.7206 9.31ZM44.8288 10.09C44.3088 10.09 43.9155 9.94 43.6488 9.64C43.3888 9.33333 43.2588 8.89333 43.2588 8.32V3.39C43.2588 3.22333 43.3022 3.09667 43.3888 3.01C43.4755 2.92333 43.5988 2.88 43.7588 2.88C43.9188 2.88 44.0422 2.92333 44.1288 3.01C44.2222 3.09667 44.2688 3.22333 44.2688 3.39V8.26C44.2688 8.59333 44.3355 8.84333 44.4688 9.01C44.6088 9.17 44.8088 9.25 45.0688 9.25C45.1288 9.25 45.1822 9.25 45.2288 9.25C45.2755 9.24333 45.3222 9.23667 45.3688 9.23C45.4488 9.22333 45.5055 9.24667 45.5388 9.3C45.5722 9.34667 45.5888 9.44667 45.5888 9.6C45.5888 9.74 45.5588 9.85 45.4988 9.93C45.4388 10.0033 45.3422 10.05 45.2088 10.07C45.1488 10.0767 45.0855 10.08 45.0188 10.08C44.9522 10.0867 44.8888 10.09 44.8288 10.09ZM48.5566 10.09C48.0233 10.09 47.5633 9.99 47.1766 9.79C46.7966 9.58333 46.5 9.29333 46.2866 8.92C46.08 8.54 45.9766 8.09 45.9766 7.57C45.9766 7.06333 46.08 6.62 46.2866 6.24C46.4933 5.86 46.7766 5.56333 47.1366 5.35C47.4966 5.13667 47.9066 5.03 48.3666 5.03C48.7066 5.03 49.01 5.08667 49.2766 5.2C49.5433 5.30667 49.77 5.46667 49.9566 5.68C50.15 5.88667 50.2933 6.14 50.3866 6.44C50.4866 6.74 50.5366 7.07667 50.5366 7.45C50.5366 7.56333 50.5033 7.65 50.4366 7.71C50.37 7.76333 50.27 7.79 50.1366 7.79H46.7766V7.17H49.8566L49.6866 7.31C49.6866 6.97667 49.6366 6.69333 49.5366 6.46C49.4433 6.22667 49.3 6.05 49.1066 5.93C48.92 5.80333 48.6866 5.74 48.4066 5.74C48.0933 5.74 47.8266 5.81333 47.6066 5.96C47.3933 6.10667 47.23 6.31 47.1166 6.57C47.0033 6.83 46.9466 7.13333 46.9466 7.48V7.54C46.9466 8.12667 47.0833 8.57 47.3566 8.87C47.6366 9.16333 48.04 9.31 48.5666 9.31C48.7666 9.31 48.9766 9.28333 49.1966 9.23C49.4233 9.17667 49.6366 9.08667 49.8366 8.96C49.95 8.89333 50.05 8.86333 50.1366 8.87C50.23 8.87667 50.3033 8.90667 50.3566 8.96C50.4166 9.01333 50.4533 9.08 50.4666 9.16C50.48 9.24 50.4666 9.32333 50.4266 9.41C50.3866 9.49 50.3166 9.56333 50.2166 9.63C49.99 9.78333 49.7266 9.9 49.4266 9.98C49.1266 10.0533 48.8366 10.09 48.5566 10.09ZM52.2377 11.01C52.1644 11.1033 52.0844 11.1567 51.9977 11.17C51.9177 11.1833 51.8477 11.1667 51.7877 11.12C51.7277 11.0733 51.6944 11.0067 51.6877 10.92C51.6811 10.84 51.7177 10.75 51.7977 10.65C51.9177 10.5033 51.9977 10.35 52.0377 10.19C52.0844 10.0367 52.1077 9.9 52.1077 9.78L52.1477 10.04C51.9477 10.04 51.7844 9.98333 51.6577 9.87C51.5377 9.75 51.4777 9.59333 51.4777 9.4C51.4777 9.21333 51.5344 9.06333 51.6477 8.95C51.7611 8.83 51.9144 8.77 52.1077 8.77C52.3077 8.77 52.4644 8.84 52.5777 8.98C52.6977 9.11333 52.7577 9.30667 52.7577 9.56C52.7577 9.70667 52.7411 9.86 52.7077 10.02C52.6811 10.18 52.6311 10.3433 52.5577 10.51C52.4844 10.6767 52.3777 10.8433 52.2377 11.01ZM57.2475 10.07C57.0942 10.07 56.9742 10.0267 56.8875 9.94C56.8008 9.85333 56.7575 9.73 56.7575 9.57V3.4C56.7575 3.23333 56.7975 3.10667 56.8775 3.02C56.9642 2.92667 57.0775 2.88 57.2175 2.88C57.3375 2.88 57.4275 2.90333 57.4875 2.95C57.5542 2.99 57.6308 3.06667 57.7175 3.18L61.8375 8.61H61.5875V3.37C61.5875 3.21667 61.6275 3.09667 61.7075 3.01C61.7942 2.92333 61.9142 2.88 62.0675 2.88C62.2275 2.88 62.3475 2.92333 62.4275 3.01C62.5075 3.09667 62.5475 3.21667 62.5475 3.37V9.58C62.5475 9.73333 62.5075 9.85333 62.4275 9.94C62.3542 10.0267 62.2542 10.07 62.1275 10.07C62.0075 10.07 61.9075 10.0467 61.8275 10C61.7542 9.95333 61.6742 9.87333 61.5875 9.76L57.4875 4.34H57.7175V9.57C57.7175 9.73 57.6775 9.85333 57.5975 9.94C57.5175 10.0267 57.4008 10.07 57.2475 10.07ZM66.1991 10.09C65.7058 10.09 65.2791 9.98667 64.9191 9.78C64.5658 9.57333 64.2891 9.28 64.0891 8.9C63.8891 8.52 63.7891 8.07333 63.7891 7.56C63.7891 7.16667 63.8458 6.81667 63.9591 6.51C64.0725 6.20333 64.2325 5.94 64.4391 5.72C64.6525 5.49333 64.9058 5.32333 65.1991 5.21C65.4991 5.09 65.8325 5.03 66.1991 5.03C66.6858 5.03 67.1058 5.13333 67.4591 5.34C67.8191 5.54667 68.0991 5.84 68.2991 6.22C68.4991 6.59333 68.5991 7.04 68.5991 7.56C68.5991 7.94667 68.5425 8.29667 68.4291 8.61C68.3158 8.92333 68.1525 9.19 67.9391 9.41C67.7325 9.63 67.4791 9.8 67.1791 9.92C66.8858 10.0333 66.5591 10.09 66.1991 10.09ZM66.1991 9.31C66.4725 9.31 66.7125 9.24333 66.9191 9.11C67.1258 8.97667 67.2858 8.78 67.3991 8.52C67.5191 8.26 67.5791 7.94 67.5791 7.56C67.5791 6.98667 67.4525 6.55333 67.1991 6.26C66.9458 5.96667 66.6125 5.82 66.1991 5.82C65.9191 5.82 65.6758 5.88667 65.4691 6.02C65.2625 6.14667 65.0991 6.34 64.9791 6.6C64.8658 6.86 64.8091 7.18 64.8091 7.56C64.8091 8.12667 64.9358 8.56 65.1891 8.86C65.4425 9.16 65.7791 9.31 66.1991 9.31ZM71.7646 10.09C71.3646 10.09 71.0279 10.02 70.7546 9.88C70.4813 9.74 70.2779 9.53333 70.1446 9.26C70.0113 8.98667 69.9446 8.65333 69.9446 8.26V5.9H69.3446C69.2113 5.9 69.1079 5.86667 69.0346 5.8C68.9613 5.72667 68.9246 5.63 68.9246 5.51C68.9246 5.38333 68.9613 5.28667 69.0346 5.22C69.1079 5.15333 69.2113 5.12 69.3446 5.12H69.9446V4.09C69.9446 3.92333 69.9879 3.79667 70.0746 3.71C70.1679 3.62333 70.2946 3.58 70.4546 3.58C70.6146 3.58 70.7379 3.62333 70.8246 3.71C70.9113 3.79667 70.9546 3.92333 70.9546 4.09V5.12H72.1246C72.2579 5.12 72.3613 5.15333 72.4346 5.22C72.5079 5.28667 72.5446 5.38333 72.5446 5.51C72.5446 5.63 72.5079 5.72667 72.4346 5.8C72.3613 5.86667 72.2579 5.9 72.1246 5.9H70.9546V8.18C70.9546 8.53333 71.0279 8.8 71.1746 8.98C71.3279 9.16 71.5746 9.25 71.9146 9.25C72.0346 9.25 72.1379 9.24 72.2246 9.22C72.3179 9.19333 72.3946 9.17667 72.4546 9.17C72.5279 9.17 72.5879 9.19667 72.6346 9.25C72.6813 9.29667 72.7046 9.39 72.7046 9.53C72.7046 9.63 72.6846 9.72333 72.6446 9.81C72.6113 9.89667 72.5479 9.95333 72.4546 9.98C72.3746 10.0067 72.2646 10.03 72.1246 10.05C71.9913 10.0767 71.8713 10.09 71.7646 10.09ZM79.2437 10.09C78.5303 10.09 77.9203 9.94333 77.4137 9.65C76.907 9.35667 76.517 8.94 76.2437 8.4C75.977 7.85333 75.8437 7.21 75.8437 6.47C75.8437 5.91667 75.9203 5.42 76.0737 4.98C76.227 4.53333 76.447 4.15333 76.7337 3.84C77.027 3.52 77.3837 3.27667 77.8037 3.11C78.2303 2.94333 78.7103 2.86 79.2437 2.86C79.637 2.86 80.0137 2.91333 80.3737 3.02C80.7403 3.12667 81.057 3.28 81.3237 3.48C81.437 3.55333 81.5103 3.64333 81.5437 3.75C81.5837 3.85 81.5903 3.94667 81.5637 4.04C81.5437 4.13333 81.5003 4.21333 81.4337 4.28C81.367 4.34 81.2803 4.37333 81.1737 4.38C81.0737 4.38667 80.9637 4.35 80.8437 4.27C80.6237 4.10333 80.3803 3.98 80.1137 3.9C79.847 3.82 79.567 3.78 79.2737 3.78C78.767 3.78 78.3403 3.88667 77.9937 4.1C77.647 4.30667 77.3837 4.61 77.2037 5.01C77.0237 5.41 76.9337 5.89667 76.9337 6.47C76.9337 7.04333 77.0237 7.53333 77.2037 7.94C77.3837 8.34 77.647 8.64667 77.9937 8.86C78.3403 9.06667 78.767 9.17 79.2737 9.17C79.567 9.17 79.847 9.13 80.1137 9.05C80.387 8.96333 80.6437 8.83667 80.8837 8.67C81.0037 8.59667 81.1103 8.56333 81.2037 8.57C81.3037 8.57667 81.387 8.61 81.4537 8.67C81.5203 8.73 81.5637 8.80667 81.5837 8.9C81.6103 8.98667 81.607 9.08 81.5737 9.18C81.547 9.27333 81.4837 9.35333 81.3837 9.42C81.1103 9.64 80.787 9.80667 80.4137 9.92C80.0403 10.0333 79.6503 10.09 79.2437 10.09ZM84.3015 10.09C83.7815 10.09 83.3882 9.94 83.1215 9.64C82.8615 9.33333 82.7315 8.89333 82.7315 8.32V3.39C82.7315 3.22333 82.7748 3.09667 82.8615 3.01C82.9482 2.92333 83.0715 2.88 83.2315 2.88C83.3915 2.88 83.5148 2.92333 83.6015 3.01C83.6948 3.09667 83.7415 3.22333 83.7415 3.39V8.26C83.7415 8.59333 83.8082 8.84333 83.9415 9.01C84.0815 9.17 84.2815 9.25 84.5415 9.25C84.6015 9.25 84.6548 9.25 84.7015 9.25C84.7482 9.24333 84.7948 9.23667 84.8415 9.23C84.9215 9.22333 84.9782 9.24667 85.0115 9.3C85.0448 9.34667 85.0615 9.44667 85.0615 9.6C85.0615 9.74 85.0315 9.85 84.9715 9.93C84.9115 10.0033 84.8148 10.05 84.6815 10.07C84.6215 10.0767 84.5582 10.08 84.4915 10.08C84.4248 10.0867 84.3615 10.09 84.3015 10.09ZM87.8593 10.09C87.366 10.09 86.9393 9.98667 86.5793 9.78C86.226 9.57333 85.9493 9.28 85.7493 8.9C85.5493 8.52 85.4493 8.07333 85.4493 7.56C85.4493 7.16667 85.506 6.81667 85.6193 6.51C85.7326 6.20333 85.8926 5.94 86.0993 5.72C86.3126 5.49333 86.566 5.32333 86.8593 5.21C87.1593 5.09 87.4926 5.03 87.8593 5.03C88.346 5.03 88.766 5.13333 89.1193 5.34C89.4793 5.54667 89.7593 5.84 89.9593 6.22C90.1593 6.59333 90.2593 7.04 90.2593 7.56C90.2593 7.94667 90.2026 8.29667 90.0893 8.61C89.976 8.92333 89.8126 9.19 89.5993 9.41C89.3926 9.63 89.1393 9.8 88.8393 9.92C88.546 10.0333 88.2193 10.09 87.8593 10.09ZM87.8593 9.31C88.1326 9.31 88.3726 9.24333 88.5793 9.11C88.786 8.97667 88.946 8.78 89.0593 8.52C89.1793 8.26 89.2393 7.94 89.2393 7.56C89.2393 6.98667 89.1126 6.55333 88.8593 6.26C88.606 5.96667 88.2726 5.82 87.8593 5.82C87.5793 5.82 87.336 5.88667 87.1293 6.02C86.9226 6.14667 86.7593 6.34 86.6393 6.6C86.526 6.86 86.4693 7.18 86.4693 7.56C86.4693 8.12667 86.596 8.56 86.8493 8.86C87.1026 9.16 87.4393 9.31 87.8593 9.31ZM93.1036 10.09C92.8103 10.09 92.5069 10.0567 92.1936 9.99C91.8869 9.92333 91.6036 9.81 91.3436 9.65C91.2569 9.59 91.1969 9.52333 91.1636 9.45C91.1303 9.37667 91.1169 9.30333 91.1236 9.23C91.1369 9.15 91.1669 9.08333 91.2136 9.03C91.2669 8.97 91.3303 8.93333 91.4036 8.92C91.4836 8.90667 91.5669 8.92333 91.6536 8.97C91.9136 9.11667 92.1636 9.22 92.4036 9.28C92.6436 9.33333 92.8803 9.36 93.1136 9.36C93.4669 9.36 93.7336 9.29667 93.9136 9.17C94.0936 9.04333 94.1836 8.87333 94.1836 8.66C94.1836 8.48667 94.1236 8.35333 94.0036 8.26C93.8836 8.16 93.7036 8.08333 93.4636 8.03L92.5136 7.84C92.1003 7.75333 91.7869 7.6 91.5736 7.38C91.3603 7.16 91.2536 6.88 91.2536 6.54C91.2536 6.23333 91.3369 5.96667 91.5036 5.74C91.6703 5.51333 91.9036 5.34 92.2036 5.22C92.5036 5.09333 92.8503 5.03 93.2436 5.03C93.5369 5.03 93.8136 5.06667 94.0736 5.14C94.3336 5.21333 94.5736 5.32333 94.7936 5.47C94.8803 5.51667 94.9369 5.58 94.9636 5.66C94.9903 5.73333 94.9936 5.80667 94.9736 5.88C94.9603 5.95333 94.9269 6.02 94.8736 6.08C94.8203 6.13333 94.7536 6.16667 94.6736 6.18C94.6003 6.18667 94.5169 6.16667 94.4236 6.12C94.2236 5.99333 94.0236 5.90333 93.8236 5.85C93.6303 5.79667 93.4369 5.77 93.2436 5.77C92.8903 5.77 92.6236 5.83667 92.4436 5.97C92.2703 6.09667 92.1836 6.27 92.1836 6.49C92.1836 6.65667 92.2369 6.79333 92.3436 6.9C92.4503 7.00667 92.6169 7.08333 92.8436 7.13L93.7936 7.32C94.2269 7.40667 94.5536 7.55333 94.7736 7.76C95.0003 7.96667 95.1136 8.24667 95.1136 8.6C95.1136 9.06 94.9303 9.42333 94.5636 9.69C94.1969 9.95667 93.7103 10.09 93.1036 10.09ZM98.5273 10.09C97.994 10.09 97.534 9.99 97.1473 9.79C96.7673 9.58333 96.4707 9.29333 96.2573 8.92C96.0507 8.54 95.9473 8.09 95.9473 7.57C95.9473 7.06333 96.0507 6.62 96.2573 6.24C96.464 5.86 96.7473 5.56333 97.1073 5.35C97.4673 5.13667 97.8773 5.03 98.3373 5.03C98.6773 5.03 98.9807 5.08667 99.2473 5.2C99.514 5.30667 99.7407 5.46667 99.9273 5.68C100.121 5.88667 100.264 6.14 100.357 6.44C100.457 6.74 100.507 7.07667 100.507 7.45C100.507 7.56333 100.474 7.65 100.407 7.71C100.341 7.76333 100.241 7.79 100.107 7.79H96.7473V7.17H99.8273L99.6573 7.31C99.6573 6.97667 99.6073 6.69333 99.5073 6.46C99.414 6.22667 99.2707 6.05 99.0773 5.93C98.8907 5.80333 98.6573 5.74 98.3773 5.74C98.064 5.74 97.7973 5.81333 97.5773 5.96C97.364 6.10667 97.2007 6.31 97.0873 6.57C96.974 6.83 96.9173 7.13333 96.9173 7.48V7.54C96.9173 8.12667 97.054 8.57 97.3273 8.87C97.6073 9.16333 98.0107 9.31 98.5373 9.31C98.7373 9.31 98.9473 9.28333 99.1673 9.23C99.394 9.17667 99.6073 9.08667 99.8073 8.96C99.9207 8.89333 100.021 8.86333 100.107 8.87C100.201 8.87667 100.274 8.90667 100.327 8.96C100.387 9.01333 100.424 9.08 100.437 9.16C100.451 9.24 100.437 9.32333 100.397 9.41C100.357 9.49 100.287 9.56333 100.187 9.63C99.9607 9.78333 99.6973 9.9 99.3973 9.98C99.0973 10.0533 98.8073 10.09 98.5273 10.09ZM103.468 10.09C103.042 10.09 102.665 9.99 102.338 9.79C102.018 9.58333 101.768 9.29 101.588 8.91C101.408 8.52333 101.318 8.07333 101.318 7.56C101.318 7.03333 101.408 6.58333 101.588 6.21C101.768 5.83667 102.018 5.54667 102.338 5.34C102.665 5.13333 103.042 5.03 103.468 5.03C103.895 5.03 104.262 5.13667 104.568 5.35C104.882 5.55667 105.092 5.83667 105.198 6.19H105.088V3.39C105.088 3.22333 105.132 3.09667 105.218 3.01C105.305 2.92333 105.428 2.88 105.588 2.88C105.748 2.88 105.872 2.92333 105.958 3.01C106.052 3.09667 106.098 3.22333 106.098 3.39V9.56C106.098 9.72 106.055 9.84667 105.968 9.94C105.882 10.0267 105.758 10.07 105.598 10.07C105.438 10.07 105.315 10.0267 105.228 9.94C105.142 9.84667 105.098 9.72 105.098 9.56V8.68L105.208 8.9C105.102 9.26 104.892 9.55 104.578 9.77C104.272 9.98333 103.902 10.09 103.468 10.09ZM103.728 9.31C104.002 9.31 104.242 9.24333 104.448 9.11C104.655 8.97667 104.815 8.78 104.928 8.52C105.048 8.26 105.108 7.94 105.108 7.56C105.108 6.98667 104.982 6.55333 104.728 6.26C104.475 5.96667 104.142 5.82 103.728 5.82C103.448 5.82 103.205 5.88667 102.998 6.02C102.792 6.14667 102.628 6.34 102.508 6.6C102.395 6.86 102.338 7.18 102.338 7.56C102.338 8.12667 102.465 8.56 102.718 8.86C102.972 9.16 103.308 9.31 103.728 9.31Z" fill="#BC4D4D"/>
<path d="M21 136.82C22.4598 135.462 26.8139 131.619 29.7589 128.673C32.7038 125.726 35.059 123.446 38.6696 119.142C42.2803 114.837 47.6328 108.688 51.4229 102.847C55.213 97.0053 59.0286 90.0112 61.4102 84.0926C63.7918 78.174 64.9696 72.6902 65.7123 67.3353C66.4551 61.9804 66.5584 56.8054 65.8669 51.963C65.1754 47.1206 63.4842 41.791 61.5634 38.2809C59.6426 34.7709 56.9539 32.5936 54.342 30.9027C51.7302 29.2117 48.4531 28.4428 45.8923 28.1353C43.3315 27.8279 41.359 28.0074 38.9774 29.0578C36.5958 30.1082 33.7794 31.8758 31.6028 34.4378C29.4262 36.9999 27.2751 40.6894 25.9177 44.4301C24.5602 48.1708 23.7655 53.0129 23.4582 56.8818C23.1509 60.7506 23.5101 64.005 24.0737 67.6432C24.6373 71.2814 25.3288 74.6375 26.8397 78.7112C28.3505 82.7849 31.0648 88.3702 33.139 92.0854C35.2133 95.8005 37.3646 98.3627 39.2852 101.002C41.2057 103.641 42.2809 105.102 44.6625 107.92C47.0441 110.739 50.22 114.556 53.5746 117.912C56.9292 121.269 61.0771 124.83 64.7904 128.058C68.5036 131.286 74.0102 135.744 75.8542 137.281" stroke="#BC4D4D" stroke-width="3" stroke-miterlimit="10" stroke-linejoin="round"/>
<path d="M222.31 10.07C222.157 10.07 222.037 10.0267 221.95 9.94C221.863 9.85333 221.82 9.73 221.82 9.57V3.4C221.82 3.23333 221.86 3.10667 221.94 3.02C222.027 2.92667 222.14 2.88 222.28 2.88C222.4 2.88 222.49 2.90333 222.55 2.95C222.617 2.99 222.693 3.06667 222.78 3.18L226.9 8.61H226.65V3.37C226.65 3.21667 226.69 3.09667 226.77 3.01C226.857 2.92333 226.977 2.88 227.13 2.88C227.29 2.88 227.41 2.92333 227.49 3.01C227.57 3.09667 227.61 3.21667 227.61 3.37V9.58C227.61 9.73333 227.57 9.85333 227.49 9.94C227.417 10.0267 227.317 10.07 227.19 10.07C227.07 10.07 226.97 10.0467 226.89 10C226.817 9.95333 226.737 9.87333 226.65 9.76L222.55 4.34H222.78V9.57C222.78 9.73 222.74 9.85333 222.66 9.94C222.58 10.0267 222.463 10.07 222.31 10.07ZM231.262 10.09C230.768 10.09 230.342 9.98667 229.982 9.78C229.628 9.57333 229.352 9.28 229.152 8.9C228.952 8.52 228.852 8.07333 228.852 7.56C228.852 7.16667 228.908 6.81667 229.022 6.51C229.135 6.20333 229.295 5.94 229.502 5.72C229.715 5.49333 229.968 5.32333 230.262 5.21C230.562 5.09 230.895 5.03 231.262 5.03C231.748 5.03 232.168 5.13333 232.522 5.34C232.882 5.54667 233.162 5.84 233.362 6.22C233.562 6.59333 233.662 7.04 233.662 7.56C233.662 7.94667 233.605 8.29667 233.492 8.61C233.378 8.92333 233.215 9.19 233.002 9.41C232.795 9.63 232.542 9.8 232.242 9.92C231.948 10.0333 231.622 10.09 231.262 10.09ZM231.262 9.31C231.535 9.31 231.775 9.24333 231.982 9.11C232.188 8.97667 232.348 8.78 232.462 8.52C232.582 8.26 232.642 7.94 232.642 7.56C232.642 6.98667 232.515 6.55333 232.262 6.26C232.008 5.96667 231.675 5.82 231.262 5.82C230.982 5.82 230.738 5.88667 230.532 6.02C230.325 6.14667 230.162 6.34 230.042 6.6C229.928 6.86 229.872 7.18 229.872 7.56C229.872 8.12667 229.998 8.56 230.252 8.86C230.505 9.16 230.842 9.31 231.262 9.31ZM236.827 10.09C236.427 10.09 236.09 10.02 235.817 9.88C235.544 9.74 235.34 9.53333 235.207 9.26C235.074 8.98667 235.007 8.65333 235.007 8.26V5.9H234.407C234.274 5.9 234.17 5.86667 234.097 5.8C234.024 5.72667 233.987 5.63 233.987 5.51C233.987 5.38333 234.024 5.28667 234.097 5.22C234.17 5.15333 234.274 5.12 234.407 5.12H235.007V4.09C235.007 3.92333 235.05 3.79667 235.137 3.71C235.23 3.62333 235.357 3.58 235.517 3.58C235.677 3.58 235.8 3.62333 235.887 3.71C235.974 3.79667 236.017 3.92333 236.017 4.09V5.12H237.187C237.32 5.12 237.424 5.15333 237.497 5.22C237.57 5.28667 237.607 5.38333 237.607 5.51C237.607 5.63 237.57 5.72667 237.497 5.8C237.424 5.86667 237.32 5.9 237.187 5.9H236.017V8.18C236.017 8.53333 236.09 8.8 236.237 8.98C236.39 9.16 236.637 9.25 236.977 9.25C237.097 9.25 237.2 9.24 237.287 9.22C237.38 9.19333 237.457 9.17667 237.517 9.17C237.59 9.17 237.65 9.19667 237.697 9.25C237.744 9.29667 237.767 9.39 237.767 9.53C237.767 9.63 237.747 9.72333 237.707 9.81C237.674 9.89667 237.61 9.95333 237.517 9.98C237.437 10.0067 237.327 10.03 237.187 10.05C237.054 10.0767 236.934 10.09 236.827 10.09ZM243.496 10.09C243.19 10.09 242.89 10.0667 242.596 10.02C242.303 9.97333 242.026 9.90333 241.766 9.81C241.506 9.71 241.273 9.59 241.066 9.45C240.966 9.37667 240.896 9.29333 240.856 9.2C240.823 9.10667 240.813 9.01667 240.826 8.93C240.846 8.83667 240.886 8.75667 240.946 8.69C241.006 8.62333 241.08 8.58333 241.166 8.57C241.253 8.55 241.35 8.57667 241.456 8.65C241.756 8.84333 242.073 8.98667 242.406 9.08C242.74 9.16667 243.103 9.21 243.496 9.21C244.063 9.21 244.48 9.11 244.746 8.91C245.02 8.70333 245.156 8.43667 245.156 8.11C245.156 7.84333 245.06 7.63333 244.866 7.48C244.673 7.32 244.35 7.19333 243.896 7.1L242.826 6.88C242.193 6.74667 241.72 6.52667 241.406 6.22C241.1 5.91333 240.946 5.5 240.946 4.98C240.946 4.66667 241.01 4.38 241.136 4.12C241.27 3.86 241.453 3.63667 241.686 3.45C241.92 3.25667 242.2 3.11 242.526 3.01C242.853 2.91 243.21 2.86 243.596 2.86C244.01 2.86 244.396 2.91333 244.756 3.02C245.123 3.12667 245.45 3.29 245.736 3.51C245.823 3.57 245.88 3.64667 245.906 3.74C245.94 3.82667 245.946 3.91333 245.926 4C245.913 4.08667 245.876 4.16 245.816 4.22C245.756 4.28 245.68 4.31667 245.586 4.33C245.493 4.33667 245.39 4.30333 245.276 4.23C245.016 4.05667 244.75 3.93333 244.476 3.86C244.21 3.78 243.913 3.74 243.586 3.74C243.26 3.74 242.973 3.79 242.726 3.89C242.486 3.99 242.3 4.13 242.166 4.31C242.04 4.49 241.976 4.70333 241.976 4.95C241.976 5.23 242.066 5.45333 242.246 5.62C242.426 5.78667 242.726 5.91333 243.146 6L244.206 6.22C244.873 6.36 245.37 6.57667 245.696 6.87C246.023 7.16333 246.186 7.55333 246.186 8.04C246.186 8.35333 246.123 8.63667 245.996 8.89C245.87 9.13667 245.69 9.35 245.456 9.53C245.223 9.71 244.94 9.85 244.606 9.95C244.28 10.0433 243.91 10.09 243.496 10.09ZM247.757 10.06C247.597 10.06 247.474 10.0133 247.387 9.92C247.3 9.82 247.257 9.68333 247.257 9.51V5.61C247.257 5.43667 247.3 5.30333 247.387 5.21C247.474 5.11667 247.597 5.07 247.757 5.07C247.917 5.07 248.04 5.11667 248.127 5.21C248.22 5.30333 248.267 5.43667 248.267 5.61V9.51C248.267 9.68333 248.224 9.82 248.137 9.92C248.05 10.0133 247.924 10.06 247.757 10.06ZM247.757 4.03C247.557 4.03 247.4 3.98 247.287 3.88C247.18 3.78 247.127 3.64 247.127 3.46C247.127 3.27333 247.18 3.13333 247.287 3.04C247.4 2.94 247.557 2.89 247.757 2.89C247.957 2.89 248.11 2.94 248.217 3.04C248.33 3.13333 248.387 3.27333 248.387 3.46C248.387 3.64 248.33 3.78 248.217 3.88C248.11 3.98 247.957 4.03 247.757 4.03ZM250.209 10.07C250.049 10.07 249.925 10.0267 249.839 9.94C249.752 9.84667 249.709 9.72 249.709 9.56V5.56C249.709 5.39333 249.752 5.26667 249.839 5.18C249.925 5.09333 250.045 5.05 250.199 5.05C250.359 5.05 250.479 5.09333 250.559 5.18C250.645 5.26667 250.689 5.39333 250.689 5.56V6.38L250.579 6.16C250.712 5.80667 250.919 5.53 251.199 5.33C251.479 5.13 251.815 5.03 252.209 5.03C252.615 5.03 252.945 5.12667 253.199 5.32C253.452 5.51333 253.625 5.81 253.719 6.21H253.579C253.705 5.84333 253.922 5.55667 254.229 5.35C254.535 5.13667 254.892 5.03 255.299 5.03C255.672 5.03 255.979 5.10333 256.219 5.25C256.459 5.39 256.639 5.60667 256.759 5.9C256.879 6.18667 256.939 6.55 256.939 6.99V9.56C256.939 9.72 256.892 9.84667 256.799 9.94C256.712 10.0267 256.589 10.07 256.429 10.07C256.269 10.07 256.145 10.0267 256.059 9.94C255.972 9.84667 255.929 9.72 255.929 9.56V7.04C255.929 6.62667 255.855 6.32333 255.709 6.13C255.569 5.93667 255.335 5.84 255.009 5.84C254.642 5.84 254.352 5.96667 254.139 6.22C253.925 6.47333 253.819 6.82333 253.819 7.27V9.56C253.819 9.72 253.775 9.84667 253.689 9.94C253.602 10.0267 253.479 10.07 253.319 10.07C253.159 10.07 253.032 10.0267 252.939 9.94C252.852 9.84667 252.809 9.72 252.809 9.56V7.04C252.809 6.62667 252.739 6.32333 252.599 6.13C252.459 5.93667 252.225 5.84 251.899 5.84C251.532 5.84 251.242 5.96667 251.029 6.22C250.822 6.47333 250.719 6.82333 250.719 7.27V9.56C250.719 9.9 250.549 10.07 250.209 10.07ZM258.851 11.87C258.691 11.87 258.567 11.8267 258.481 11.74C258.394 11.6533 258.351 11.5267 258.351 11.36V5.56C258.351 5.39333 258.394 5.26667 258.481 5.18C258.567 5.09333 258.687 5.05 258.841 5.05C259.001 5.05 259.124 5.09333 259.211 5.18C259.297 5.26667 259.341 5.39333 259.341 5.56V6.43L259.231 6.22C259.337 5.86 259.547 5.57333 259.861 5.36C260.174 5.14 260.544 5.03 260.971 5.03C261.404 5.03 261.781 5.13333 262.101 5.34C262.427 5.54667 262.677 5.83667 262.851 6.21C263.031 6.58333 263.121 7.03333 263.121 7.56C263.121 8.07333 263.031 8.52333 262.851 8.91C262.677 9.29 262.431 9.58333 262.111 9.79C261.791 9.99 261.411 10.09 260.971 10.09C260.551 10.09 260.184 9.98333 259.871 9.77C259.557 9.55667 259.347 9.27333 259.241 8.92H259.361V11.36C259.361 11.5267 259.314 11.6533 259.221 11.74C259.134 11.8267 259.011 11.87 258.851 11.87ZM260.721 9.31C261.001 9.31 261.244 9.24333 261.451 9.11C261.657 8.97667 261.817 8.78 261.931 8.52C262.044 8.26 262.101 7.94 262.101 7.56C262.101 6.98667 261.974 6.55333 261.721 6.26C261.474 5.96667 261.141 5.82 260.721 5.82C260.447 5.82 260.204 5.88667 259.991 6.02C259.784 6.14667 259.624 6.34 259.511 6.6C259.397 6.86 259.341 7.18 259.341 7.56C259.341 8.12667 259.467 8.56 259.721 8.86C259.974 9.16 260.307 9.31 260.721 9.31ZM265.829 10.09C265.309 10.09 264.915 9.94 264.649 9.64C264.389 9.33333 264.259 8.89333 264.259 8.32V3.39C264.259 3.22333 264.302 3.09667 264.389 3.01C264.475 2.92333 264.599 2.88 264.759 2.88C264.919 2.88 265.042 2.92333 265.129 3.01C265.222 3.09667 265.269 3.22333 265.269 3.39V8.26C265.269 8.59333 265.335 8.84333 265.469 9.01C265.609 9.17 265.809 9.25 266.069 9.25C266.129 9.25 266.182 9.25 266.229 9.25C266.275 9.24333 266.322 9.23667 266.369 9.23C266.449 9.22333 266.505 9.24667 266.539 9.3C266.572 9.34667 266.589 9.44667 266.589 9.6C266.589 9.74 266.559 9.85 266.499 9.93C266.439 10.0033 266.342 10.05 266.209 10.07C266.149 10.0767 266.085 10.08 266.019 10.08C265.952 10.0867 265.889 10.09 265.829 10.09ZM269.557 10.09C269.023 10.09 268.563 9.99 268.177 9.79C267.797 9.58333 267.5 9.29333 267.287 8.92C267.08 8.54 266.977 8.09 266.977 7.57C266.977 7.06333 267.08 6.62 267.287 6.24C267.493 5.86 267.777 5.56333 268.137 5.35C268.497 5.13667 268.907 5.03 269.367 5.03C269.707 5.03 270.01 5.08667 270.277 5.2C270.543 5.30667 270.77 5.46667 270.957 5.68C271.15 5.88667 271.293 6.14 271.387 6.44C271.487 6.74 271.537 7.07667 271.537 7.45C271.537 7.56333 271.503 7.65 271.437 7.71C271.37 7.76333 271.27 7.79 271.137 7.79H267.777V7.17H270.857L270.687 7.31C270.687 6.97667 270.637 6.69333 270.537 6.46C270.443 6.22667 270.3 6.05 270.107 5.93C269.92 5.80333 269.687 5.74 269.407 5.74C269.093 5.74 268.827 5.81333 268.607 5.96C268.393 6.10667 268.23 6.31 268.117 6.57C268.003 6.83 267.947 7.13333 267.947 7.48V7.54C267.947 8.12667 268.083 8.57 268.357 8.87C268.637 9.16333 269.04 9.31 269.567 9.31C269.767 9.31 269.977 9.28333 270.197 9.23C270.423 9.17667 270.637 9.08667 270.837 8.96C270.95 8.89333 271.05 8.86333 271.137 8.87C271.23 8.87667 271.303 8.90667 271.357 8.96C271.417 9.01333 271.453 9.08 271.467 9.16C271.48 9.24 271.467 9.32333 271.427 9.41C271.387 9.49 271.317 9.56333 271.217 9.63C270.99 9.78333 270.727 9.9 270.427 9.98C270.127 10.0533 269.837 10.09 269.557 10.09ZM273.238 11.01C273.164 11.1033 273.084 11.1567 272.998 11.17C272.918 11.1833 272.848 11.1667 272.788 11.12C272.728 11.0733 272.694 11.0067 272.688 10.92C272.681 10.84 272.718 10.75 272.798 10.65C272.918 10.5033 272.998 10.35 273.038 10.19C273.084 10.0367 273.108 9.9 273.108 9.78L273.148 10.04C272.948 10.04 272.784 9.98333 272.658 9.87C272.538 9.75 272.478 9.59333 272.478 9.4C272.478 9.21333 272.534 9.06333 272.648 8.95C272.761 8.83 272.914 8.77 273.108 8.77C273.308 8.77 273.464 8.84 273.578 8.98C273.698 9.11333 273.758 9.30667 273.758 9.56C273.758 9.70667 273.741 9.86 273.708 10.02C273.681 10.18 273.631 10.3433 273.558 10.51C273.484 10.6767 273.378 10.8433 273.238 11.01ZM280.918 10.09C280.204 10.09 279.594 9.94333 279.088 9.65C278.581 9.35667 278.191 8.94 277.918 8.4C277.651 7.85333 277.518 7.21 277.518 6.47C277.518 5.91667 277.594 5.42 277.748 4.98C277.901 4.53333 278.121 4.15333 278.407 3.84C278.701 3.52 279.058 3.27667 279.478 3.11C279.904 2.94333 280.384 2.86 280.918 2.86C281.311 2.86 281.688 2.91333 282.048 3.02C282.414 3.12667 282.731 3.28 282.998 3.48C283.111 3.55333 283.184 3.64333 283.218 3.75C283.258 3.85 283.264 3.94667 283.238 4.04C283.218 4.13333 283.174 4.21333 283.108 4.28C283.041 4.34 282.954 4.37333 282.848 4.38C282.748 4.38667 282.638 4.35 282.518 4.27C282.298 4.10333 282.054 3.98 281.788 3.9C281.521 3.82 281.241 3.78 280.948 3.78C280.441 3.78 280.014 3.88667 279.668 4.1C279.321 4.30667 279.058 4.61 278.878 5.01C278.698 5.41 278.608 5.89667 278.608 6.47C278.608 7.04333 278.698 7.53333 278.878 7.94C279.058 8.34 279.321 8.64667 279.668 8.86C280.014 9.06667 280.441 9.17 280.948 9.17C281.241 9.17 281.521 9.13 281.788 9.05C282.061 8.96333 282.318 8.83667 282.558 8.67C282.678 8.59667 282.784 8.56333 282.878 8.57C282.978 8.57667 283.061 8.61 283.128 8.67C283.194 8.73 283.238 8.80667 283.258 8.9C283.284 8.98667 283.281 9.08 283.248 9.18C283.221 9.27333 283.158 9.35333 283.058 9.42C282.784 9.64 282.461 9.80667 282.088 9.92C281.714 10.0333 281.324 10.09 280.918 10.09ZM285.975 10.09C285.455 10.09 285.062 9.94 284.795 9.64C284.535 9.33333 284.405 8.89333 284.405 8.32V3.39C284.405 3.22333 284.449 3.09667 284.535 3.01C284.622 2.92333 284.745 2.88 284.905 2.88C285.065 2.88 285.189 2.92333 285.275 3.01C285.369 3.09667 285.415 3.22333 285.415 3.39V8.26C285.415 8.59333 285.482 8.84333 285.615 9.01C285.755 9.17 285.955 9.25 286.215 9.25C286.275 9.25 286.329 9.25 286.375 9.25C286.422 9.24333 286.469 9.23667 286.515 9.23C286.595 9.22333 286.652 9.24667 286.685 9.3C286.719 9.34667 286.735 9.44667 286.735 9.6C286.735 9.74 286.705 9.85 286.645 9.93C286.585 10.0033 286.489 10.05 286.355 10.07C286.295 10.0767 286.232 10.08 286.165 10.08C286.099 10.0867 286.035 10.09 285.975 10.09ZM289.533 10.09C289.04 10.09 288.613 9.98667 288.253 9.78C287.9 9.57333 287.623 9.28 287.423 8.9C287.223 8.52 287.123 8.07333 287.123 7.56C287.123 7.16667 287.18 6.81667 287.293 6.51C287.406 6.20333 287.566 5.94 287.773 5.72C287.986 5.49333 288.24 5.32333 288.533 5.21C288.833 5.09 289.166 5.03 289.533 5.03C290.02 5.03 290.44 5.13333 290.793 5.34C291.153 5.54667 291.433 5.84 291.633 6.22C291.833 6.59333 291.933 7.04 291.933 7.56C291.933 7.94667 291.876 8.29667 291.763 8.61C291.65 8.92333 291.486 9.19 291.273 9.41C291.066 9.63 290.813 9.8 290.513 9.92C290.22 10.0333 289.893 10.09 289.533 10.09ZM289.533 9.31C289.806 9.31 290.046 9.24333 290.253 9.11C290.46 8.97667 290.62 8.78 290.733 8.52C290.853 8.26 290.913 7.94 290.913 7.56C290.913 6.98667 290.786 6.55333 290.533 6.26C290.28 5.96667 289.946 5.82 289.533 5.82C289.253 5.82 289.01 5.88667 288.803 6.02C288.596 6.14667 288.433 6.34 288.313 6.6C288.2 6.86 288.143 7.18 288.143 7.56C288.143 8.12667 288.27 8.56 288.523 8.86C288.776 9.16 289.113 9.31 289.533 9.31ZM294.777 10.09C294.484 10.09 294.181 10.0567 293.867 9.99C293.561 9.92333 293.277 9.81 293.017 9.65C292.931 9.59 292.871 9.52333 292.837 9.45C292.804 9.37667 292.791 9.30333 292.797 9.23C292.811 9.15 292.841 9.08333 292.887 9.03C292.941 8.97 293.004 8.93333 293.077 8.92C293.157 8.90667 293.241 8.92333 293.327 8.97C293.587 9.11667 293.837 9.22 294.077 9.28C294.317 9.33333 294.554 9.36 294.787 9.36C295.141 9.36 295.407 9.29667 295.587 9.17C295.767 9.04333 295.857 8.87333 295.857 8.66C295.857 8.48667 295.797 8.35333 295.677 8.26C295.557 8.16 295.377 8.08333 295.137 8.03L294.187 7.84C293.774 7.75333 293.461 7.6 293.247 7.38C293.034 7.16 292.927 6.88 292.927 6.54C292.927 6.23333 293.011 5.96667 293.177 5.74C293.344 5.51333 293.577 5.34 293.877 5.22C294.177 5.09333 294.524 5.03 294.917 5.03C295.211 5.03 295.487 5.06667 295.747 5.14C296.007 5.21333 296.247 5.32333 296.467 5.47C296.554 5.51667 296.611 5.58 296.637 5.66C296.664 5.73333 296.667 5.80667 296.647 5.88C296.634 5.95333 296.601 6.02 296.547 6.08C296.494 6.13333 296.427 6.16667 296.347 6.18C296.274 6.18667 296.191 6.16667 296.097 6.12C295.897 5.99333 295.697 5.90333 295.497 5.85C295.304 5.79667 295.111 5.77 294.917 5.77C294.564 5.77 294.297 5.83667 294.117 5.97C293.944 6.09667 293.857 6.27 293.857 6.49C293.857 6.65667 293.911 6.79333 294.017 6.9C294.124 7.00667 294.291 7.08333 294.517 7.13L295.467 7.32C295.901 7.40667 296.227 7.55333 296.447 7.76C296.674 7.96667 296.787 8.24667 296.787 8.6C296.787 9.06 296.604 9.42333 296.237 9.69C295.871 9.95667 295.384 10.09 294.777 10.09ZM300.201 10.09C299.668 10.09 299.208 9.99 298.821 9.79C298.441 9.58333 298.145 9.29333 297.931 8.92C297.725 8.54 297.621 8.09 297.621 7.57C297.621 7.06333 297.725 6.62 297.931 6.24C298.138 5.86 298.421 5.56333 298.781 5.35C299.141 5.13667 299.551 5.03 300.011 5.03C300.351 5.03 300.655 5.08667 300.921 5.2C301.188 5.30667 301.415 5.46667 301.601 5.68C301.795 5.88667 301.938 6.14 302.031 6.44C302.131 6.74 302.181 7.07667 302.181 7.45C302.181 7.56333 302.148 7.65 302.081 7.71C302.015 7.76333 301.915 7.79 301.781 7.79H298.421V7.17H301.501L301.331 7.31C301.331 6.97667 301.281 6.69333 301.181 6.46C301.088 6.22667 300.945 6.05 300.751 5.93C300.565 5.80333 300.331 5.74 300.051 5.74C299.738 5.74 299.471 5.81333 299.251 5.96C299.038 6.10667 298.875 6.31 298.761 6.57C298.648 6.83 298.591 7.13333 298.591 7.48V7.54C298.591 8.12667 298.728 8.57 299.001 8.87C299.281 9.16333 299.685 9.31 300.211 9.31C300.411 9.31 300.621 9.28333 300.841 9.23C301.068 9.17667 301.281 9.08667 301.481 8.96C301.595 8.89333 301.695 8.86333 301.781 8.87C301.875 8.87667 301.948 8.90667 302.001 8.96C302.061 9.01333 302.098 9.08 302.111 9.16C302.125 9.24 302.111 9.32333 302.071 9.41C302.031 9.49 301.961 9.56333 301.861 9.63C301.635 9.78333 301.371 9.9 301.071 9.98C300.771 10.0533 300.481 10.09 300.201 10.09ZM305.142 10.09C304.716 10.09 304.339 9.99 304.012 9.79C303.692 9.58333 303.442 9.29 303.262 8.91C303.082 8.52333 302.992 8.07333 302.992 7.56C302.992 7.03333 303.082 6.58333 303.262 6.21C303.442 5.83667 303.692 5.54667 304.012 5.34C304.339 5.13333 304.716 5.03 305.142 5.03C305.569 5.03 305.936 5.13667 306.242 5.35C306.556 5.55667 306.766 5.83667 306.872 6.19H306.762V3.39C306.762 3.22333 306.806 3.09667 306.892 3.01C306.979 2.92333 307.102 2.88 307.262 2.88C307.422 2.88 307.546 2.92333 307.632 3.01C307.726 3.09667 307.772 3.22333 307.772 3.39V9.56C307.772 9.72 307.729 9.84667 307.642 9.94C307.556 10.0267 307.432 10.07 307.272 10.07C307.112 10.07 306.989 10.0267 306.902 9.94C306.816 9.84667 306.772 9.72 306.772 9.56V8.68L306.882 8.9C306.776 9.26 306.566 9.55 306.252 9.77C305.946 9.98333 305.576 10.09 305.142 10.09ZM305.402 9.31C305.676 9.31 305.916 9.24333 306.122 9.11C306.329 8.97667 306.489 8.78 306.602 8.52C306.722 8.26 306.782 7.94 306.782 7.56C306.782 6.98667 306.656 6.55333 306.402 6.26C306.149 5.96667 305.816 5.82 305.402 5.82C305.122 5.82 304.879 5.88667 304.672 6.02C304.466 6.14667 304.302 6.34 304.182 6.6C304.069 6.86 304.012 7.18 304.012 7.56C304.012 8.12667 304.139 8.56 304.392 8.86C304.646 9.16 304.982 9.31 305.402 9.31Z" fill="#BC4D4D"/>
<path fill-rule="evenodd" clip-rule="evenodd" d="M304.67 112.916C302.251 110.072 297.259 105.498 293.321 102.346C289.383 99.1931 285.135 96.5344 281.042 93.9998C276.949 91.4652 272.235 89.3018 268.762 87.1381C265.289 84.9744 263.461 83.7994 260.205 81.0177C256.949 78.236 252.359 73.8475 249.227 70.4477C246.095 67.0479 243.274 63.988 241.414 60.619C239.553 57.2501 238.281 53.4485 238.064 50.234C237.847 47.0194 238.096 44.206 240.112 41.3316C242.127 38.4571 247.088 34.9651 250.157 32.9872C253.227 31.0092 254.716 30.0202 258.53 29.4638C262.344 28.9074 268.732 28.7217 273.042 29.6488C277.352 30.5758 281.197 33.048 284.391 35.0262C287.585 37.0045 289.972 39.0143 292.204 41.5181C294.437 44.0219 296.732 46.9583 297.786 50.049C298.84 53.1398 299.088 57.0027 298.53 60.0626C297.972 63.1226 296.576 65.9978 294.437 68.4086C292.297 70.8194 288.856 72.9204 285.693 74.5274C282.53 76.1345 278.778 76.938 275.46 78.0508C272.142 79.1636 269.041 79.5661 265.785 81.2042C262.529 82.8423 258.56 85.2213 255.925 87.8794C253.289 90.5376 251.274 94.0622 249.972 97.1533C248.67 100.244 248.236 103.428 248.112 106.426C247.988 109.424 248.421 112.205 249.227 115.141C250.033 118.078 251.274 121.291 252.948 124.042C254.623 126.793 256.639 128.989 259.274 131.647C261.91 134.305 265.506 137.735 268.762 139.991C272.018 142.247 275.15 144.009 278.809 145.184C282.468 146.358 286.839 147.687 290.715 147.038C294.591 146.389 299.243 143.947 302.065 141.289C304.886 138.631 306.685 134.738 307.646 131.09C308.608 127.443 308.328 122.435 307.832 119.406C307.336 116.377 307.089 115.759 304.67 112.916Z" fill="#F5F99E" stroke="#BC4D4D" stroke-width="3"/>
<path d="M345.786 10.09C345.479 10.09 345.179 10.0667 344.886 10.02C344.593 9.97333 344.316 9.90333 344.056 9.81C343.796 9.71 343.563 9.59 343.356 9.45C343.256 9.37667 343.186 9.29333 343.146 9.2C343.113 9.10667 343.103 9.01667 343.116 8.93C343.136 8.83667 343.176 8.75667 343.236 8.69C343.296 8.62333 343.369 8.58333 343.456 8.57C343.543 8.55 343.639 8.57667 343.746 8.65C344.046 8.84333 344.363 8.98667 344.696 9.08C345.029 9.16667 345.393 9.21 345.786 9.21C346.353 9.21 346.769 9.11 347.036 8.91C347.309 8.70333 347.446 8.43667 347.446 8.11C347.446 7.84333 347.349 7.63333 347.156 7.48C346.963 7.32 346.639 7.19333 346.186 7.1L345.116 6.88C344.483 6.74667 344.009 6.52667 343.696 6.22C343.389 5.91333 343.236 5.5 343.236 4.98C343.236 4.66667 343.299 4.38 343.426 4.12C343.559 3.86 343.743 3.63667 343.976 3.45C344.209 3.25667 344.489 3.11 344.816 3.01C345.143 2.91 345.499 2.86 345.886 2.86C346.299 2.86 346.686 2.91333 347.046 3.02C347.413 3.12667 347.739 3.29 348.026 3.51C348.113 3.57 348.169 3.64667 348.196 3.74C348.229 3.82667 348.236 3.91333 348.216 4C348.203 4.08667 348.166 4.16 348.106 4.22C348.046 4.28 347.969 4.31667 347.876 4.33C347.783 4.33667 347.679 4.30333 347.566 4.23C347.306 4.05667 347.039 3.93333 346.766 3.86C346.499 3.78 346.203 3.74 345.876 3.74C345.549 3.74 345.263 3.79 345.016 3.89C344.776 3.99 344.589 4.13 344.456 4.31C344.329 4.49 344.266 4.70333 344.266 4.95C344.266 5.23 344.356 5.45333 344.536 5.62C344.716 5.78667 345.016 5.91333 345.436 6L346.496 6.22C347.163 6.36 347.659 6.57667 347.986 6.87C348.313 7.16333 348.476 7.55333 348.476 8.04C348.476 8.35333 348.413 8.63667 348.286 8.89C348.159 9.13667 347.979 9.35 347.746 9.53C347.513 9.71 347.229 9.85 346.896 9.95C346.569 10.0433 346.199 10.09 345.786 10.09ZM350.047 10.06C349.887 10.06 349.763 10.0133 349.677 9.92C349.59 9.82 349.547 9.68333 349.547 9.51V5.61C349.547 5.43667 349.59 5.30333 349.677 5.21C349.763 5.11667 349.887 5.07 350.047 5.07C350.207 5.07 350.33 5.11667 350.417 5.21C350.51 5.30333 350.557 5.43667 350.557 5.61V9.51C350.557 9.68333 350.513 9.82 350.427 9.92C350.34 10.0133 350.213 10.06 350.047 10.06ZM350.047 4.03C349.847 4.03 349.69 3.98 349.577 3.88C349.47 3.78 349.417 3.64 349.417 3.46C349.417 3.27333 349.47 3.13333 349.577 3.04C349.69 2.94 349.847 2.89 350.047 2.89C350.247 2.89 350.4 2.94 350.507 3.04C350.62 3.13333 350.677 3.27333 350.677 3.46C350.677 3.64 350.62 3.78 350.507 3.88C350.4 3.98 350.247 4.03 350.047 4.03ZM352.498 10.07C352.338 10.07 352.215 10.0267 352.128 9.94C352.042 9.84667 351.998 9.72 351.998 9.56V5.56C351.998 5.39333 352.042 5.26667 352.128 5.18C352.215 5.09333 352.335 5.05 352.488 5.05C352.648 5.05 352.768 5.09333 352.848 5.18C352.935 5.26667 352.978 5.39333 352.978 5.56V6.38L352.868 6.16C353.002 5.80667 353.208 5.53 353.488 5.33C353.768 5.13 354.105 5.03 354.498 5.03C354.905 5.03 355.235 5.12667 355.488 5.32C355.742 5.51333 355.915 5.81 356.008 6.21H355.868C355.995 5.84333 356.212 5.55667 356.518 5.35C356.825 5.13667 357.182 5.03 357.588 5.03C357.962 5.03 358.268 5.10333 358.508 5.25C358.748 5.39 358.928 5.60667 359.048 5.9C359.168 6.18667 359.228 6.55 359.228 6.99V9.56C359.228 9.72 359.182 9.84667 359.088 9.94C359.002 10.0267 358.878 10.07 358.718 10.07C358.558 10.07 358.435 10.0267 358.348 9.94C358.262 9.84667 358.218 9.72 358.218 9.56V7.04C358.218 6.62667 358.145 6.32333 357.998 6.13C357.858 5.93667 357.625 5.84 357.298 5.84C356.932 5.84 356.642 5.96667 356.428 6.22C356.215 6.47333 356.108 6.82333 356.108 7.27V9.56C356.108 9.72 356.065 9.84667 355.978 9.94C355.892 10.0267 355.768 10.07 355.608 10.07C355.448 10.07 355.322 10.0267 355.228 9.94C355.142 9.84667 355.098 9.72 355.098 9.56V7.04C355.098 6.62667 355.028 6.32333 354.888 6.13C354.748 5.93667 354.515 5.84 354.188 5.84C353.822 5.84 353.532 5.96667 353.318 6.22C353.112 6.47333 353.008 6.82333 353.008 7.27V9.56C353.008 9.9 352.838 10.07 352.498 10.07ZM361.14 11.87C360.98 11.87 360.857 11.8267 360.77 11.74C360.684 11.6533 360.64 11.5267 360.64 11.36V5.56C360.64 5.39333 360.684 5.26667 360.77 5.18C360.857 5.09333 360.977 5.05 361.13 5.05C361.29 5.05 361.414 5.09333 361.5 5.18C361.587 5.26667 361.63 5.39333 361.63 5.56V6.43L361.52 6.22C361.627 5.86 361.837 5.57333 362.15 5.36C362.464 5.14 362.834 5.03 363.26 5.03C363.694 5.03 364.07 5.13333 364.39 5.34C364.717 5.54667 364.967 5.83667 365.14 6.21C365.32 6.58333 365.41 7.03333 365.41 7.56C365.41 8.07333 365.32 8.52333 365.14 8.91C364.967 9.29 364.72 9.58333 364.4 9.79C364.08 9.99 363.7 10.09 363.26 10.09C362.84 10.09 362.474 9.98333 362.16 9.77C361.847 9.55667 361.637 9.27333 361.53 8.92H361.65V11.36C361.65 11.5267 361.604 11.6533 361.51 11.74C361.424 11.8267 361.3 11.87 361.14 11.87ZM363.01 9.31C363.29 9.31 363.534 9.24333 363.74 9.11C363.947 8.97667 364.107 8.78 364.22 8.52C364.334 8.26 364.39 7.94 364.39 7.56C364.39 6.98667 364.264 6.55333 364.01 6.26C363.764 5.96667 363.43 5.82 363.01 5.82C362.737 5.82 362.494 5.88667 362.28 6.02C362.074 6.14667 361.914 6.34 361.8 6.6C361.687 6.86 361.63 7.18 361.63 7.56C361.63 8.12667 361.757 8.56 362.01 8.86C362.264 9.16 362.597 9.31 363.01 9.31ZM368.119 10.09C367.599 10.09 367.205 9.94 366.939 9.64C366.679 9.33333 366.549 8.89333 366.549 8.32V3.39C366.549 3.22333 366.592 3.09667 366.679 3.01C366.765 2.92333 366.889 2.88 367.049 2.88C367.209 2.88 367.332 2.92333 367.419 3.01C367.512 3.09667 367.559 3.22333 367.559 3.39V8.26C367.559 8.59333 367.625 8.84333 367.759 9.01C367.899 9.17 368.099 9.25 368.359 9.25C368.419 9.25 368.472 9.25 368.519 9.25C368.565 9.24333 368.612 9.23667 368.659 9.23C368.739 9.22333 368.795 9.24667 368.829 9.3C368.862 9.34667 368.879 9.44667 368.879 9.6C368.879 9.74 368.849 9.85 368.789 9.93C368.729 10.0033 368.632 10.05 368.499 10.07C368.439 10.0767 368.375 10.08 368.309 10.08C368.242 10.0867 368.179 10.09 368.119 10.09ZM371.846 10.09C371.313 10.09 370.853 9.99 370.466 9.79C370.086 9.58333 369.79 9.29333 369.576 8.92C369.37 8.54 369.266 8.09 369.266 7.57C369.266 7.06333 369.37 6.62 369.576 6.24C369.783 5.86 370.066 5.56333 370.426 5.35C370.786 5.13667 371.196 5.03 371.656 5.03C371.996 5.03 372.3 5.08667 372.566 5.2C372.833 5.30667 373.06 5.46667 373.246 5.68C373.44 5.88667 373.583 6.14 373.676 6.44C373.776 6.74 373.826 7.07667 373.826 7.45C373.826 7.56333 373.793 7.65 373.726 7.71C373.66 7.76333 373.56 7.79 373.426 7.79H370.066V7.17H373.146L372.976 7.31C372.976 6.97667 372.926 6.69333 372.826 6.46C372.733 6.22667 372.59 6.05 372.396 5.93C372.21 5.80333 371.976 5.74 371.696 5.74C371.383 5.74 371.116 5.81333 370.896 5.96C370.683 6.10667 370.52 6.31 370.406 6.57C370.293 6.83 370.236 7.13333 370.236 7.48V7.54C370.236 8.12667 370.373 8.57 370.646 8.87C370.926 9.16333 371.33 9.31 371.856 9.31C372.056 9.31 372.266 9.28333 372.486 9.23C372.713 9.17667 372.926 9.08667 373.126 8.96C373.24 8.89333 373.34 8.86333 373.426 8.87C373.52 8.87667 373.593 8.90667 373.646 8.96C373.706 9.01333 373.743 9.08 373.756 9.16C373.77 9.24 373.756 9.32333 373.716 9.41C373.676 9.49 373.606 9.56333 373.506 9.63C373.28 9.78333 373.016 9.9 372.716 9.98C372.416 10.0533 372.126 10.09 371.846 10.09ZM375.527 11.01C375.454 11.1033 375.374 11.1567 375.287 11.17C375.207 11.1833 375.137 11.1667 375.077 11.12C375.017 11.0733 374.984 11.0067 374.977 10.92C374.971 10.84 375.007 10.75 375.087 10.65C375.207 10.5033 375.287 10.35 375.327 10.19C375.374 10.0367 375.397 9.9 375.397 9.78L375.437 10.04C375.237 10.04 375.074 9.98333 374.947 9.87C374.827 9.75 374.767 9.59333 374.767 9.4C374.767 9.21333 374.824 9.06333 374.937 8.95C375.051 8.83 375.204 8.77 375.397 8.77C375.597 8.77 375.754 8.84 375.867 8.98C375.987 9.11333 376.047 9.30667 376.047 9.56C376.047 9.70667 376.031 9.86 375.997 10.02C375.971 10.18 375.921 10.3433 375.847 10.51C375.774 10.6767 375.667 10.8433 375.527 11.01ZM383.207 10.09C382.494 10.09 381.884 9.94333 381.377 9.65C380.871 9.35667 380.481 8.94 380.207 8.4C379.941 7.85333 379.807 7.21 379.807 6.47C379.807 5.91667 379.884 5.42 380.037 4.98C380.191 4.53333 380.411 4.15333 380.697 3.84C380.991 3.52 381.347 3.27667 381.767 3.11C382.194 2.94333 382.674 2.86 383.207 2.86C383.601 2.86 383.977 2.91333 384.337 3.02C384.704 3.12667 385.021 3.28 385.287 3.48C385.401 3.55333 385.474 3.64333 385.507 3.75C385.547 3.85 385.554 3.94667 385.527 4.04C385.507 4.13333 385.464 4.21333 385.397 4.28C385.331 4.34 385.244 4.37333 385.137 4.38C385.037 4.38667 384.927 4.35 384.807 4.27C384.587 4.10333 384.344 3.98 384.077 3.9C383.811 3.82 383.531 3.78 383.237 3.78C382.731 3.78 382.304 3.88667 381.957 4.1C381.611 4.30667 381.347 4.61 381.167 5.01C380.987 5.41 380.897 5.89667 380.897 6.47C380.897 7.04333 380.987 7.53333 381.167 7.94C381.347 8.34 381.611 8.64667 381.957 8.86C382.304 9.06667 382.731 9.17 383.237 9.17C383.531 9.17 383.811 9.13 384.077 9.05C384.351 8.96333 384.607 8.83667 384.847 8.67C384.967 8.59667 385.074 8.56333 385.167 8.57C385.267 8.57667 385.351 8.61 385.417 8.67C385.484 8.73 385.527 8.80667 385.547 8.9C385.574 8.98667 385.571 9.08 385.537 9.18C385.511 9.27333 385.447 9.35333 385.347 9.42C385.074 9.64 384.751 9.80667 384.377 9.92C384.004 10.0333 383.614 10.09 383.207 10.09ZM388.265 10.09C387.745 10.09 387.352 9.94 387.085 9.64C386.825 9.33333 386.695 8.89333 386.695 8.32V3.39C386.695 3.22333 386.738 3.09667 386.825 3.01C386.912 2.92333 387.035 2.88 387.195 2.88C387.355 2.88 387.478 2.92333 387.565 3.01C387.658 3.09667 387.705 3.22333 387.705 3.39V8.26C387.705 8.59333 387.772 8.84333 387.905 9.01C388.045 9.17 388.245 9.25 388.505 9.25C388.565 9.25 388.618 9.25 388.665 9.25C388.712 9.24333 388.758 9.23667 388.805 9.23C388.885 9.22333 388.942 9.24667 388.975 9.3C389.008 9.34667 389.025 9.44667 389.025 9.6C389.025 9.74 388.995 9.85 388.935 9.93C388.875 10.0033 388.778 10.05 388.645 10.07C388.585 10.0767 388.522 10.08 388.455 10.08C388.388 10.0867 388.325 10.09 388.265 10.09ZM391.823 10.09C391.329 10.09 390.903 9.98667 390.543 9.78C390.189 9.57333 389.913 9.28 389.713 8.9C389.513 8.52 389.413 8.07333 389.413 7.56C389.413 7.16667 389.469 6.81667 389.583 6.51C389.696 6.20333 389.856 5.94 390.063 5.72C390.276 5.49333 390.529 5.32333 390.823 5.21C391.123 5.09 391.456 5.03 391.823 5.03C392.309 5.03 392.729 5.13333 393.083 5.34C393.443 5.54667 393.723 5.84 393.923 6.22C394.123 6.59333 394.223 7.04 394.223 7.56C394.223 7.94667 394.166 8.29667 394.053 8.61C393.939 8.92333 393.776 9.19 393.563 9.41C393.356 9.63 393.103 9.8 392.803 9.92C392.509 10.0333 392.183 10.09 391.823 10.09ZM391.823 9.31C392.096 9.31 392.336 9.24333 392.543 9.11C392.749 8.97667 392.909 8.78 393.023 8.52C393.143 8.26 393.203 7.94 393.203 7.56C393.203 6.98667 393.076 6.55333 392.823 6.26C392.569 5.96667 392.236 5.82 391.823 5.82C391.543 5.82 391.299 5.88667 391.093 6.02C390.886 6.14667 390.723 6.34 390.603 6.6C390.489 6.86 390.433 7.18 390.433 7.56C390.433 8.12667 390.559 8.56 390.813 8.86C391.066 9.16 391.403 9.31 391.823 9.31ZM397.067 10.09C396.774 10.09 396.47 10.0567 396.157 9.99C395.85 9.92333 395.567 9.81 395.307 9.65C395.22 9.59 395.16 9.52333 395.127 9.45C395.094 9.37667 395.08 9.30333 395.087 9.23C395.1 9.15 395.13 9.08333 395.177 9.03C395.23 8.97 395.294 8.93333 395.367 8.92C395.447 8.90667 395.53 8.92333 395.617 8.97C395.877 9.11667 396.127 9.22 396.367 9.28C396.607 9.33333 396.844 9.36 397.077 9.36C397.43 9.36 397.697 9.29667 397.877 9.17C398.057 9.04333 398.147 8.87333 398.147 8.66C398.147 8.48667 398.087 8.35333 397.967 8.26C397.847 8.16 397.667 8.08333 397.427 8.03L396.477 7.84C396.064 7.75333 395.75 7.6 395.537 7.38C395.324 7.16 395.217 6.88 395.217 6.54C395.217 6.23333 395.3 5.96667 395.467 5.74C395.634 5.51333 395.867 5.34 396.167 5.22C396.467 5.09333 396.814 5.03 397.207 5.03C397.5 5.03 397.777 5.06667 398.037 5.14C398.297 5.21333 398.537 5.32333 398.757 5.47C398.844 5.51667 398.9 5.58 398.927 5.66C398.954 5.73333 398.957 5.80667 398.937 5.88C398.924 5.95333 398.89 6.02 398.837 6.08C398.784 6.13333 398.717 6.16667 398.637 6.18C398.564 6.18667 398.48 6.16667 398.387 6.12C398.187 5.99333 397.987 5.90333 397.787 5.85C397.594 5.79667 397.4 5.77 397.207 5.77C396.854 5.77 396.587 5.83667 396.407 5.97C396.234 6.09667 396.147 6.27 396.147 6.49C396.147 6.65667 396.2 6.79333 396.307 6.9C396.414 7.00667 396.58 7.08333 396.807 7.13L397.757 7.32C398.19 7.40667 398.517 7.55333 398.737 7.76C398.964 7.96667 399.077 8.24667 399.077 8.6C399.077 9.06 398.894 9.42333 398.527 9.69C398.16 9.95667 397.674 10.09 397.067 10.09ZM402.491 10.09C401.958 10.09 401.498 9.99 401.111 9.79C400.731 9.58333 400.434 9.29333 400.221 8.92C400.014 8.54 399.911 8.09 399.911 7.57C399.911 7.06333 400.014 6.62 400.221 6.24C400.428 5.86 400.711 5.56333 401.071 5.35C401.431 5.13667 401.841 5.03 402.301 5.03C402.641 5.03 402.944 5.08667 403.211 5.2C403.478 5.30667 403.704 5.46667 403.891 5.68C404.084 5.88667 404.228 6.14 404.321 6.44C404.421 6.74 404.471 7.07667 404.471 7.45C404.471 7.56333 404.438 7.65 404.371 7.71C404.304 7.76333 404.204 7.79 404.071 7.79H400.711V7.17H403.791L403.621 7.31C403.621 6.97667 403.571 6.69333 403.471 6.46C403.378 6.22667 403.234 6.05 403.041 5.93C402.854 5.80333 402.621 5.74 402.341 5.74C402.028 5.74 401.761 5.81333 401.541 5.96C401.328 6.10667 401.164 6.31 401.051 6.57C400.938 6.83 400.881 7.13333 400.881 7.48V7.54C400.881 8.12667 401.018 8.57 401.291 8.87C401.571 9.16333 401.974 9.31 402.501 9.31C402.701 9.31 402.911 9.28333 403.131 9.23C403.358 9.17667 403.571 9.08667 403.771 8.96C403.884 8.89333 403.984 8.86333 404.071 8.87C404.164 8.87667 404.238 8.90667 404.291 8.96C404.351 9.01333 404.388 9.08 404.401 9.16C404.414 9.24 404.401 9.32333 404.361 9.41C404.321 9.49 404.251 9.56333 404.151 9.63C403.924 9.78333 403.661 9.9 403.361 9.98C403.061 10.0533 402.771 10.09 402.491 10.09ZM407.432 10.09C407.005 10.09 406.629 9.99 406.302 9.79C405.982 9.58333 405.732 9.29 405.552 8.91C405.372 8.52333 405.282 8.07333 405.282 7.56C405.282 7.03333 405.372 6.58333 405.552 6.21C405.732 5.83667 405.982 5.54667 406.302 5.34C406.629 5.13333 407.005 5.03 407.432 5.03C407.859 5.03 408.225 5.13667 408.532 5.35C408.845 5.55667 409.055 5.83667 409.162 6.19H409.052V3.39C409.052 3.22333 409.095 3.09667 409.182 3.01C409.269 2.92333 409.392 2.88 409.552 2.88C409.712 2.88 409.835 2.92333 409.922 3.01C410.015 3.09667 410.062 3.22333 410.062 3.39V9.56C410.062 9.72 410.019 9.84667 409.932 9.94C409.845 10.0267 409.722 10.07 409.562 10.07C409.402 10.07 409.279 10.0267 409.192 9.94C409.105 9.84667 409.062 9.72 409.062 9.56V8.68L409.172 8.9C409.065 9.26 408.855 9.55 408.542 9.77C408.235 9.98333 407.865 10.09 407.432 10.09ZM407.692 9.31C407.965 9.31 408.205 9.24333 408.412 9.11C408.619 8.97667 408.779 8.78 408.892 8.52C409.012 8.26 409.072 7.94 409.072 7.56C409.072 6.98667 408.945 6.55333 408.692 6.26C408.439 5.96667 408.105 5.82 407.692 5.82C407.412 5.82 407.169 5.88667 406.962 6.02C406.755 6.14667 406.592 6.34 406.472 6.6C406.359 6.86 406.302 7.18 406.302 7.56C406.302 8.12667 406.429 8.56 406.682 8.86C406.935 9.16 407.272 9.31 407.692 9.31Z" fill="#BC4D4D"/>
<path fill-rule="evenodd" clip-rule="evenodd" d="M360.586 26.4257C356.768 26.9615 353.316 27.8359 349.976 29.4715C346.636 31.1072 343.128 33.3632 340.546 36.2396C337.963 39.1159 335.465 43.3176 334.482 46.7298C333.5 50.1419 334.259 53.3284 334.652 56.7124C335.045 60.0964 335.69 63.6782 336.841 67.0339C337.991 70.3895 339.704 73.7445 341.556 76.8463C343.408 79.9482 345.654 82.6274 347.955 85.6449C350.257 88.6624 353.26 92.4694 355.365 94.9511C357.47 97.4328 359.126 98.5894 360.586 100.535C362.045 102.481 363.084 104.059 364.122 106.625C365.161 109.191 366.368 113.168 366.817 115.932C367.266 118.695 367.013 120.303 366.817 123.207C366.62 126.112 365.919 130.454 365.638 133.359C365.358 136.263 364.6 138.294 365.133 140.634C365.666 142.975 367.07 146.105 368.838 147.402C370.606 148.7 372.991 148.474 375.742 148.418C378.493 148.361 381.946 148.191 385.342 147.063C388.739 145.935 392.836 143.821 396.12 141.65C399.404 139.478 402.604 136.433 405.046 134.036C407.489 131.64 408.948 129.553 410.772 127.268C412.597 124.984 414.253 122.755 415.993 120.33C417.733 117.905 419.838 115.34 421.214 112.717C422.589 110.094 423.767 107.217 424.244 104.595C424.721 101.972 424.525 99.6324 424.076 96.9817C423.627 94.331 422.504 91.4544 421.55 88.6907C420.595 85.9271 419.332 83.107 418.35 80.3998C417.368 77.6926 416.357 75.4087 415.656 72.4477C414.954 69.4868 414.477 65.3975 414.14 62.6339C413.803 59.8702 414.112 58.3754 413.635 55.8658C413.158 53.3563 412.793 50.4808 411.278 47.5763C409.762 44.6718 407.376 41.0333 404.541 38.4388C401.706 35.8444 397.664 33.6454 394.268 32.0097C390.872 30.3741 387.728 29.5838 384.164 28.625C380.599 27.6662 376.81 26.6235 372.88 26.257C368.95 25.8904 364.403 25.8899 360.586 26.4257Z" fill="#F5F99E" stroke="#BC4D4D" stroke-width="3"/>
<path d="M161.059 28.1299C160.153 30.5668 156.997 37.5329 155.626 42.7514C154.256 47.97 153.375 53.8043 152.837 59.4413C152.299 65.0782 152.03 70.9606 152.397 76.573C152.764 82.1853 153.619 87.7001 155.038 93.1155C156.457 98.5309 158.904 104.585 160.911 109.065C162.918 113.545 164.508 116.105 167.078 119.994C169.647 123.884 173.292 128.757 176.327 132.4C179.361 136.044 182.199 138.998 185.283 141.853C188.366 144.709 193.235 148.253 194.826 149.533" stroke="#BC4D4D" stroke-width="3" stroke-miterlimit="10" stroke-linejoin="round"/>
<path d="M123.17 10.09C122.863 10.09 122.563 10.0667 122.27 10.02C121.977 9.97333 121.7 9.90333 121.44 9.81C121.18 9.71 120.947 9.59 120.74 9.45C120.64 9.37667 120.57 9.29333 120.53 9.2C120.497 9.10667 120.487 9.01667 120.5 8.93C120.52 8.83667 120.56 8.75667 120.62 8.69C120.68 8.62333 120.753 8.58333 120.84 8.57C120.927 8.55 121.023 8.57667 121.13 8.65C121.43 8.84333 121.747 8.98667 122.08 9.08C122.413 9.16667 122.777 9.21 123.17 9.21C123.737 9.21 124.153 9.11 124.42 8.91C124.693 8.70333 124.83 8.43667 124.83 8.11C124.83 7.84333 124.733 7.63333 124.54 7.48C124.347 7.32 124.023 7.19333 123.57 7.1L122.5 6.88C121.867 6.74667 121.393 6.52667 121.08 6.22C120.773 5.91333 120.62 5.5 120.62 4.98C120.62 4.66667 120.683 4.38 120.81 4.12C120.943 3.86 121.127 3.63667 121.36 3.45C121.593 3.25667 121.873 3.11 122.2 3.01C122.527 2.91 122.883 2.86 123.27 2.86C123.683 2.86 124.07 2.91333 124.43 3.02C124.797 3.12667 125.123 3.29 125.41 3.51C125.497 3.57 125.553 3.64667 125.58 3.74C125.613 3.82667 125.62 3.91333 125.6 4C125.587 4.08667 125.55 4.16 125.49 4.22C125.43 4.28 125.353 4.31667 125.26 4.33C125.167 4.33667 125.063 4.30333 124.95 4.23C124.69 4.05667 124.423 3.93333 124.15 3.86C123.883 3.78 123.587 3.74 123.26 3.74C122.933 3.74 122.647 3.79 122.4 3.89C122.16 3.99 121.973 4.13 121.84 4.31C121.713 4.49 121.65 4.70333 121.65 4.95C121.65 5.23 121.74 5.45333 121.92 5.62C122.1 5.78667 122.4 5.91333 122.82 6L123.88 6.22C124.547 6.36 125.043 6.57667 125.37 6.87C125.697 7.16333 125.86 7.55333 125.86 8.04C125.86 8.35333 125.797 8.63667 125.67 8.89C125.543 9.13667 125.363 9.35 125.13 9.53C124.897 9.71 124.613 9.85 124.28 9.95C123.953 10.0433 123.583 10.09 123.17 10.09ZM127.431 10.06C127.271 10.06 127.147 10.0133 127.061 9.92C126.974 9.82 126.931 9.68333 126.931 9.51V5.61C126.931 5.43667 126.974 5.30333 127.061 5.21C127.147 5.11667 127.271 5.07 127.431 5.07C127.591 5.07 127.714 5.11667 127.801 5.21C127.894 5.30333 127.941 5.43667 127.941 5.61V9.51C127.941 9.68333 127.897 9.82 127.811 9.92C127.724 10.0133 127.597 10.06 127.431 10.06ZM127.431 4.03C127.231 4.03 127.074 3.98 126.961 3.88C126.854 3.78 126.801 3.64 126.801 3.46C126.801 3.27333 126.854 3.13333 126.961 3.04C127.074 2.94 127.231 2.89 127.431 2.89C127.631 2.89 127.784 2.94 127.891 3.04C128.004 3.13333 128.061 3.27333 128.061 3.46C128.061 3.64 128.004 3.78 127.891 3.88C127.784 3.98 127.631 4.03 127.431 4.03ZM129.882 10.07C129.722 10.07 129.599 10.0267 129.512 9.94C129.426 9.84667 129.382 9.72 129.382 9.56V5.56C129.382 5.39333 129.426 5.26667 129.512 5.18C129.599 5.09333 129.719 5.05 129.872 5.05C130.032 5.05 130.152 5.09333 130.232 5.18C130.319 5.26667 130.362 5.39333 130.362 5.56V6.38L130.252 6.16C130.386 5.80667 130.592 5.53 130.872 5.33C131.152 5.13 131.489 5.03 131.882 5.03C132.289 5.03 132.619 5.12667 132.872 5.32C133.126 5.51333 133.299 5.81 133.392 6.21H133.252C133.379 5.84333 133.596 5.55667 133.902 5.35C134.209 5.13667 134.566 5.03 134.972 5.03C135.346 5.03 135.652 5.10333 135.892 5.25C136.132 5.39 136.312 5.60667 136.432 5.9C136.552 6.18667 136.612 6.55 136.612 6.99V9.56C136.612 9.72 136.566 9.84667 136.472 9.94C136.386 10.0267 136.262 10.07 136.102 10.07C135.942 10.07 135.819 10.0267 135.732 9.94C135.646 9.84667 135.602 9.72 135.602 9.56V7.04C135.602 6.62667 135.529 6.32333 135.382 6.13C135.242 5.93667 135.009 5.84 134.682 5.84C134.316 5.84 134.026 5.96667 133.812 6.22C133.599 6.47333 133.492 6.82333 133.492 7.27V9.56C133.492 9.72 133.449 9.84667 133.362 9.94C133.276 10.0267 133.152 10.07 132.992 10.07C132.832 10.07 132.706 10.0267 132.612 9.94C132.526 9.84667 132.482 9.72 132.482 9.56V7.04C132.482 6.62667 132.412 6.32333 132.272 6.13C132.132 5.93667 131.899 5.84 131.572 5.84C131.206 5.84 130.916 5.96667 130.702 6.22C130.496 6.47333 130.392 6.82333 130.392 7.27V9.56C130.392 9.9 130.222 10.07 129.882 10.07ZM138.524 11.87C138.364 11.87 138.241 11.8267 138.154 11.74C138.068 11.6533 138.024 11.5267 138.024 11.36V5.56C138.024 5.39333 138.068 5.26667 138.154 5.18C138.241 5.09333 138.361 5.05 138.514 5.05C138.674 5.05 138.798 5.09333 138.884 5.18C138.971 5.26667 139.014 5.39333 139.014 5.56V6.43L138.904 6.22C139.011 5.86 139.221 5.57333 139.534 5.36C139.848 5.14 140.218 5.03 140.644 5.03C141.078 5.03 141.454 5.13333 141.774 5.34C142.101 5.54667 142.351 5.83667 142.524 6.21C142.704 6.58333 142.794 7.03333 142.794 7.56C142.794 8.07333 142.704 8.52333 142.524 8.91C142.351 9.29 142.104 9.58333 141.784 9.79C141.464 9.99 141.084 10.09 140.644 10.09C140.224 10.09 139.858 9.98333 139.544 9.77C139.231 9.55667 139.021 9.27333 138.914 8.92H139.034V11.36C139.034 11.5267 138.988 11.6533 138.894 11.74C138.808 11.8267 138.684 11.87 138.524 11.87ZM140.394 9.31C140.674 9.31 140.918 9.24333 141.124 9.11C141.331 8.97667 141.491 8.78 141.604 8.52C141.718 8.26 141.774 7.94 141.774 7.56C141.774 6.98667 141.648 6.55333 141.394 6.26C141.148 5.96667 140.814 5.82 140.394 5.82C140.121 5.82 139.878 5.88667 139.664 6.02C139.458 6.14667 139.298 6.34 139.184 6.6C139.071 6.86 139.014 7.18 139.014 7.56C139.014 8.12667 139.141 8.56 139.394 8.86C139.648 9.16 139.981 9.31 140.394 9.31ZM145.503 10.09C144.983 10.09 144.589 9.94 144.323 9.64C144.063 9.33333 143.933 8.89333 143.933 8.32V3.39C143.933 3.22333 143.976 3.09667 144.063 3.01C144.149 2.92333 144.273 2.88 144.433 2.88C144.593 2.88 144.716 2.92333 144.803 3.01C144.896 3.09667 144.943 3.22333 144.943 3.39V8.26C144.943 8.59333 145.009 8.84333 145.143 9.01C145.283 9.17 145.483 9.25 145.743 9.25C145.803 9.25 145.856 9.25 145.903 9.25C145.949 9.24333 145.996 9.23667 146.043 9.23C146.123 9.22333 146.179 9.24667 146.213 9.3C146.246 9.34667 146.263 9.44667 146.263 9.6C146.263 9.74 146.233 9.85 146.173 9.93C146.113 10.0033 146.016 10.05 145.883 10.07C145.823 10.0767 145.759 10.08 145.693 10.08C145.626 10.0867 145.563 10.09 145.503 10.09ZM149.23 10.09C148.697 10.09 148.237 9.99 147.85 9.79C147.47 9.58333 147.174 9.29333 146.96 8.92C146.754 8.54 146.65 8.09 146.65 7.57C146.65 7.06333 146.754 6.62 146.96 6.24C147.167 5.86 147.45 5.56333 147.81 5.35C148.17 5.13667 148.58 5.03 149.04 5.03C149.38 5.03 149.684 5.08667 149.95 5.2C150.217 5.30667 150.444 5.46667 150.63 5.68C150.824 5.88667 150.967 6.14 151.06 6.44C151.16 6.74 151.21 7.07667 151.21 7.45C151.21 7.56333 151.177 7.65 151.11 7.71C151.044 7.76333 150.944 7.79 150.81 7.79H147.45V7.17H150.53L150.36 7.31C150.36 6.97667 150.31 6.69333 150.21 6.46C150.117 6.22667 149.974 6.05 149.78 5.93C149.594 5.80333 149.36 5.74 149.08 5.74C148.767 5.74 148.5 5.81333 148.28 5.96C148.067 6.10667 147.904 6.31 147.79 6.57C147.677 6.83 147.62 7.13333 147.62 7.48V7.54C147.62 8.12667 147.757 8.57 148.03 8.87C148.31 9.16333 148.714 9.31 149.24 9.31C149.44 9.31 149.65 9.28333 149.87 9.23C150.097 9.17667 150.31 9.08667 150.51 8.96C150.624 8.89333 150.724 8.86333 150.81 8.87C150.904 8.87667 150.977 8.90667 151.03 8.96C151.09 9.01333 151.127 9.08 151.14 9.16C151.154 9.24 151.14 9.32333 151.1 9.41C151.06 9.49 150.99 9.56333 150.89 9.63C150.664 9.78333 150.4 9.9 150.1 9.98C149.8 10.0533 149.51 10.09 149.23 10.09ZM152.912 11.01C152.838 11.1033 152.758 11.1567 152.672 11.17C152.592 11.1833 152.522 11.1667 152.462 11.12C152.402 11.0733 152.368 11.0067 152.362 10.92C152.355 10.84 152.392 10.75 152.472 10.65C152.592 10.5033 152.672 10.35 152.712 10.19C152.758 10.0367 152.782 9.9 152.782 9.78L152.822 10.04C152.622 10.04 152.458 9.98333 152.332 9.87C152.212 9.75 152.152 9.59333 152.152 9.4C152.152 9.21333 152.208 9.06333 152.322 8.95C152.435 8.83 152.588 8.77 152.782 8.77C152.982 8.77 153.138 8.84 153.252 8.98C153.372 9.11333 153.432 9.30667 153.432 9.56C153.432 9.70667 153.415 9.86 153.382 10.02C153.355 10.18 153.305 10.3433 153.232 10.51C153.158 10.6767 153.052 10.8433 152.912 11.01ZM157.921 10.07C157.768 10.07 157.648 10.0267 157.561 9.94C157.475 9.85333 157.431 9.73 157.431 9.57V3.4C157.431 3.23333 157.471 3.10667 157.551 3.02C157.638 2.92667 157.751 2.88 157.891 2.88C158.011 2.88 158.101 2.90333 158.161 2.95C158.228 2.99 158.305 3.06667 158.391 3.18L162.511 8.61H162.261V3.37C162.261 3.21667 162.301 3.09667 162.381 3.01C162.468 2.92333 162.588 2.88 162.741 2.88C162.901 2.88 163.021 2.92333 163.101 3.01C163.181 3.09667 163.221 3.21667 163.221 3.37V9.58C163.221 9.73333 163.181 9.85333 163.101 9.94C163.028 10.0267 162.928 10.07 162.801 10.07C162.681 10.07 162.581 10.0467 162.501 10C162.428 9.95333 162.348 9.87333 162.261 9.76L158.161 4.34H158.391V9.57C158.391 9.73 158.351 9.85333 158.271 9.94C158.191 10.0267 158.075 10.07 157.921 10.07ZM166.873 10.09C166.38 10.09 165.953 9.98667 165.593 9.78C165.24 9.57333 164.963 9.28 164.763 8.9C164.563 8.52 164.463 8.07333 164.463 7.56C164.463 7.16667 164.52 6.81667 164.633 6.51C164.746 6.20333 164.906 5.94 165.113 5.72C165.326 5.49333 165.58 5.32333 165.873 5.21C166.173 5.09 166.506 5.03 166.873 5.03C167.36 5.03 167.78 5.13333 168.133 5.34C168.493 5.54667 168.773 5.84 168.973 6.22C169.173 6.59333 169.273 7.04 169.273 7.56C169.273 7.94667 169.216 8.29667 169.103 8.61C168.99 8.92333 168.826 9.19 168.613 9.41C168.406 9.63 168.153 9.8 167.853 9.92C167.56 10.0333 167.233 10.09 166.873 10.09ZM166.873 9.31C167.146 9.31 167.386 9.24333 167.593 9.11C167.8 8.97667 167.96 8.78 168.073 8.52C168.193 8.26 168.253 7.94 168.253 7.56C168.253 6.98667 168.126 6.55333 167.873 6.26C167.62 5.96667 167.286 5.82 166.873 5.82C166.593 5.82 166.35 5.88667 166.143 6.02C165.936 6.14667 165.773 6.34 165.653 6.6C165.54 6.86 165.483 7.18 165.483 7.56C165.483 8.12667 165.61 8.56 165.863 8.86C166.116 9.16 166.453 9.31 166.873 9.31ZM172.438 10.09C172.038 10.09 171.702 10.02 171.428 9.88C171.155 9.74 170.952 9.53333 170.818 9.26C170.685 8.98667 170.618 8.65333 170.618 8.26V5.9H170.018C169.885 5.9 169.782 5.86667 169.708 5.8C169.635 5.72667 169.598 5.63 169.598 5.51C169.598 5.38333 169.635 5.28667 169.708 5.22C169.782 5.15333 169.885 5.12 170.018 5.12H170.618V4.09C170.618 3.92333 170.662 3.79667 170.748 3.71C170.842 3.62333 170.968 3.58 171.128 3.58C171.288 3.58 171.412 3.62333 171.498 3.71C171.585 3.79667 171.628 3.92333 171.628 4.09V5.12H172.798C172.932 5.12 173.035 5.15333 173.108 5.22C173.182 5.28667 173.218 5.38333 173.218 5.51C173.218 5.63 173.182 5.72667 173.108 5.8C173.035 5.86667 172.932 5.9 172.798 5.9H171.628V8.18C171.628 8.53333 171.702 8.8 171.848 8.98C172.002 9.16 172.248 9.25 172.588 9.25C172.708 9.25 172.812 9.24 172.898 9.22C172.992 9.19333 173.068 9.17667 173.128 9.17C173.202 9.17 173.262 9.19667 173.308 9.25C173.355 9.29667 173.378 9.39 173.378 9.53C173.378 9.63 173.358 9.72333 173.318 9.81C173.285 9.89667 173.222 9.95333 173.128 9.98C173.048 10.0067 172.938 10.03 172.798 10.05C172.665 10.0767 172.545 10.09 172.438 10.09ZM179.918 10.09C179.204 10.09 178.594 9.94333 178.088 9.65C177.581 9.35667 177.191 8.94 176.918 8.4C176.651 7.85333 176.518 7.21 176.518 6.47C176.518 5.91667 176.594 5.42 176.748 4.98C176.901 4.53333 177.121 4.15333 177.407 3.84C177.701 3.52 178.058 3.27667 178.478 3.11C178.904 2.94333 179.384 2.86 179.918 2.86C180.311 2.86 180.688 2.91333 181.048 3.02C181.414 3.12667 181.731 3.28 181.998 3.48C182.111 3.55333 182.184 3.64333 182.218 3.75C182.258 3.85 182.264 3.94667 182.238 4.04C182.218 4.13333 182.174 4.21333 182.108 4.28C182.041 4.34 181.954 4.37333 181.848 4.38C181.748 4.38667 181.638 4.35 181.518 4.27C181.298 4.10333 181.054 3.98 180.788 3.9C180.521 3.82 180.241 3.78 179.948 3.78C179.441 3.78 179.014 3.88667 178.668 4.1C178.321 4.30667 178.058 4.61 177.878 5.01C177.698 5.41 177.608 5.89667 177.608 6.47C177.608 7.04333 177.698 7.53333 177.878 7.94C178.058 8.34 178.321 8.64667 178.668 8.86C179.014 9.06667 179.441 9.17 179.948 9.17C180.241 9.17 180.521 9.13 180.788 9.05C181.061 8.96333 181.318 8.83667 181.558 8.67C181.678 8.59667 181.784 8.56333 181.878 8.57C181.978 8.57667 182.061 8.61 182.128 8.67C182.194 8.73 182.238 8.80667 182.258 8.9C182.284 8.98667 182.281 9.08 182.248 9.18C182.221 9.27333 182.158 9.35333 182.058 9.42C181.784 9.64 181.461 9.80667 181.088 9.92C180.714 10.0333 180.324 10.09 179.918 10.09ZM184.975 10.09C184.455 10.09 184.062 9.94 183.795 9.64C183.535 9.33333 183.405 8.89333 183.405 8.32V3.39C183.405 3.22333 183.449 3.09667 183.535 3.01C183.622 2.92333 183.745 2.88 183.905 2.88C184.065 2.88 184.189 2.92333 184.275 3.01C184.369 3.09667 184.415 3.22333 184.415 3.39V8.26C184.415 8.59333 184.482 8.84333 184.615 9.01C184.755 9.17 184.955 9.25 185.215 9.25C185.275 9.25 185.329 9.25 185.375 9.25C185.422 9.24333 185.469 9.23667 185.515 9.23C185.595 9.22333 185.652 9.24667 185.685 9.3C185.719 9.34667 185.735 9.44667 185.735 9.6C185.735 9.74 185.705 9.85 185.645 9.93C185.585 10.0033 185.489 10.05 185.355 10.07C185.295 10.0767 185.232 10.08 185.165 10.08C185.099 10.0867 185.035 10.09 184.975 10.09ZM188.533 10.09C188.04 10.09 187.613 9.98667 187.253 9.78C186.9 9.57333 186.623 9.28 186.423 8.9C186.223 8.52 186.123 8.07333 186.123 7.56C186.123 7.16667 186.18 6.81667 186.293 6.51C186.406 6.20333 186.566 5.94 186.773 5.72C186.986 5.49333 187.24 5.32333 187.533 5.21C187.833 5.09 188.166 5.03 188.533 5.03C189.02 5.03 189.44 5.13333 189.793 5.34C190.153 5.54667 190.433 5.84 190.633 6.22C190.833 6.59333 190.933 7.04 190.933 7.56C190.933 7.94667 190.876 8.29667 190.763 8.61C190.65 8.92333 190.486 9.19 190.273 9.41C190.066 9.63 189.813 9.8 189.513 9.92C189.22 10.0333 188.893 10.09 188.533 10.09ZM188.533 9.31C188.806 9.31 189.046 9.24333 189.253 9.11C189.46 8.97667 189.62 8.78 189.733 8.52C189.853 8.26 189.913 7.94 189.913 7.56C189.913 6.98667 189.786 6.55333 189.533 6.26C189.28 5.96667 188.946 5.82 188.533 5.82C188.253 5.82 188.01 5.88667 187.803 6.02C187.596 6.14667 187.433 6.34 187.313 6.6C187.2 6.86 187.143 7.18 187.143 7.56C187.143 8.12667 187.27 8.56 187.523 8.86C187.776 9.16 188.113 9.31 188.533 9.31ZM193.777 10.09C193.484 10.09 193.181 10.0567 192.867 9.99C192.561 9.92333 192.277 9.81 192.017 9.65C191.931 9.59 191.871 9.52333 191.837 9.45C191.804 9.37667 191.791 9.30333 191.797 9.23C191.811 9.15 191.841 9.08333 191.887 9.03C191.941 8.97 192.004 8.93333 192.077 8.92C192.157 8.90667 192.241 8.92333 192.327 8.97C192.587 9.11667 192.837 9.22 193.077 9.28C193.317 9.33333 193.554 9.36 193.787 9.36C194.141 9.36 194.407 9.29667 194.587 9.17C194.767 9.04333 194.857 8.87333 194.857 8.66C194.857 8.48667 194.797 8.35333 194.677 8.26C194.557 8.16 194.377 8.08333 194.137 8.03L193.187 7.84C192.774 7.75333 192.461 7.6 192.247 7.38C192.034 7.16 191.927 6.88 191.927 6.54C191.927 6.23333 192.011 5.96667 192.177 5.74C192.344 5.51333 192.577 5.34 192.877 5.22C193.177 5.09333 193.524 5.03 193.917 5.03C194.211 5.03 194.487 5.06667 194.747 5.14C195.007 5.21333 195.247 5.32333 195.467 5.47C195.554 5.51667 195.611 5.58 195.637 5.66C195.664 5.73333 195.667 5.80667 195.647 5.88C195.634 5.95333 195.601 6.02 195.547 6.08C195.494 6.13333 195.427 6.16667 195.347 6.18C195.274 6.18667 195.191 6.16667 195.097 6.12C194.897 5.99333 194.697 5.90333 194.497 5.85C194.304 5.79667 194.111 5.77 193.917 5.77C193.564 5.77 193.297 5.83667 193.117 5.97C192.944 6.09667 192.857 6.27 192.857 6.49C192.857 6.65667 192.911 6.79333 193.017 6.9C193.124 7.00667 193.291 7.08333 193.517 7.13L194.467 7.32C194.901 7.40667 195.227 7.55333 195.447 7.76C195.674 7.96667 195.787 8.24667 195.787 8.6C195.787 9.06 195.604 9.42333 195.237 9.69C194.871 9.95667 194.384 10.09 193.777 10.09ZM199.201 10.09C198.668 10.09 198.208 9.99 197.821 9.79C197.441 9.58333 197.145 9.29333 196.931 8.92C196.725 8.54 196.621 8.09 196.621 7.57C196.621 7.06333 196.725 6.62 196.931 6.24C197.138 5.86 197.421 5.56333 197.781 5.35C198.141 5.13667 198.551 5.03 199.011 5.03C199.351 5.03 199.655 5.08667 199.921 5.2C200.188 5.30667 200.415 5.46667 200.601 5.68C200.795 5.88667 200.938 6.14 201.031 6.44C201.131 6.74 201.181 7.07667 201.181 7.45C201.181 7.56333 201.148 7.65 201.081 7.71C201.015 7.76333 200.915 7.79 200.781 7.79H197.421V7.17H200.501L200.331 7.31C200.331 6.97667 200.281 6.69333 200.181 6.46C200.088 6.22667 199.945 6.05 199.751 5.93C199.565 5.80333 199.331 5.74 199.051 5.74C198.738 5.74 198.471 5.81333 198.251 5.96C198.038 6.10667 197.875 6.31 197.761 6.57C197.648 6.83 197.591 7.13333 197.591 7.48V7.54C197.591 8.12667 197.728 8.57 198.001 8.87C198.281 9.16333 198.685 9.31 199.211 9.31C199.411 9.31 199.621 9.28333 199.841 9.23C200.068 9.17667 200.281 9.08667 200.481 8.96C200.595 8.89333 200.695 8.86333 200.781 8.87C200.875 8.87667 200.948 8.90667 201.001 8.96C201.061 9.01333 201.098 9.08 201.111 9.16C201.125 9.24 201.111 9.32333 201.071 9.41C201.031 9.49 200.961 9.56333 200.861 9.63C200.635 9.78333 200.371 9.9 200.071 9.98C199.771 10.0533 199.481 10.09 199.201 10.09ZM204.142 10.09C203.716 10.09 203.339 9.99 203.012 9.79C202.692 9.58333 202.442 9.29 202.262 8.91C202.082 8.52333 201.992 8.07333 201.992 7.56C201.992 7.03333 202.082 6.58333 202.262 6.21C202.442 5.83667 202.692 5.54667 203.012 5.34C203.339 5.13333 203.716 5.03 204.142 5.03C204.569 5.03 204.936 5.13667 205.242 5.35C205.556 5.55667 205.766 5.83667 205.872 6.19H205.762V3.39C205.762 3.22333 205.806 3.09667 205.892 3.01C205.979 2.92333 206.102 2.88 206.262 2.88C206.422 2.88 206.546 2.92333 206.632 3.01C206.726 3.09667 206.772 3.22333 206.772 3.39V9.56C206.772 9.72 206.729 9.84667 206.642 9.94C206.556 10.0267 206.432 10.07 206.272 10.07C206.112 10.07 205.989 10.0267 205.902 9.94C205.816 9.84667 205.772 9.72 205.772 9.56V8.68L205.882 8.9C205.776 9.26 205.566 9.55 205.252 9.77C204.946 9.98333 204.576 10.09 204.142 10.09ZM204.402 9.31C204.676 9.31 204.916 9.24333 205.122 9.11C205.329 8.97667 205.489 8.78 205.602 8.52C205.722 8.26 205.782 7.94 205.782 7.56C205.782 6.98667 205.656 6.55333 205.402 6.26C205.149 5.96667 204.816 5.82 204.402 5.82C204.122 5.82 203.879 5.88667 203.672 6.02C203.466 6.14667 203.302 6.34 203.182 6.6C203.069 6.86 203.012 7.18 203.012 7.56C203.012 8.12667 203.139 8.56 203.392 8.86C203.646 9.16 203.982 9.31 204.402 9.31Z" fill="#BC4D4D"/>
</svg>
