<svg width="228" height="99" viewBox="0 0 228 99" fill="none" xmlns="http://www.w3.org/2000/svg">
<rect x="0.5" y="-0.5" width="44.9257" height="23.8247" rx="3.5" transform="matrix(1 0 0 -1 35.9958 82.1628)" fill="#F5F99E"/>
<rect x="0.5" y="-0.5" width="44.9257" height="23.8247" rx="3.5" transform="matrix(1 0 0 -1 35.9958 82.1628)" stroke="#BC4D4D"/>
<path d="M47.2973 72.815C47.2973 73.0596 47.3936 73.1819 47.5863 73.1819C47.8716 73.1819 48.1144 72.7928 48.3148 72.0144C48.3611 71.8661 48.3996 71.7883 48.4305 71.7809C48.4459 71.7735 48.4844 71.7698 48.5461 71.7698H48.5923C48.6617 71.7698 48.708 71.7698 48.7311 71.7698C48.7542 71.7698 48.7735 71.7772 48.7889 71.792C48.8043 71.8068 48.812 71.8328 48.812 71.8698C48.8043 71.9143 48.7928 71.9736 48.7773 72.0478C48.7619 72.1219 48.7195 72.2627 48.6502 72.4703C48.5808 72.6779 48.5037 72.8521 48.4189 72.9929C48.3341 73.1337 48.2146 73.2709 48.0604 73.4043C47.9063 73.5378 47.729 73.6008 47.5285 73.5933C47.251 73.5933 46.9928 73.5118 46.7538 73.3487C46.5148 73.1856 46.3915 72.9114 46.3838 72.5259C46.3838 72.4369 46.3876 72.3739 46.3954 72.3369L47.147 69.4681C47.6326 67.5778 47.8754 66.603 47.8754 66.5437C47.8754 66.5214 47.8716 66.5029 47.8639 66.4881C47.8562 66.4733 47.8407 66.4584 47.8176 66.4436C47.7945 66.4288 47.7752 66.4214 47.7598 66.4214C47.7444 66.4214 47.7135 66.4177 47.6673 66.4102C47.621 66.4028 47.5902 66.3991 47.5748 66.3991C47.5594 66.3991 47.5247 66.3954 47.4707 66.388C47.4168 66.3806 47.3782 66.3806 47.3551 66.388C47.278 66.388 47.2279 66.388 47.2048 66.388C47.1816 66.388 47.1508 66.3843 47.1123 66.3769C47.0737 66.3695 47.0506 66.3584 47.0429 66.3435C47.0352 66.3287 47.0313 66.3065 47.0313 66.2768C47.0313 66.262 47.039 66.2101 47.0544 66.1211C47.093 65.9803 47.1354 65.9025 47.1816 65.8876C47.2279 65.8728 47.5054 65.8506 48.0142 65.8209C48.1298 65.8135 48.2609 65.8061 48.4073 65.7987C48.5538 65.7913 48.6694 65.7801 48.7542 65.7653C48.839 65.7505 48.8814 65.7468 48.8814 65.7542C48.9739 65.7542 49.0202 65.7839 49.0202 65.8432C49.0202 65.9247 48.7388 67.0366 48.1761 69.179C47.6133 71.3213 47.3243 72.4443 47.3088 72.5481C47.3088 72.563 47.3088 72.5926 47.3088 72.6371C47.3088 72.6816 47.305 72.7186 47.2973 72.7483V72.815Z" fill="#BC4D4D"/>
<path d="M49.7717 71.7252C49.7717 70.9765 50.0647 70.2649 50.6505 69.5903C51.2364 68.9157 51.8955 68.5747 52.6278 68.5673C53.021 68.5673 53.3678 68.7489 53.6685 69.1122C53.7918 68.8898 53.9691 68.7786 54.2004 68.7786C54.3006 68.7786 54.3893 68.8082 54.4663 68.8675C54.5434 68.9269 54.582 69.001 54.582 69.0899C54.582 69.1863 54.4394 69.7793 54.1541 70.869C53.8689 71.9587 53.7224 72.574 53.7147 72.7148C53.7147 72.9002 53.7417 73.0225 53.7957 73.0818C53.8496 73.1411 53.9306 73.1744 54.0385 73.1819C54.1079 73.1744 54.185 73.1411 54.2698 73.0818C54.4317 72.9335 54.5897 72.5777 54.7439 72.0143C54.7901 71.8661 54.8286 71.7882 54.8595 71.7808C54.8749 71.7734 54.9134 71.7697 54.9751 71.7697H55.0214C55.1678 71.7697 55.2411 71.8031 55.2411 71.8698C55.2411 71.9143 55.2218 72.0143 55.1833 72.17C55.1447 72.3257 55.0676 72.5258 54.952 72.7704C54.8364 73.0151 54.713 73.2004 54.582 73.3264C54.4818 73.4228 54.3584 73.5006 54.212 73.5599C54.1503 73.5747 54.0578 73.5822 53.9344 73.5822C53.6723 73.5822 53.4526 73.5266 53.2753 73.4154C53.098 73.3042 52.9824 73.1893 52.9284 73.0707L52.8591 72.9039C52.8514 72.8965 52.8359 72.9002 52.8128 72.915C52.7974 72.9298 52.782 72.9446 52.7666 72.9595C52.3118 73.3746 51.8492 73.5822 51.379 73.5822C50.955 73.5822 50.5811 73.4339 50.2574 73.1374C49.9336 72.8409 49.7717 72.3701 49.7717 71.7252ZM53.4488 69.8238C53.4488 69.7793 53.4295 69.6978 53.391 69.5792C53.3524 69.4606 53.2638 69.3309 53.125 69.19C52.9863 69.0492 52.809 68.975 52.5931 68.9676C52.3233 68.9676 52.0651 69.0825 51.8184 69.3123C51.5717 69.5421 51.379 69.8423 51.2402 70.213C51.0167 70.7986 50.8587 71.4065 50.7662 72.0366C50.7662 72.0588 50.7662 72.0996 50.7662 72.1589C50.7662 72.2182 50.7623 72.2627 50.7546 72.2923C50.7546 72.6259 50.824 72.8557 50.9627 72.9817C51.1015 73.1077 51.2672 73.1744 51.4599 73.1819C51.7529 73.1819 52.0419 73.0595 52.3272 72.8149C52.6124 72.5703 52.782 72.3813 52.8359 72.2478C52.8514 72.2182 52.9554 71.8216 53.1481 71.0581C53.3409 70.2945 53.4411 69.8831 53.4488 69.8238Z" fill="#BC4D4D"/>
<path d="M55.75 70.2798C55.75 70.176 55.8078 69.9981 55.9234 69.746C56.0391 69.494 56.2241 69.2308 56.4785 68.9566C56.7329 68.6823 57.0181 68.5489 57.3341 68.5563C57.6502 68.5563 57.9046 68.6415 58.0973 68.812C58.29 68.9825 58.3902 69.2197 58.3979 69.5237C58.3825 69.6645 58.371 69.7423 58.3633 69.7572C58.3633 69.7794 58.3016 69.9499 58.1782 70.2686C58.0549 70.5874 57.9277 70.9469 57.7967 71.3472C57.6656 71.7475 57.6039 72.0663 57.6117 72.3035C57.6117 72.6222 57.6656 72.8446 57.7735 72.9707C57.8815 73.0967 58.0433 73.1634 58.2592 73.1708C58.4365 73.1708 58.6022 73.13 58.7564 73.0485C58.9106 72.9669 59.0301 72.8817 59.1149 72.7927C59.1997 72.7038 59.3037 72.5815 59.4271 72.4258C59.4271 72.4184 59.4463 72.3443 59.4849 72.2034C59.5234 72.0626 59.5774 71.8439 59.6468 71.5474C59.7161 71.2509 59.7894 70.9766 59.8665 70.7245C60.1594 69.6126 60.3213 69.0307 60.3521 68.9788C60.4523 68.7787 60.6181 68.6786 60.8493 68.6786C60.9495 68.6786 61.0305 68.7045 61.0921 68.7564C61.1538 68.8083 61.1962 68.8528 61.2193 68.8898C61.2425 68.9269 61.2502 68.9603 61.2425 68.9899C61.2425 69.0863 61.0536 69.8646 60.6759 71.325C60.2981 72.7853 60.0823 73.5859 60.0283 73.7268C59.8125 74.342 59.4386 74.8313 58.9067 75.1945C58.3748 75.5578 57.8429 75.7431 57.311 75.7505C56.9641 75.7505 56.6596 75.6689 56.3975 75.5059C56.1354 75.3428 56.0044 75.0982 56.0044 74.772C56.0044 74.6089 56.0314 74.4718 56.0853 74.3606C56.1393 74.2494 56.2125 74.1678 56.305 74.1159C56.3975 74.0641 56.4746 74.027 56.5363 74.0048C56.598 73.9825 56.6635 73.9714 56.7329 73.9714C57.072 73.9714 57.2416 74.1271 57.2416 74.4384C57.2416 74.5867 57.1954 74.7164 57.1029 74.8276C57.0104 74.9388 56.9217 75.0129 56.8369 75.05C56.7521 75.087 56.702 75.1056 56.6866 75.1056L56.6519 75.1167C56.6673 75.1537 56.7406 75.1982 56.8716 75.2501C57.0027 75.302 57.1337 75.328 57.2648 75.328H57.3573C57.4883 75.328 57.5885 75.3205 57.6579 75.3057C57.9123 75.239 58.1474 75.0982 58.3633 74.8832C58.5791 74.6682 58.7448 74.4384 58.8605 74.1938C58.9761 73.9492 59.0648 73.7416 59.1264 73.5711C59.1881 73.4006 59.2189 73.2894 59.2189 73.2375L59.1495 73.282C59.1033 73.3116 59.0301 73.3524 58.9298 73.4043C58.8296 73.4562 58.7294 73.5007 58.6292 73.5377C58.475 73.5748 58.3247 73.5933 58.1782 73.5933C57.8236 73.5933 57.5114 73.5118 57.2416 73.3487C56.9718 73.1856 56.7945 72.9225 56.7097 72.5592C56.702 72.5073 56.6982 72.3924 56.6982 72.2145C56.6982 71.792 56.8331 71.2397 57.1029 70.5578C57.3727 69.8758 57.5076 69.4421 57.5076 69.2568C57.5076 69.2494 57.5076 69.242 57.5076 69.2345C57.5076 69.1678 57.5076 69.1234 57.5076 69.1011C57.5076 69.0789 57.4922 69.0529 57.4613 69.0233C57.4305 68.9936 57.3881 68.9788 57.3341 68.9788H57.2879C57.1106 68.9788 56.9487 69.0492 56.8022 69.1901C56.6558 69.3309 56.5401 69.4829 56.4553 69.646C56.3706 69.809 56.305 69.9647 56.2588 70.113C56.2125 70.2612 56.1817 70.3428 56.1663 70.3576C56.1509 70.3724 56.0892 70.3798 55.9813 70.3798H55.8194C55.7731 70.3354 55.75 70.302 55.75 70.2798Z" fill="#BC4D4D"/>
<path d="M61.624 71.603C61.624 71.1805 61.6973 70.795 61.8437 70.4466C61.9902 70.0982 62.1791 69.8091 62.4103 69.5793C62.6416 69.3495 62.8998 69.1568 63.185 69.0011C63.4703 68.8454 63.7401 68.7305 63.9945 68.6564C64.2488 68.5823 64.4917 68.5489 64.7229 68.5563H64.7576C65.1045 68.5563 65.4052 68.6379 65.6595 68.8009C65.9139 68.964 66.0411 69.2049 66.0411 69.5237C66.0411 70.1909 65.6133 70.6282 64.7576 70.8358C64.3799 70.9322 63.8634 70.984 63.2082 70.9915C62.9229 70.9915 62.7765 70.9989 62.7688 71.0137C62.7688 71.0285 62.7456 71.1582 62.6994 71.4029C62.6531 71.6475 62.6262 71.8625 62.6184 72.0478C62.6184 72.3962 62.6994 72.6705 62.8613 72.8706C63.0232 73.0708 63.266 73.1746 63.5897 73.182C63.9135 73.1894 64.272 73.119 64.6651 72.9707C65.0583 72.8224 65.4129 72.5778 65.7289 72.2368C65.7983 72.1627 65.8445 72.1256 65.8677 72.1256C65.8985 72.1256 65.9486 72.159 66.018 72.2257C66.0874 72.2924 66.1259 72.3443 66.1336 72.3814C66.1413 72.4184 66.1066 72.4777 66.0296 72.5593C65.9525 72.6408 65.8368 72.7409 65.6827 72.8595C65.5285 72.9781 65.3512 73.093 65.1508 73.2042C64.9503 73.3154 64.7075 73.4081 64.4223 73.4822C64.1371 73.5563 63.8441 73.5934 63.5435 73.5934C62.9345 73.5934 62.4643 73.3969 62.1328 73.0041C61.8013 72.6112 61.6317 72.1442 61.624 71.603ZM65.4861 69.5459C65.4398 69.1605 65.1777 68.9677 64.6998 68.9677C64.4454 68.9677 64.2103 69.0196 63.9945 69.1234C63.7786 69.2272 63.6052 69.3532 63.4741 69.5015C63.3431 69.6497 63.2313 69.8017 63.1388 69.9574C63.0463 70.113 62.9846 70.2465 62.9538 70.3577C62.9229 70.4688 62.9037 70.5393 62.896 70.5689C62.896 70.5763 62.973 70.58 63.1272 70.58C63.9983 70.58 64.6073 70.4911 64.9542 70.3132C65.3011 70.1353 65.4784 69.8795 65.4861 69.5459Z" fill="#BC4D4D"/>
<path d="M66.8042 70.2798C66.8119 70.2576 66.8196 70.2279 66.8273 70.1909C66.835 70.1538 66.8543 70.0723 66.8851 69.9462C66.916 69.8202 66.9545 69.7053 67.0008 69.6015C67.047 69.4978 67.1048 69.3754 67.1742 69.2346C67.2436 69.0938 67.3207 68.9826 67.4055 68.901C67.4903 68.8195 67.5905 68.7379 67.7061 68.6564C67.8218 68.5748 67.9489 68.5415 68.0877 68.5563C68.3113 68.5563 68.5078 68.6008 68.6774 68.6897C68.847 68.7787 68.9665 68.8602 69.0359 68.9344C69.1053 69.0085 69.1477 69.0826 69.1631 69.1568C69.1785 69.2012 69.19 69.2235 69.1978 69.2235C69.2055 69.2235 69.2363 69.1975 69.2903 69.1456C69.6603 68.7602 70.0881 68.5674 70.5738 68.5674H70.6085C70.9785 68.5674 71.256 68.7194 71.441 69.0233C71.5027 69.1642 71.5335 69.3013 71.5335 69.4347C71.5335 69.6571 71.4834 69.835 71.3832 69.9685C71.283 70.1019 71.1828 70.1872 71.0825 70.2242C70.9823 70.2613 70.886 70.2761 70.7935 70.2687C70.6393 70.2687 70.5159 70.2279 70.4234 70.1464C70.3309 70.0648 70.2847 69.9574 70.2847 69.8239C70.2847 69.4681 70.5005 69.2309 70.9322 69.1123C70.7626 69.0159 70.6239 68.9677 70.5159 68.9677C70.0843 68.9677 69.6873 69.242 69.325 69.7906C69.2479 69.9092 69.19 70.0315 69.1515 70.1575C69.113 70.2835 68.9819 70.7765 68.7584 71.6364C68.4963 72.6742 68.3459 73.2264 68.3074 73.2932C68.2072 73.4933 68.0414 73.5934 67.8102 73.5934C67.71 73.5934 67.629 73.5711 67.5674 73.5267C67.5057 73.4822 67.4633 73.4377 67.4402 73.3932C67.417 73.3488 67.4093 73.3117 67.417 73.282C67.417 73.1857 67.5712 72.5482 67.8796 71.3695C68.1879 70.1909 68.3421 69.5348 68.3421 69.4014C68.3421 69.1123 68.2419 68.9677 68.0414 68.9677C67.8796 68.9677 67.7408 69.0715 67.6252 69.2791C67.5095 69.4866 67.417 69.7127 67.3477 69.9574C67.2783 70.202 67.2359 70.3354 67.2205 70.3577C67.2051 70.3725 67.1434 70.3799 67.0355 70.3799H66.8736C66.8273 70.3354 66.8042 70.3021 66.8042 70.2798Z" fill="#BC4D4D"/>
<circle cx="117.917" cy="70.7505" r="9.42989" fill="#F5F99E" stroke="#BC4D4D"/>
<path d="M111.711 71.0025C111.711 71.0025 111.711 70.9216 111.711 70.7598C111.711 70.5981 111.798 70.4736 111.972 70.3865H117.545V67.5867L117.563 64.7869C117.688 64.6252 117.806 64.5443 117.917 64.5443C118.079 64.5443 118.203 64.6376 118.29 64.8243V70.3865H123.844C124.03 70.4861 124.124 70.6105 124.124 70.7598C124.124 70.9091 124.03 71.0336 123.844 71.1331H118.29V76.6954C118.191 76.8696 118.079 76.9567 117.955 76.9567H117.917H117.88C117.731 76.9567 117.619 76.8696 117.545 76.6954V71.1331H111.972C111.798 71.046 111.711 70.9216 111.711 70.7598V71.0025Z" fill="#BC4D4D"/>
<path d="M111.711 70.7598C111.711 70.9216 111.711 71.0025 111.711 71.0025V70.7598ZM111.711 70.7598C111.711 70.5981 111.798 70.4736 111.972 70.3865H117.545V67.5867L117.563 64.7869C117.688 64.6252 117.806 64.5443 117.917 64.5443C118.079 64.5443 118.203 64.6376 118.29 64.8243V70.3865H123.844C124.03 70.4861 124.124 70.6105 124.124 70.7598C124.124 70.9091 124.03 71.0336 123.844 71.1331H118.29V76.6954C118.191 76.8696 118.079 76.9567 117.955 76.9567H117.917H117.88C117.731 76.9567 117.619 76.8696 117.545 76.6954V71.1331H111.972C111.798 71.046 111.711 70.9216 111.711 70.7598Z" stroke="#BC4D4D" stroke-width="0.75"/>
<path d="M0.346629 68.8759C0.441782 68.3104 0.8088 67.6573 1.44768 66.9167C2.08657 66.176 2.87498 65.799 3.81292 65.7855C4.28868 65.7855 4.72367 65.9067 5.11787 66.1491C5.51208 66.3915 5.80433 66.6945 5.99464 67.058C6.56555 66.2097 7.25202 65.7855 8.05402 65.7855C8.55697 65.7855 8.99196 65.9337 9.35897 66.2299C9.72599 66.5261 9.9163 66.9234 9.92989 67.4216C9.92989 67.8121 9.83474 68.1286 9.64443 68.371C9.45413 68.6133 9.27062 68.7615 9.09391 68.8153C8.91719 68.8692 8.76087 68.8961 8.62494 68.8961C8.36666 68.8961 8.15597 68.8221 7.99285 68.6739C7.82973 68.5258 7.74817 68.3306 7.74817 68.0882C7.74817 67.4687 8.088 67.0446 8.76767 66.8157C8.61814 66.6406 8.34627 66.5531 7.95207 66.5531C7.77536 66.5531 7.64622 66.5665 7.56466 66.5935C7.04812 66.8089 6.6675 67.2533 6.42283 67.9266C5.60723 70.9025 5.19943 72.6396 5.19943 73.1378C5.19943 73.5149 5.30818 73.7842 5.52567 73.9458C5.74316 74.1073 5.98104 74.1881 6.23932 74.1881C6.74227 74.1881 7.23842 73.966 7.72778 73.5216C8.21714 73.0772 8.55017 72.5319 8.72689 71.8855C8.76767 71.7508 8.80845 71.6768 8.84923 71.6633C8.89001 71.6499 8.99875 71.6364 9.17546 71.6229H9.25702C9.46092 71.6229 9.56287 71.6768 9.56287 71.7845C9.56287 71.798 9.54928 71.872 9.52209 72.0067C9.3046 72.7742 8.88321 73.4543 8.25792 74.0467C7.63263 74.6392 6.90539 74.9355 6.0762 74.9355C5.12467 74.9355 4.40422 74.5113 3.91487 73.663C3.35754 74.4979 2.71866 74.9153 1.99821 74.9153H1.87587C1.2098 74.9153 0.734037 74.7402 0.448578 74.3901C0.163119 74.04 0.0135933 73.6697 0 73.2792C0 72.8483 0.129136 72.4982 0.387409 72.2289C0.645681 71.9596 0.95153 71.8249 1.30496 71.8249C1.88947 71.8249 2.18172 72.1077 2.18172 72.6732C2.18172 72.9426 2.10016 73.1782 1.93704 73.3802C1.77392 73.5822 1.6176 73.7168 1.46807 73.7842C1.31855 73.8515 1.23019 73.8852 1.20301 73.8852L1.14184 73.9054C1.14184 73.9188 1.18262 73.9458 1.26418 73.9862C1.34573 74.0266 1.45448 74.0737 1.59041 74.1275C1.72635 74.1814 1.85548 74.2016 1.97782 74.1881C2.46718 74.1881 2.88857 73.8852 3.242 73.2792C3.36434 73.0638 3.52066 72.6059 3.71097 71.9057C3.90127 71.2055 4.09158 70.4783 4.28188 69.7243C4.47219 68.9702 4.58094 68.5258 4.60812 68.3911C4.67609 68.0276 4.71007 67.765 4.71007 67.6034C4.71007 67.2264 4.60812 66.9571 4.40422 66.7955C4.20032 66.6339 3.96924 66.5531 3.71097 66.5531C3.16723 66.5531 2.65749 66.7685 2.18172 67.1994C1.70596 67.6303 1.37292 68.1824 1.18262 68.8557C1.15543 68.9769 1.12145 69.0442 1.08067 69.0577C1.03989 69.0712 0.93114 69.0846 0.754427 69.0981H0.468968C0.387409 69.0173 0.346629 68.9432 0.346629 68.8759Z" fill="#BC4D4D"/>
<path d="M46.1368 94.9422C45.9961 94.9422 45.9258 94.9008 45.9258 94.8181C45.9258 94.8015 45.9382 94.7436 45.963 94.6443C45.9961 94.5119 46.0292 94.4374 46.0623 94.4209C46.0954 94.4043 46.1906 94.3919 46.3478 94.3836C46.5712 94.3836 46.8195 94.3712 47.0925 94.3464C47.2084 94.3216 47.287 94.2719 47.3284 94.1974C47.3449 94.1561 47.6387 92.9934 48.2097 90.7096C48.7806 88.4257 49.0702 87.2672 49.0785 87.2341C49.0785 87.1762 49.062 87.1472 49.0289 87.1472C48.9627 87.1224 48.7434 87.1017 48.371 87.0852H47.9862C47.9366 87.0355 47.9118 87.0024 47.9118 86.9859C47.9118 86.9693 47.92 86.899 47.9366 86.7748C47.9697 86.6342 48.0111 86.5473 48.0607 86.5142H54.751C54.8089 86.5473 54.8379 86.5928 54.8379 86.6507C54.8379 86.6921 54.7841 87.1555 54.6765 88.0409C54.5689 88.9263 54.511 89.3814 54.5027 89.4063C54.4862 89.4642 54.4034 89.4931 54.2545 89.4931H54.1055C54.0476 89.4518 54.0186 89.398 54.0186 89.3318C54.0186 89.3235 54.0311 89.2242 54.0559 89.0339C54.0807 88.8436 54.0931 88.6243 54.0931 88.376C54.0931 88.1278 54.0642 87.9251 54.0062 87.7678C53.9483 87.6106 53.8697 87.4823 53.7704 87.383C53.6711 87.2837 53.518 87.2175 53.3111 87.1844C53.1043 87.1513 52.8933 87.1224 52.6781 87.0976C52.463 87.0727 52.1651 87.0686 51.7844 87.0852H51.4989C50.8204 87.0934 50.4604 87.1058 50.4191 87.1224C50.3777 87.1389 50.3487 87.172 50.3322 87.2217C50.3239 87.23 50.1832 87.772 49.9101 88.8477L49.513 90.4489H50.1956C50.2205 90.4489 50.3156 90.4489 50.4811 90.4489C50.6466 90.4489 50.7625 90.4448 50.8287 90.4365C50.8949 90.4282 50.9859 90.4158 51.1017 90.3993C51.2176 90.3827 51.3169 90.3537 51.3996 90.3124C51.4824 90.271 51.5527 90.2213 51.6106 90.1634C51.7182 90.0641 51.8092 89.9276 51.8837 89.7538C51.9582 89.58 52.012 89.4228 52.0451 89.2821C52.0782 89.1415 52.0989 89.067 52.1071 89.0587C52.132 89.0173 52.2106 88.9967 52.343 88.9967H52.4919C52.5498 89.038 52.5788 89.0794 52.5788 89.1208C52.5788 89.1456 52.4505 89.6876 52.194 90.7468C51.9375 91.806 51.7968 92.3521 51.772 92.3852C51.7555 92.4432 51.6727 92.4721 51.5238 92.4721H51.3748C51.3169 92.4225 51.2879 92.3728 51.2879 92.3232C51.2879 92.2983 51.3086 92.2073 51.35 92.0501C51.3914 91.8929 51.412 91.7274 51.412 91.5536C51.412 91.3136 51.3293 91.1647 51.1638 91.1068C50.9983 91.0488 50.6301 91.0199 50.0591 91.0199H49.3764L48.9792 92.5962C48.7144 93.6223 48.582 94.1602 48.582 94.2098C48.582 94.3257 48.9503 94.3836 49.6867 94.3836H49.997C50.0467 94.4333 50.0715 94.4622 50.0715 94.4705C50.0715 94.4788 50.0632 94.5615 50.0467 94.7188C50.0136 94.8263 49.9722 94.9049 49.9226 94.9546H49.7116C49.3723 94.938 48.7475 94.9298 47.8373 94.9298C47.2994 94.9298 46.8898 94.9298 46.6085 94.9298C46.3271 94.9298 46.1699 94.9339 46.1368 94.9422Z" fill="#BC4D4D"/>
<path d="M56.0046 91.8515C56.0046 91.2805 56.046 90.7385 56.1288 90.2255C56.2115 89.7124 56.3067 89.2697 56.4142 88.8974C56.5218 88.525 56.6749 88.1609 56.8735 87.8051C57.0721 87.4492 57.2293 87.172 57.3452 86.9734C57.461 86.7748 57.6348 86.5597 57.8665 86.328C58.0982 86.0963 58.2347 85.9556 58.2761 85.906C58.3175 85.8563 58.4209 85.7694 58.5864 85.6453H58.7478H58.7974C58.9133 85.6453 58.9712 85.6826 58.9712 85.757C58.9712 85.7819 58.9009 85.8687 58.7602 86.0177C58.6195 86.1666 58.4499 86.3859 58.2513 86.6755C58.0527 86.9652 57.8499 87.321 57.6431 87.743C57.4362 88.165 57.2624 88.736 57.1218 89.4559C56.9811 90.1758 56.9107 90.9744 56.9107 91.8515C56.9107 92.7286 56.9811 93.523 57.1218 94.2347C57.2624 94.9463 57.4321 95.5214 57.6307 95.96C57.8293 96.3986 58.032 96.7544 58.2389 97.0275C58.4457 97.3005 58.6195 97.5198 58.7602 97.6853C58.9009 97.8508 58.9712 97.9377 58.9712 97.946C58.9712 98.0204 58.9091 98.0577 58.785 98.0577H58.7478H58.5864L58.2389 97.7598C57.461 97.0564 56.8942 96.1793 56.5384 95.1284C56.1825 94.0774 56.0046 92.9852 56.0046 91.8515Z" fill="#BC4D4D"/>
<path d="M60.3116 91.3674C60.3695 91.0199 60.5929 90.6185 60.9819 90.1634C61.3708 89.7083 61.8507 89.4766 62.4217 89.4683C62.7113 89.4683 62.9761 89.5428 63.2161 89.6917C63.4561 89.8407 63.634 90.0269 63.7498 90.2503C64.0974 89.729 64.5152 89.4683 65.0035 89.4683C65.3096 89.4683 65.5744 89.5593 65.7979 89.7414C66.0213 89.9234 66.1371 90.1676 66.1454 90.4737C66.1454 90.7137 66.0875 90.9082 65.9716 91.0571C65.8558 91.2061 65.7441 91.2971 65.6365 91.3302C65.5289 91.3633 65.4338 91.3798 65.351 91.3798C65.1938 91.3798 65.0655 91.3343 64.9662 91.2433C64.8669 91.1523 64.8173 91.0323 64.8173 90.8833C64.8173 90.5027 65.0242 90.242 65.4379 90.1014C65.3469 89.9938 65.1814 89.94 64.9414 89.94C64.8338 89.94 64.7552 89.9483 64.7056 89.9648C64.3911 90.0972 64.1594 90.3703 64.0105 90.784C63.514 92.6128 63.2657 93.6803 63.2657 93.9864C63.2657 94.2181 63.3319 94.3836 63.4643 94.4829C63.5967 94.5822 63.7415 94.6319 63.8988 94.6319C64.2049 94.6319 64.507 94.4953 64.8049 94.2223C65.1028 93.9492 65.3055 93.6141 65.4131 93.2169C65.4379 93.1341 65.4627 93.0886 65.4876 93.0803C65.5124 93.072 65.5786 93.0638 65.6861 93.0555H65.7358C65.8599 93.0555 65.922 93.0886 65.922 93.1548C65.922 93.1631 65.9137 93.2086 65.8972 93.2913C65.7648 93.763 65.5082 94.1809 65.1276 94.545C64.7469 94.9091 64.3042 95.0911 63.7995 95.0911C63.2202 95.0911 62.7817 94.8305 62.4838 94.3091C62.1445 94.8222 61.7556 95.0787 61.317 95.0787H61.2425C60.8371 95.0787 60.5474 94.9711 60.3737 94.756C60.1999 94.5408 60.1089 94.3133 60.1006 94.0733C60.1006 93.8085 60.1792 93.5934 60.3364 93.4279C60.4936 93.2624 60.6798 93.1796 60.895 93.1796C61.2508 93.1796 61.4287 93.3534 61.4287 93.7009C61.4287 93.8664 61.3791 94.0112 61.2798 94.1354C61.1805 94.2595 61.0853 94.3422 60.9943 94.3836C60.9033 94.425 60.8495 94.4457 60.8329 94.4457L60.7957 94.4581C60.7957 94.4664 60.8205 94.4829 60.8702 94.5077C60.9198 94.5326 60.986 94.5615 61.0688 94.5946C61.1515 94.6277 61.2301 94.6401 61.3046 94.6319C61.6025 94.6319 61.859 94.4457 62.0742 94.0733C62.1486 93.9409 62.2438 93.6596 62.3596 93.2293C62.4755 92.799 62.5913 92.3521 62.7072 91.8887C62.823 91.4253 62.8892 91.1523 62.9058 91.0695C62.9472 90.8461 62.9678 90.6847 62.9678 90.5854C62.9678 90.3537 62.9058 90.1882 62.7817 90.0889C62.6575 89.9896 62.5169 89.94 62.3596 89.94C62.0286 89.94 61.7183 90.0724 61.4287 90.3372C61.1391 90.602 60.9364 90.9413 60.8205 91.355C60.804 91.4295 60.7833 91.4709 60.7584 91.4791C60.7336 91.4874 60.6674 91.4957 60.5598 91.504H60.3861C60.3364 91.4543 60.3116 91.4088 60.3116 91.3674Z" fill="#BC4D4D"/>
<path d="M67.511 85.6577L67.5607 85.6453C67.6021 85.6453 67.6434 85.6453 67.6848 85.6453H67.8338L68.1813 85.9432C68.9591 86.6466 69.526 87.5237 69.8818 88.5746C70.2376 89.6255 70.4155 90.7178 70.4155 91.8515C70.4155 92.4142 70.3742 92.9562 70.2914 93.4775C70.2087 93.9988 70.1135 94.4415 70.0059 94.8056C69.8983 95.1697 69.7453 95.5338 69.5467 95.8979C69.3481 96.262 69.1908 96.5392 69.075 96.7296C68.9591 96.9199 68.7895 97.1309 68.5661 97.3626C68.3427 97.5943 68.2103 97.7308 68.1689 97.7722C68.1275 97.8136 68.0324 97.8922 67.8834 98.008C67.8586 98.0329 67.842 98.0494 67.8338 98.0577H67.6848C67.6186 98.0577 67.5731 98.0577 67.5483 98.0577C67.5234 98.0577 67.5028 98.0453 67.4862 98.0204C67.4697 97.9956 67.4572 97.9584 67.449 97.9087C67.4572 97.9005 67.5028 97.8467 67.5855 97.7474C68.8681 96.4151 69.5094 94.4498 69.5094 91.8515C69.5094 89.2532 68.8681 87.2879 67.5855 85.9556C67.5028 85.8563 67.4572 85.8025 67.449 85.7943C67.449 85.7281 67.4697 85.6826 67.511 85.6577Z" fill="#BC4D4D"/>
<path d="M156.718 69.5558C156.806 69.0253 157.147 68.4126 157.741 67.7179C158.335 67.0231 159.067 66.6694 159.939 66.6567C160.381 66.6567 160.785 66.7704 161.152 66.9978C161.518 67.2252 161.79 67.5094 161.967 67.8505C162.497 67.0547 163.135 66.6567 163.88 66.6567C164.348 66.6567 164.752 66.7957 165.093 67.0736C165.434 67.3515 165.611 67.7242 165.624 68.1916C165.624 68.5579 165.535 68.8548 165.358 69.0821C165.181 69.3095 165.011 69.4485 164.847 69.499C164.683 69.5495 164.537 69.5748 164.411 69.5748C164.171 69.5748 163.975 69.5053 163.824 69.3664C163.672 69.2274 163.596 69.0442 163.596 68.8169C163.596 68.2358 163.912 67.8379 164.544 67.6231C164.405 67.4589 164.152 67.3768 163.786 67.3768C163.621 67.3768 163.501 67.3894 163.426 67.4147C162.946 67.6168 162.592 68.0337 162.364 68.6653C161.607 71.457 161.228 73.0866 161.228 73.554C161.228 73.9077 161.329 74.1603 161.531 74.3119C161.733 74.4635 161.954 74.5393 162.194 74.5393C162.661 74.5393 163.122 74.3308 163.577 73.914C164.032 73.4971 164.341 72.9855 164.506 72.3792C164.544 72.2528 164.581 72.1834 164.619 72.1707C164.657 72.1581 164.758 72.1455 164.923 72.1328H164.998C165.188 72.1328 165.283 72.1834 165.283 72.2844C165.283 72.297 165.27 72.3665 165.245 72.4928C165.043 73.2129 164.651 73.8508 164.07 74.4066C163.489 74.9624 162.813 75.2404 162.042 75.2404C161.158 75.2404 160.489 74.8424 160.034 74.0466C159.516 74.8298 158.922 75.2214 158.253 75.2214H158.139C157.52 75.2214 157.078 75.0572 156.813 74.7288C156.547 74.4003 156.408 74.0529 156.396 73.6866C156.396 73.2824 156.516 72.9539 156.756 72.7013C156.996 72.4486 157.28 72.3223 157.608 72.3223C158.152 72.3223 158.423 72.5876 158.423 73.1181C158.423 73.3708 158.347 73.5918 158.196 73.7813C158.044 73.9708 157.899 74.0971 157.76 74.1603C157.621 74.2235 157.539 74.255 157.514 74.255L157.457 74.274C157.457 74.2866 157.495 74.3119 157.571 74.3498C157.646 74.3877 157.747 74.4319 157.874 74.4824C158 74.533 158.12 74.5519 158.234 74.5393C158.689 74.5393 159.08 74.255 159.409 73.6866C159.522 73.4845 159.668 73.055 159.844 72.3981C160.021 71.7412 160.198 71.0591 160.375 70.3517C160.552 69.6443 160.653 69.2274 160.678 69.1011C160.741 68.76 160.773 68.5137 160.773 68.3621C160.773 68.0084 160.678 67.7558 160.489 67.6042C160.299 67.4526 160.084 67.3768 159.844 67.3768C159.339 67.3768 158.865 67.5789 158.423 67.9831C157.981 68.3874 157.672 68.9053 157.495 69.5369C157.469 69.6506 157.438 69.7137 157.4 69.7264C157.362 69.739 157.261 69.7516 157.097 69.7643H156.832C156.756 69.6885 156.718 69.619 156.718 69.5558Z" fill="#BC4D4D"/>
<path d="M171.843 70.5412C171.843 70.5412 171.843 70.4591 171.843 70.2948C171.843 70.1306 171.931 70.0043 172.108 69.9159H177.774V67.0736L177.793 64.2314C177.919 64.0671 178.039 63.985 178.153 63.985C178.317 63.985 178.443 64.0798 178.532 64.2693V69.9159H184.178C184.368 70.0169 184.462 70.1432 184.462 70.2948C184.462 70.4464 184.368 70.5727 184.178 70.6738H178.532V76.3204C178.43 76.4973 178.317 76.5857 178.19 76.5857H178.153H178.115C177.963 76.5857 177.849 76.4973 177.774 76.3204V70.6738H172.108C171.931 70.5854 171.843 70.4591 171.843 70.2948V70.5412Z" fill="#BC4D4D"/>
<path d="M190.643 75.013C190.429 75.013 190.321 74.9498 190.321 74.8235C190.321 74.7982 190.34 74.7098 190.378 74.5582C190.429 74.3561 190.479 74.2424 190.53 74.2171C190.58 74.1919 190.726 74.1729 190.966 74.1603C191.307 74.1603 191.686 74.1413 192.102 74.1035C192.279 74.0656 192.399 73.9898 192.462 73.8761C192.488 73.8129 192.936 72.0381 193.808 68.5516C194.679 65.0651 195.122 63.2966 195.134 63.246C195.134 63.1576 195.109 63.1134 195.058 63.1134C194.957 63.0755 194.623 63.0439 194.054 63.0187H193.467C193.391 62.9429 193.353 62.8923 193.353 62.8671C193.353 62.8418 193.366 62.7344 193.391 62.5449C193.441 62.3302 193.505 62.1976 193.58 62.147H203.794C203.882 62.1976 203.926 62.267 203.926 62.3555C203.926 62.4186 203.844 63.126 203.68 64.4777C203.516 65.8293 203.427 66.5241 203.415 66.562C203.389 66.6504 203.263 66.6946 203.036 66.6946H202.808C202.72 66.6315 202.676 66.5494 202.676 66.4483C202.676 66.4357 202.695 66.2841 202.732 65.9936C202.77 65.703 202.789 65.3683 202.789 64.9893C202.789 64.6103 202.745 64.3008 202.657 64.0608C202.568 63.8208 202.448 63.625 202.297 63.4734C202.145 63.3218 201.911 63.2208 201.596 63.1702C201.28 63.1197 200.958 63.0755 200.629 63.0376C200.301 62.9997 199.846 62.9934 199.265 63.0187H198.829C197.793 63.0313 197.244 63.0502 197.181 63.0755C197.117 63.1008 197.073 63.1513 197.048 63.2271C197.035 63.2397 196.821 64.0671 196.404 65.7093L195.797 68.1537H196.84C196.877 68.1537 197.023 68.1537 197.275 68.1537C197.528 68.1537 197.705 68.1473 197.806 68.1347C197.907 68.1221 198.046 68.1031 198.223 68.0779C198.4 68.0526 198.551 68.0084 198.678 67.9452C198.804 67.8821 198.911 67.8063 199 67.7179C199.164 67.5663 199.303 67.3578 199.417 67.0926C199.53 66.8273 199.612 66.5873 199.663 66.3725C199.713 66.1578 199.745 66.0441 199.758 66.0314C199.795 65.9683 199.915 65.9367 200.118 65.9367H200.345C200.433 65.9999 200.478 66.063 200.478 66.1262C200.478 66.1641 200.282 66.9915 199.89 68.6084C199.499 70.2254 199.284 71.0591 199.246 71.1096C199.221 71.198 199.094 71.2422 198.867 71.2422H198.64C198.551 71.1665 198.507 71.0907 198.507 71.0149C198.507 70.977 198.539 70.838 198.602 70.598C198.665 70.358 198.696 70.1053 198.696 69.8401C198.696 69.4737 198.57 69.2464 198.317 69.1579C198.065 69.0695 197.503 69.0253 196.631 69.0253H195.589L194.983 71.4317C194.578 72.9981 194.376 73.8192 194.376 73.895C194.376 74.0719 194.938 74.1603 196.063 74.1603H196.536C196.612 74.2361 196.65 74.2803 196.65 74.2929C196.65 74.3056 196.637 74.4319 196.612 74.6719C196.562 74.8361 196.498 74.9561 196.423 75.0319H196.101C195.583 75.0067 194.629 74.994 193.239 74.994C192.418 74.994 191.793 74.994 191.363 74.994C190.934 74.994 190.694 75.0003 190.643 75.013Z" fill="#BC4D4D"/>
<path d="M205.707 70.2948C205.707 69.4232 205.77 68.5958 205.897 67.8126C206.023 67.0294 206.168 66.3535 206.332 65.7851C206.497 65.2166 206.73 64.6608 207.033 64.1176C207.337 63.5744 207.577 63.1513 207.753 62.8481C207.93 62.5449 208.196 62.2165 208.549 61.8628C208.903 61.5091 209.111 61.2943 209.175 61.2185C209.238 61.1427 209.396 61.0101 209.648 60.8206H209.895H209.97C210.147 60.8206 210.236 60.8775 210.236 60.9912C210.236 61.029 210.128 61.1617 209.914 61.3891C209.699 61.6164 209.44 61.9512 209.137 62.3933C208.834 62.8355 208.524 63.3786 208.208 64.0229C207.892 64.6671 207.627 65.5388 207.412 66.6378C207.198 67.7368 207.09 68.9558 207.09 70.2948C207.09 71.6338 207.198 72.8465 207.412 73.9329C207.627 75.0193 207.886 75.8972 208.189 76.5667C208.492 77.2362 208.802 77.7794 209.118 78.1963C209.434 78.6131 209.699 78.9479 209.914 79.2005C210.128 79.4532 210.236 79.5858 210.236 79.5984C210.236 79.7121 210.141 79.769 209.951 79.769H209.895H209.648L209.118 79.3142C207.93 78.2405 207.065 76.9015 206.522 75.2972C205.979 73.6929 205.707 72.0254 205.707 70.2948Z" fill="#BC4D4D"/>
<path d="M212.282 69.5558C212.371 69.0253 212.712 68.4126 213.306 67.7179C213.899 67.0231 214.632 66.6694 215.504 66.6567C215.946 66.6567 216.35 66.7704 216.716 66.9978C217.083 67.2252 217.354 67.5094 217.531 67.8505C218.062 67.0547 218.7 66.6567 219.445 66.6567C219.912 66.6567 220.316 66.7957 220.658 67.0736C220.999 67.3515 221.175 67.7242 221.188 68.1916C221.188 68.5579 221.1 68.8548 220.923 69.0821C220.746 69.3095 220.575 69.4485 220.411 69.499C220.247 69.5495 220.102 69.5748 219.975 69.5748C219.735 69.5748 219.54 69.5053 219.388 69.3664C219.236 69.2274 219.161 69.0442 219.161 68.8169C219.161 68.2358 219.476 67.8379 220.108 67.6231C219.969 67.4589 219.716 67.3768 219.35 67.3768C219.186 67.3768 219.066 67.3894 218.99 67.4147C218.51 67.6168 218.156 68.0337 217.929 68.6653C217.171 71.457 216.792 73.0866 216.792 73.554C216.792 73.9077 216.893 74.1603 217.095 74.3119C217.297 74.4635 217.518 74.5393 217.758 74.5393C218.226 74.5393 218.687 74.3308 219.142 73.914C219.596 73.4971 219.906 72.9855 220.07 72.3792C220.108 72.2528 220.146 72.1834 220.184 72.1707C220.222 72.1581 220.323 72.1455 220.487 72.1328H220.563C220.752 72.1328 220.847 72.1834 220.847 72.2844C220.847 72.297 220.834 72.3665 220.809 72.4928C220.607 73.2129 220.215 73.8508 219.634 74.4066C219.053 74.9624 218.377 75.2404 217.607 75.2404C216.723 75.2404 216.053 74.8424 215.598 74.0466C215.08 74.8298 214.487 75.2214 213.817 75.2214H213.703C213.084 75.2214 212.642 75.0572 212.377 74.7288C212.112 74.4003 211.973 74.0529 211.96 73.6866C211.96 73.2824 212.08 72.9539 212.32 72.7013C212.56 72.4486 212.844 72.3223 213.173 72.3223C213.716 72.3223 213.988 72.5876 213.988 73.1181C213.988 73.3708 213.912 73.5918 213.76 73.7813C213.609 73.9708 213.463 74.0971 213.324 74.1603C213.186 74.2235 213.103 74.255 213.078 74.255L213.021 74.274C213.021 74.2866 213.059 74.3119 213.135 74.3498C213.211 74.3877 213.312 74.4319 213.438 74.4824C213.564 74.533 213.685 74.5519 213.798 74.5393C214.253 74.5393 214.645 74.255 214.973 73.6866C215.087 73.4845 215.232 73.055 215.409 72.3981C215.586 71.7412 215.763 71.0591 215.939 70.3517C216.116 69.6443 216.217 69.2274 216.243 69.1011C216.306 68.76 216.337 68.5137 216.337 68.3621C216.337 68.0084 216.243 67.7558 216.053 67.6042C215.864 67.4526 215.649 67.3768 215.409 67.3768C214.904 67.3768 214.43 67.5789 213.988 67.9831C213.546 68.3874 213.236 68.9053 213.059 69.5369C213.034 69.6506 213.002 69.7137 212.964 69.7264C212.927 69.739 212.826 69.7516 212.661 69.7643H212.396C212.32 69.6885 212.282 69.619 212.282 69.5558Z" fill="#BC4D4D"/>
<path d="M223.272 60.8396L223.348 60.8206C223.411 60.8206 223.475 60.8206 223.538 60.8206H223.765L224.296 61.2754C225.483 62.3491 226.348 63.6881 226.892 65.2924C227.435 66.8967 227.706 68.5642 227.706 70.2948C227.706 71.1538 227.643 71.9812 227.517 72.777C227.391 73.5729 227.245 74.2487 227.081 74.8045C226.917 75.3603 226.683 75.9161 226.38 76.472C226.077 77.0278 225.837 77.451 225.66 77.7415C225.483 78.032 225.224 78.3542 224.883 78.7079C224.542 79.0616 224.34 79.27 224.277 79.3332C224.214 79.3963 224.068 79.5163 223.841 79.6932C223.803 79.7311 223.778 79.7563 223.765 79.769H223.538C223.437 79.769 223.367 79.769 223.329 79.769C223.291 79.769 223.26 79.75 223.235 79.7121C223.209 79.6742 223.19 79.6174 223.178 79.5416C223.19 79.529 223.26 79.4469 223.386 79.2953C225.344 77.2615 226.323 74.2613 226.323 70.2948C226.323 66.3283 225.344 63.3281 223.386 61.2943C223.26 61.1427 223.19 61.0606 223.178 61.048C223.178 60.9469 223.209 60.8775 223.272 60.8396Z" fill="#BC4D4D"/>
<path d="M43.2112 1.29784C43.2112 1.07693 43.2987 0.883631 43.4735 0.717949C43.6484 0.552267 43.8509 0.464823 44.081 0.455619C44.2467 0.455619 44.3848 0.510846 44.4952 0.621301C44.6057 0.731756 44.6655 0.869825 44.6747 1.03551C44.6747 1.24721 44.5827 1.44051 44.3986 1.61539C44.2145 1.79028 44.012 1.88233 43.7911 1.89153C43.653 1.89153 43.5242 1.84551 43.4045 1.75346C43.2848 1.66142 43.2204 1.50954 43.2112 1.29784ZM40.9607 5.61938C40.9607 5.54575 41.0021 5.40308 41.085 5.19137C41.1678 4.97967 41.2783 4.74495 41.4163 4.48722C41.5544 4.22949 41.7569 3.99478 42.0238 3.78307C42.2908 3.57137 42.5669 3.47012 42.8522 3.47932C43.2112 3.47932 43.5104 3.58517 43.7497 3.79688C43.989 4.00858 44.1133 4.29392 44.1225 4.6529C44.1225 4.80938 44.058 5.06711 43.9292 5.42609C43.8003 5.78507 43.6162 6.26831 43.3769 6.87581C43.1376 7.48331 42.9443 8.00337 42.797 8.43598C42.751 8.63848 42.728 8.78575 42.728 8.8778C42.728 9.10791 42.8062 9.22297 42.9627 9.22297C43.0455 9.22297 43.133 9.20917 43.225 9.18155C43.3171 9.15394 43.4229 9.08951 43.5426 8.98826C43.6622 8.88701 43.7865 8.72593 43.9154 8.50502C44.0442 8.28411 44.1593 8.01257 44.2605 7.69041C44.2881 7.57996 44.3112 7.51552 44.3296 7.49712C44.348 7.47871 44.4262 7.4695 44.5643 7.4695C44.7484 7.4695 44.8404 7.51552 44.8404 7.60757C44.8404 7.68121 44.799 7.82388 44.7162 8.03558C44.6333 8.24729 44.5183 8.482 44.371 8.73973C44.2237 8.99746 44.0166 9.22757 43.7497 9.43007C43.4827 9.63258 43.1974 9.73383 42.8937 9.73383C42.5991 9.73383 42.3276 9.63718 42.079 9.44388C41.8305 9.25059 41.7017 8.95604 41.6925 8.56024C41.6925 8.40377 41.7155 8.25649 41.7615 8.11842C41.8075 7.98036 42.0054 7.45569 42.3552 6.54444C42.705 5.61478 42.9075 5.0579 42.9627 4.87381C43.0179 4.68972 43.0501 4.51023 43.0593 4.33535C43.0593 4.11444 42.9811 4.00398 42.8246 4.00398H42.797C42.5209 4.00398 42.2677 4.15586 42.0376 4.45961C41.8075 4.76336 41.6326 5.14995 41.513 5.61938C41.5038 5.62859 41.4946 5.64239 41.4854 5.6608C41.4761 5.67921 41.4715 5.69302 41.4715 5.70222C41.4715 5.71143 41.4623 5.72063 41.4439 5.72984C41.4255 5.73904 41.4117 5.74364 41.4025 5.74364C41.3933 5.74364 41.3749 5.74364 41.3473 5.74364C41.3197 5.74364 41.2829 5.74364 41.2368 5.74364H41.0435C40.9883 5.68842 40.9607 5.647 40.9607 5.61938Z" fill="#BC4D4D"/>
<path d="M50.4876 0.151879C50.4968 0.151879 50.8281 0.128868 51.4817 0.0828448C52.1352 0.0368219 52.4712 0.00920821 52.4896 3.63588e-06C52.6 3.63588e-06 52.6553 0.0368219 52.6553 0.110459C52.6553 0.174891 52.3193 1.56478 51.6474 4.28013C50.9754 6.99548 50.6302 8.38077 50.6118 8.43599C50.5934 8.49122 50.5888 8.56026 50.598 8.6431C50.598 9.02969 50.7269 9.22298 50.9846 9.22298C51.0675 9.21378 51.1595 9.17236 51.2608 9.09872C51.4541 8.91463 51.6427 8.47281 51.8268 7.77326C51.8821 7.58917 51.9281 7.49253 51.9649 7.48332C51.9833 7.47412 52.0293 7.46951 52.103 7.46951H52.1582H52.2134C52.3515 7.46951 52.4205 7.50633 52.4205 7.57997C52.4205 7.62599 52.4067 7.69963 52.3791 7.80088C52.2595 8.26111 52.1214 8.63389 51.9649 8.91923C51.8084 9.20458 51.6796 9.38867 51.5783 9.47151C51.4771 9.55435 51.3482 9.62799 51.1917 9.69242C51.1181 9.71083 51.0076 9.72003 50.8604 9.72003C50.5474 9.72003 50.2851 9.651 50.0734 9.51293C49.8617 9.37486 49.7236 9.23219 49.6592 9.08492L49.5763 8.87781C49.5671 8.86861 49.5487 8.87321 49.5211 8.89162C49.5027 8.91003 49.4843 8.92844 49.4659 8.94685C48.9228 9.4623 48.3705 9.72003 47.809 9.72003C47.3028 9.72003 46.8564 9.53594 46.4698 9.16776C46.0832 8.79957 45.8899 8.21508 45.8899 7.41429C45.8899 6.97247 45.9819 6.52144 46.166 6.06121C46.3501 5.60099 46.571 5.20519 46.8288 4.87382C47.2614 4.34916 47.694 3.98558 48.1266 3.78308C48.5592 3.58058 48.9504 3.47933 49.3002 3.47933C49.8156 3.47933 50.2022 3.67263 50.46 4.05922C50.506 4.11445 50.529 4.13286 50.529 4.11445C50.5382 4.07763 50.6625 3.57598 50.9018 2.6095C51.1411 1.64302 51.27 1.13217 51.2884 1.07694C51.2884 0.957279 51.2562 0.883643 51.1917 0.856029C51.1273 0.828415 50.9478 0.805404 50.6533 0.786995H50.3633C50.3081 0.731767 50.2805 0.694949 50.2805 0.67654C50.2805 0.658131 50.2897 0.570687 50.3081 0.414209C50.3541 0.239323 50.4139 0.151879 50.4876 0.151879ZM50.2943 5.08093C50.0826 4.35377 49.7374 3.99019 49.2588 3.99019C48.9366 3.99019 48.6283 4.13286 48.3337 4.4182C48.0392 4.70354 47.809 5.07633 47.6434 5.53655C47.3764 6.26371 47.1877 7.01849 47.0773 7.80088C47.0773 7.82849 47.0773 7.87912 47.0773 7.95275C47.0773 8.02639 47.0727 8.08162 47.0635 8.11844C47.0635 8.53264 47.1463 8.81798 47.312 8.97446C47.4777 9.13094 47.6756 9.21378 47.9057 9.22298C48.4027 9.22298 48.9136 8.89162 49.4383 8.22889L49.5487 8.07702L50.2943 5.08093Z" fill="#BC4D4D"/>
<path d="M53.1523 7.2624C53.1523 6.73774 53.2398 6.2591 53.4147 5.82649C53.5896 5.39387 53.8151 5.03489 54.0912 4.74955C54.3673 4.46421 54.6757 4.22489 55.0163 4.03159C55.3568 3.8383 55.679 3.69563 55.9827 3.60358C56.2865 3.51154 56.5764 3.47012 56.8526 3.47932H56.894C57.3082 3.47932 57.6672 3.58057 57.9709 3.78307C58.2747 3.98557 58.4266 4.28472 58.4266 4.68052C58.4266 5.50893 57.9157 6.052 56.894 6.30973C56.443 6.42938 55.8263 6.49382 55.0439 6.50302C54.7033 6.50302 54.5284 6.51223 54.5192 6.53064C54.5192 6.54904 54.4916 6.71012 54.4364 7.01388C54.3812 7.31763 54.3489 7.58456 54.3397 7.81467C54.3397 8.24729 54.4364 8.58786 54.6297 8.83638C54.823 9.0849 55.1129 9.21377 55.4995 9.22297C55.8861 9.23218 56.3141 9.14473 56.7835 8.96064C57.253 8.77655 57.6764 8.4728 58.0538 8.04939C58.1366 7.95734 58.1918 7.91132 58.2195 7.91132C58.2563 7.91132 58.3161 7.95274 58.399 8.03558C58.4818 8.11842 58.5278 8.18286 58.537 8.22888C58.5462 8.2749 58.5048 8.34854 58.4128 8.44979C58.3207 8.55104 58.1826 8.6753 57.9986 8.82257C57.8145 8.96985 57.6028 9.11252 57.3634 9.25059C57.1241 9.38865 56.8342 9.50371 56.4936 9.59576C56.153 9.6878 55.8033 9.73383 55.4443 9.73383C54.7171 9.73383 54.1556 9.4899 53.7598 9.00206C53.364 8.51422 53.1615 7.93433 53.1523 7.2624ZM57.7638 4.70813C57.7086 4.22949 57.3957 3.99017 56.825 3.99017C56.5212 3.99017 56.2405 4.05461 55.9827 4.18347C55.725 4.31233 55.5179 4.46881 55.3614 4.6529C55.205 4.83699 55.0715 5.02569 54.961 5.21898C54.8506 5.41228 54.777 5.57796 54.7401 5.71603C54.7033 5.8541 54.6803 5.94154 54.6711 5.97836C54.6711 5.98757 54.7631 5.99217 54.9472 5.99217C55.9874 5.99217 56.7145 5.88171 57.1287 5.6608C57.5429 5.43989 57.7546 5.12234 57.7638 4.70813Z" fill="#BC4D4D"/>
<path d="M59.3379 5.61938C59.3471 5.56415 59.3609 5.49052 59.3793 5.39847C59.3977 5.30643 59.4529 5.13154 59.545 4.87381C59.637 4.61608 59.7291 4.39978 59.8211 4.22489C59.9132 4.05 60.0651 3.87972 60.2768 3.71404C60.4885 3.54835 60.7002 3.47011 60.9119 3.47932C61.2432 3.47932 61.5194 3.56216 61.7403 3.72784C61.9612 3.89353 62.0993 4.05 62.1545 4.19728C62.2097 4.34455 62.2373 4.4412 62.2373 4.48722C62.2373 4.50563 62.2419 4.51483 62.2511 4.51483L62.403 4.36296C62.9645 3.77387 63.6042 3.47932 64.3222 3.47932C64.8192 3.47932 65.2196 3.60358 65.5234 3.8521C65.8271 4.10063 65.9836 4.46421 65.9928 4.94285C66.002 5.42148 65.8271 6.14404 65.4681 7.11052C65.1092 8.077 64.9343 8.66149 64.9435 8.86399C64.9435 9.10331 65.0217 9.22297 65.1782 9.22297C65.2334 9.22297 65.2748 9.21837 65.3025 9.20917C65.5694 9.16314 65.8087 8.98826 66.0204 8.6845C66.2321 8.38075 66.3932 8.01257 66.5036 7.57996C66.5221 7.50632 66.6141 7.4695 66.7798 7.4695C66.9639 7.4695 67.0559 7.50632 67.0559 7.57996C67.0559 7.58916 67.0375 7.65819 67.0007 7.78706C66.9271 8.05399 66.8258 8.31632 66.6969 8.57405C66.5681 8.83178 66.3564 9.08951 66.0618 9.34723C65.7673 9.60496 65.4497 9.72922 65.1092 9.72002C64.6765 9.72002 64.3636 9.59576 64.1703 9.34723C63.977 9.09871 63.8803 8.84098 63.8803 8.57405C63.8803 8.39916 64.046 7.84689 64.3774 6.91723C64.7088 5.98757 64.879 5.28802 64.8882 4.81858C64.8882 4.27551 64.6857 4.00398 64.2807 4.00398H64.2117C63.4201 4.00398 62.7528 4.46881 62.2097 5.39847L62.1131 5.56415L61.6574 7.41427C61.3537 8.62007 61.1788 9.26899 61.1328 9.36104C61.0131 9.60956 60.8152 9.73383 60.5391 9.73383C60.4194 9.73383 60.3228 9.70621 60.2491 9.65098C60.1755 9.59576 60.1249 9.54053 60.0973 9.4853C60.0697 9.43007 60.0604 9.38405 60.0697 9.34723C60.0697 9.22757 60.2445 8.4774 60.5943 7.09672C60.9441 5.71603 61.1282 4.96586 61.1466 4.8462C61.1558 4.80018 61.1604 4.69432 61.1604 4.52864C61.1604 4.16966 61.0499 3.99017 60.829 3.99017C60.4793 3.99017 60.1893 4.4504 59.9592 5.37086C59.904 5.55495 59.8764 5.6516 59.8764 5.6608C59.8579 5.71603 59.7705 5.74364 59.614 5.74364H59.4207C59.3655 5.68842 59.3379 5.647 59.3379 5.61938Z" fill="#BC4D4D"/>
<path d="M67.6906 4.26631C67.6262 4.20188 67.594 4.15586 67.594 4.12824C67.594 4.09142 67.6078 4.01779 67.6354 3.90733C67.663 3.79688 67.686 3.73245 67.7044 3.71404C67.7229 3.66801 67.7643 3.645 67.8287 3.645C67.8931 3.645 68.1279 3.6404 68.5329 3.6312H69.2646L69.527 2.52665C69.5546 2.4254 69.5868 2.29193 69.6236 2.12625C69.6604 1.96057 69.6926 1.84091 69.7203 1.76727C69.7479 1.69363 69.7755 1.60159 69.8031 1.49113C69.8307 1.38068 69.8675 1.30244 69.9135 1.25642C69.9596 1.21039 70.0056 1.15517 70.0516 1.09073C70.0976 1.0263 70.1621 0.984881 70.2449 0.966472C70.3278 0.948063 70.4106 0.938858 70.4934 0.938858C70.6591 0.948063 70.7742 0.998688 70.8386 1.09073C70.903 1.18278 70.9353 1.27022 70.9353 1.35306C70.9353 1.4175 70.8938 1.6338 70.811 2.00199C70.7282 2.37017 70.6361 2.73375 70.5349 3.09273L70.3968 3.60358C70.3968 3.62199 70.6269 3.6312 71.0871 3.6312H71.7913C71.8557 3.69563 71.8879 3.74625 71.8879 3.78307C71.8879 3.98557 71.8281 4.14665 71.7084 4.26631H70.2311L69.7341 6.2683C69.3751 7.74104 69.1956 8.53263 69.1956 8.64308C69.1956 9.02968 69.3199 9.22297 69.5684 9.22297C69.8905 9.22297 70.2035 9.06649 70.5072 8.75354C70.811 8.44058 71.0549 8.05399 71.239 7.59376C71.2574 7.53854 71.2804 7.50632 71.308 7.49711C71.3357 7.48791 71.4047 7.47871 71.5151 7.4695H71.5704C71.7084 7.4695 71.7775 7.50632 71.7775 7.57996C71.7775 7.60757 71.7637 7.6628 71.7361 7.74564C71.69 7.89291 71.6072 8.0678 71.4875 8.2703C71.3679 8.4728 71.2114 8.68911 71.0181 8.91922C70.8248 9.14934 70.5901 9.34263 70.3139 9.49911C70.0378 9.65559 69.7571 9.73383 69.4717 9.73383C69.1956 9.73383 68.9333 9.66479 68.6847 9.52672C68.4362 9.38865 68.2567 9.14934 68.1463 8.80877C68.1279 8.73513 68.1187 8.61087 68.1187 8.43598V8.18746L68.6019 6.2545C68.9241 4.95665 69.0897 4.30313 69.0989 4.29392C69.0989 4.27552 68.8642 4.26631 68.3948 4.26631H67.6906Z" fill="#BC4D4D"/>
<path d="M74.8567 1.29784C74.8567 1.07693 74.9442 0.883631 75.119 0.717949C75.2939 0.552267 75.4964 0.464823 75.7266 0.455619C75.8922 0.455619 76.0303 0.510846 76.1408 0.621301C76.2512 0.731756 76.311 0.869825 76.3202 1.03551C76.3202 1.24721 76.2282 1.44051 76.0441 1.61539C75.86 1.79028 75.6575 1.88233 75.4366 1.89153C75.2985 1.89153 75.1697 1.84551 75.05 1.75346C74.9304 1.66142 74.8659 1.50954 74.8567 1.29784ZM72.6062 5.61938C72.6062 5.54575 72.6476 5.40308 72.7305 5.19137C72.8133 4.97967 72.9238 4.74495 73.0618 4.48722C73.1999 4.22949 73.4024 3.99478 73.6693 3.78307C73.9363 3.57137 74.2124 3.47012 74.4977 3.47932C74.8567 3.47932 75.1559 3.58517 75.3952 3.79688C75.6345 4.00858 75.7588 4.29392 75.768 4.6529C75.768 4.80938 75.7035 5.06711 75.5747 5.42609C75.4458 5.78507 75.2617 6.26831 75.0224 6.87581C74.7831 7.48331 74.5898 8.00337 74.4425 8.43598C74.3965 8.63848 74.3735 8.78575 74.3735 8.8778C74.3735 9.10791 74.4517 9.22297 74.6082 9.22297C74.691 9.22297 74.7785 9.20917 74.8705 9.18155C74.9626 9.15394 75.0684 9.08951 75.1881 8.98826C75.3077 8.88701 75.432 8.72593 75.5609 8.50502C75.6897 8.28411 75.8048 8.01257 75.906 7.69041C75.9337 7.57996 75.9567 7.51552 75.9751 7.49712C75.9935 7.47871 76.0717 7.4695 76.2098 7.4695C76.3939 7.4695 76.4859 7.51552 76.4859 7.60757C76.4859 7.68121 76.4445 7.82388 76.3617 8.03558C76.2788 8.24729 76.1638 8.482 76.0165 8.73973C75.8692 8.99746 75.6621 9.22757 75.3952 9.43007C75.1283 9.63258 74.8429 9.73383 74.5392 9.73383C74.2446 9.73383 73.9731 9.63718 73.7246 9.44388C73.476 9.25059 73.3472 8.95604 73.338 8.56024C73.338 8.40377 73.361 8.25649 73.407 8.11842C73.453 7.98036 73.6509 7.45569 74.0007 6.54444C74.3505 5.61478 74.553 5.0579 74.6082 4.87381C74.6634 4.68972 74.6956 4.51023 74.7048 4.33535C74.7048 4.11444 74.6266 4.00398 74.4701 4.00398H74.4425C74.1664 4.00398 73.9133 4.15586 73.6831 4.45961C73.453 4.76336 73.2781 5.14995 73.1585 5.61938C73.1493 5.62859 73.1401 5.64239 73.1309 5.6608C73.1217 5.67921 73.1171 5.69302 73.1171 5.70222C73.1171 5.71143 73.1079 5.72063 73.0894 5.72984C73.071 5.73904 73.0572 5.74364 73.048 5.74364C73.0388 5.74364 73.0204 5.74364 72.9928 5.74364C72.9652 5.74364 72.9284 5.74364 72.8823 5.74364H72.689C72.6338 5.68842 72.6062 5.647 72.6062 5.61938Z" fill="#BC4D4D"/>
<path d="M77.4387 4.26631C77.3743 4.20188 77.342 4.15586 77.342 4.12824C77.342 4.09142 77.3558 4.01779 77.3835 3.90733C77.4111 3.79688 77.4341 3.73245 77.4525 3.71404C77.4709 3.66801 77.5123 3.645 77.5768 3.645C77.6412 3.645 77.8759 3.6404 78.2809 3.6312H79.0127L79.275 2.52665C79.3026 2.4254 79.3348 2.29193 79.3716 2.12625C79.4085 1.96057 79.4407 1.84091 79.4683 1.76727C79.4959 1.69363 79.5235 1.60159 79.5511 1.49113C79.5788 1.38068 79.6156 1.30244 79.6616 1.25642C79.7076 1.21039 79.7536 1.15517 79.7997 1.09073C79.8457 1.0263 79.9101 0.984881 79.993 0.966472C80.0758 0.948063 80.1586 0.938858 80.2415 0.938858C80.4072 0.948063 80.5222 0.998688 80.5867 1.09073C80.6511 1.18278 80.6833 1.27022 80.6833 1.35306C80.6833 1.4175 80.6419 1.6338 80.559 2.00199C80.4762 2.37017 80.3842 2.73375 80.2829 3.09273L80.1448 3.60358C80.1448 3.62199 80.3749 3.6312 80.8352 3.6312H81.5393C81.6038 3.69563 81.636 3.74625 81.636 3.78307C81.636 3.98557 81.5761 4.14665 81.4565 4.26631H79.9792L79.4821 6.2683C79.1231 7.74104 78.9436 8.53263 78.9436 8.64308C78.9436 9.02968 79.0679 9.22297 79.3164 9.22297C79.6386 9.22297 79.9515 9.06649 80.2553 8.75354C80.559 8.44058 80.803 8.05399 80.9871 7.59376C81.0055 7.53854 81.0285 7.50632 81.0561 7.49711C81.0837 7.48791 81.1527 7.47871 81.2632 7.4695H81.3184C81.4565 7.4695 81.5255 7.50632 81.5255 7.57996C81.5255 7.60757 81.5117 7.6628 81.4841 7.74564C81.4381 7.89291 81.3552 8.0678 81.2356 8.2703C81.1159 8.4728 80.9594 8.68911 80.7661 8.91922C80.5728 9.14934 80.3381 9.34263 80.062 9.49911C79.7859 9.65559 79.5051 9.73383 79.2198 9.73383C78.9436 9.73383 78.6813 9.66479 78.4328 9.52672C78.1843 9.38865 78.0048 9.14934 77.8943 8.80877C77.8759 8.73513 77.8667 8.61087 77.8667 8.43598V8.18746L78.3499 6.2545C78.6721 4.95665 78.8378 4.30313 78.847 4.29392C78.847 4.27552 78.6123 4.26631 78.1428 4.26631H77.4387Z" fill="#BC4D4D"/>
<path d="M82.3538 5.61938C82.3538 5.49052 82.4228 5.26961 82.5609 4.95665C82.6989 4.6437 82.9198 4.31693 83.2236 3.97636C83.5273 3.6358 83.8679 3.47011 84.2453 3.47932C84.6227 3.47932 84.9264 3.58517 85.1566 3.79688C85.3867 4.00858 85.5063 4.30313 85.5155 4.68051C85.4971 4.8554 85.4833 4.95205 85.4741 4.97046C85.4741 4.99807 85.4005 5.20978 85.2532 5.60557C85.1059 6.00137 84.9541 6.44779 84.7976 6.94484C84.6411 7.44189 84.5675 7.83768 84.5767 8.13223C84.5767 8.52802 84.6411 8.80416 84.77 8.96064C84.8988 9.11712 85.0921 9.19996 85.3498 9.20916C85.5616 9.20916 85.7595 9.15854 85.9435 9.05729C86.1276 8.95604 86.2703 8.85018 86.3716 8.73973C86.4728 8.62927 86.5971 8.4774 86.7443 8.2841C86.7443 8.2749 86.7674 8.18285 86.8134 8.00797C86.8594 7.83308 86.9238 7.56154 87.0067 7.19336C87.0895 6.82518 87.177 6.48461 87.269 6.17165C87.6188 4.79097 87.8121 4.06841 87.8489 4.00398C87.9685 3.75545 88.1664 3.63119 88.4426 3.63119C88.5622 3.63119 88.6589 3.66341 88.7325 3.72784C88.8062 3.79227 88.8568 3.8475 88.8844 3.89352C88.912 3.93955 88.9212 3.98097 88.912 4.01778C88.912 4.13744 88.6865 5.10392 88.2355 6.91722C87.7845 8.73053 87.5267 9.72462 87.4623 9.89951C87.2046 10.6635 86.7581 11.271 86.123 11.722C85.4879 12.173 84.8528 12.4031 84.2177 12.4124C83.8035 12.4124 83.4399 12.3111 83.1269 12.1086C82.814 11.9061 82.6575 11.6024 82.6575 11.1974C82.6575 10.9948 82.6897 10.8246 82.7542 10.6865C82.8186 10.5484 82.906 10.4472 83.0165 10.3827C83.1269 10.3183 83.219 10.2723 83.2926 10.2447C83.3663 10.2171 83.4445 10.2033 83.5273 10.2033C83.9323 10.2033 84.1348 10.3966 84.1348 10.7831C84.1348 10.9672 84.0796 11.1283 83.9692 11.2664C83.8587 11.4045 83.7529 11.4965 83.6516 11.5425C83.5504 11.5885 83.4905 11.6116 83.4721 11.6116L83.4307 11.6254C83.4491 11.6714 83.5365 11.7266 83.693 11.791C83.8495 11.8555 84.006 11.8877 84.1625 11.8877H84.2729C84.4294 11.8877 84.5491 11.8785 84.6319 11.8601C84.9356 11.7772 85.2164 11.6024 85.4741 11.3354C85.7318 11.0685 85.9297 10.7831 86.0678 10.4794C86.2059 10.1756 86.3117 9.91791 86.3854 9.70621C86.459 9.4945 86.4958 9.35644 86.4958 9.292L86.413 9.34723C86.3577 9.38405 86.2703 9.43467 86.1506 9.49911C86.031 9.56354 85.9113 9.61877 85.7917 9.66479C85.6076 9.71081 85.4281 9.73382 85.2532 9.73382C84.8298 9.73382 84.457 9.63257 84.1348 9.43007C83.8127 9.22757 83.601 8.90081 83.4997 8.44979C83.4905 8.38535 83.4859 8.24268 83.4859 8.02177C83.4859 7.49711 83.647 6.81137 83.9692 5.96455C84.2913 5.11773 84.4524 4.57926 84.4524 4.34915C84.4524 4.33994 84.4524 4.33074 84.4524 4.32154C84.4524 4.23869 84.4524 4.18347 84.4524 4.15585C84.4524 4.12824 84.434 4.09602 84.3972 4.05921C84.3604 4.02239 84.3097 4.00398 84.2453 4.00398H84.1901C83.9784 4.00398 83.7851 4.09142 83.6102 4.26631C83.4353 4.4412 83.2972 4.62989 83.196 4.83239C83.0947 5.03489 83.0165 5.22819 82.9613 5.41228C82.906 5.59637 82.8692 5.69762 82.8508 5.71603C82.8324 5.73444 82.7588 5.74364 82.6299 5.74364H82.4366C82.3814 5.68841 82.3538 5.64699 82.3538 5.61938Z" fill="#BC4D4D"/>
<path d="M32.6257 71.104C32.8209 70.9088 32.8209 70.5922 32.6257 70.3969L29.4437 67.215C29.2484 67.0197 28.9318 67.0197 28.7366 67.215C28.5413 67.4102 28.5413 67.7268 28.7366 67.9221L31.565 70.7505L28.7366 73.5789C28.5413 73.7742 28.5413 74.0908 28.7366 74.286C28.9318 74.4813 29.2484 74.4813 29.4437 74.286L32.6257 71.104ZM13.6536 71.2505H32.2721V70.2505H13.6536V71.2505Z" fill="#BC4D4D"/>
<path d="M104.617 71.104C104.813 70.9088 104.813 70.5922 104.617 70.3969L101.435 67.215C101.24 67.0197 100.924 67.0197 100.728 67.215C100.533 67.4102 100.533 67.7268 100.728 67.9221L103.557 70.7505L100.728 73.5789C100.533 73.7742 100.533 74.0908 100.728 74.286C100.924 74.4813 101.24 74.4813 101.435 74.286L104.617 71.104ZM85.6453 71.2505H104.264V70.2505H85.6453V71.2505Z" fill="#BC4D4D"/>
<path d="M150.543 71.104C150.738 70.9088 150.738 70.5922 150.543 70.3969L147.361 67.215C147.166 67.0197 146.849 67.0197 146.654 67.215C146.459 67.4102 146.459 67.7268 146.654 67.9221L149.482 70.7505L146.654 73.5789C146.459 73.7742 146.459 74.0908 146.654 74.286C146.849 74.4813 147.166 74.4813 147.361 74.286L150.543 71.104ZM131.571 71.2505H150.19V70.2505H131.571V71.2505Z" fill="#BC4D4D"/>
<path d="M117.698 58.1669C117.946 58.288 118.246 58.185 118.367 57.9369L120.34 53.8927C120.461 53.6445 120.358 53.3452 120.11 53.2241C119.862 53.103 119.563 53.206 119.442 53.4541L117.687 57.0489L114.093 55.2947C113.844 55.1736 113.545 55.2766 113.424 55.5247C113.303 55.7729 113.406 56.0723 113.654 56.1934L117.698 58.1669ZM6.68694 60.9574C15.3177 30.7499 38.0956 15.7012 61.1392 15.3172C84.1892 14.9331 107.583 29.2198 117.445 57.8803L118.39 57.5549C108.392 28.4979 84.619 13.9258 61.1226 14.3173C37.6198 14.709 14.4719 30.0702 5.72542 60.6827L6.68694 60.9574Z" fill="#BC4D4D"/>
</svg>
