<svg width="220" height="160" viewBox="0 0 220 160" fill="none" xmlns="http://www.w3.org/2000/svg">
<path d="M96 5L91.6699 12.5H100.33L96 5Z" fill="#BC4D4D"/>
<path d="M162 51C162 53.2091 163.791 55 166 55C168.209 55 170 53.2091 170 51C170 48.7909 168.209 47 166 47C163.791 47 162 48.7909 162 51ZM166.75 53V51H165.25V53H166.75Z" fill="#BC4D4D"/>
<path d="M164.939 51.5607C165.525 52.1464 166.475 52.1464 167.061 51.5607C167.646 50.9749 167.646 50.0251 167.061 49.4393L164.939 51.5607ZM140 24L140.752 22.7019L140 24ZM114.5 25L113.891 23.6293L114.5 25ZM167.061 49.4393C165.738 48.1168 164.06 46.1667 162.099 43.8446C160.154 41.542 157.952 38.8988 155.626 36.2585C151.006 31.0141 145.738 25.5885 140.752 22.7019L139.248 25.2981C143.762 27.9115 148.744 32.9859 153.374 38.2415C155.673 40.8512 157.846 43.458 159.807 45.7804C161.752 48.0833 163.512 50.1332 164.939 51.5607L167.061 49.4393ZM140.752 22.7019C133.994 18.7899 128.743 18.2743 124.324 19.2179C122.153 19.6815 120.246 20.4843 118.537 21.3136C116.736 22.1879 115.389 22.9634 113.891 23.6293L115.109 26.3707C116.611 25.7033 118.33 24.7487 119.847 24.0125C121.456 23.2313 123.117 22.5432 124.951 22.1517C128.54 21.3852 133.039 21.7029 139.248 25.2981L140.752 22.7019ZM113.891 23.6293C113.148 23.9592 112.323 24.4705 111.525 24.9776C110.693 25.5067 109.847 26.0603 108.953 26.5758C107.122 27.6325 105.435 28.3163 103.982 28.2122C102.729 28.1223 101.284 27.4072 99.9606 24.6612C98.6023 21.843 97.4928 17.0908 96.9969 9.40343L94.0031 9.59657C94.5072 17.4092 95.6477 22.6223 97.2581 25.9638C98.9034 29.3775 101.146 31.0166 103.768 31.2045C106.19 31.3782 108.565 30.2633 110.453 29.1742C111.419 28.6168 112.346 28.0107 113.135 27.5094C113.958 26.9861 114.602 26.5963 115.109 26.3707L113.891 23.6293Z" fill="#BC4D4D"/>
<path fill-rule="evenodd" clip-rule="evenodd" d="M69.5128 20.2345C61.8449 21.0606 39.278 13.2869 34.5707 19.069C29.8634 24.851 43.9866 44.9663 41.269 54.9268C38.5514 64.8873 24.4288 66.9763 18.2653 78.832C12.1018 90.6878 -3.91354 118.53 4.28817 126.061C12.4899 133.593 51.3635 118.773 67.4756 124.02C83.5878 129.267 88.7313 154.533 100.961 157.545C113.191 160.558 129.352 147.828 140.854 142.095C152.356 136.361 169.05 131.503 169.972 123.146C170.894 114.789 148.619 101.378 146.386 91.9517C144.154 82.5254 159.733 75.7227 156.579 66.588C153.424 57.4534 138.088 40.5448 127.46 37.1436C116.832 33.7424 100.623 50.0194 92.8091 46.1809C84.9954 42.3424 84.4608 18.4369 80.5781 14.1125C76.6954 9.78809 77.1807 19.4084 69.5128 20.2345Z" fill="#F5F99E" stroke="#BC4D4D" stroke-width="3"/>
<path d="M176.142 41.718C176.047 41.6231 176 41.5553 176 41.5146C176 41.4603 176.02 41.3518 176.061 41.189C176.101 41.0262 176.135 40.9312 176.162 40.9041C176.189 40.8363 176.25 40.8024 176.344 40.8024C176.439 40.8024 176.783 40.7956 177.378 40.782H178.452L178.837 39.1541C178.877 39.0049 178.925 38.8082 178.979 38.564C179.033 38.3198 179.08 38.1434 179.12 38.0349C179.161 37.9264 179.201 37.7907 179.242 37.6279C179.283 37.4651 179.337 37.3498 179.404 37.282C179.472 37.2142 179.539 37.1328 179.607 37.0378C179.674 36.9429 179.769 36.8818 179.89 36.8547C180.012 36.8275 180.134 36.814 180.255 36.814C180.498 36.8275 180.667 36.9022 180.762 37.0378C180.856 37.1735 180.904 37.3024 180.904 37.4244C180.904 37.5194 180.843 37.8382 180.721 38.3808C180.6 38.9235 180.465 39.4593 180.316 39.9884L180.113 40.7413C180.113 40.7684 180.451 40.782 181.126 40.782H182.16C182.254 40.877 182.302 40.9516 182.302 41.0058C182.302 41.3043 182.214 41.5417 182.038 41.718H179.87L179.141 44.6686C178.614 46.8392 178.35 48.0058 178.35 48.1686C178.35 48.7384 178.533 49.0233 178.898 49.0233C179.37 49.0233 179.83 48.7927 180.275 48.3314C180.721 47.8702 181.079 47.3004 181.349 46.6221C181.376 46.5407 181.41 46.4932 181.451 46.4797C181.491 46.4661 181.592 46.4525 181.755 46.439H181.836C182.038 46.439 182.14 46.4932 182.14 46.6018C182.14 46.6425 182.119 46.7239 182.079 46.846C182.011 47.063 181.89 47.3208 181.714 47.6192C181.538 47.9177 181.309 48.2365 181.025 48.5756C180.741 48.9148 180.397 49.1996 179.992 49.4303C179.586 49.6609 179.174 49.7762 178.756 49.7762C178.35 49.7762 177.965 49.6744 177.601 49.471C177.236 49.2675 176.973 48.9148 176.811 48.4128C176.783 48.3043 176.77 48.1211 176.77 47.8634V47.4971L177.479 44.6483C177.952 42.7355 178.195 41.7723 178.209 41.7587C178.209 41.7316 177.864 41.718 177.175 41.718H176.142Z" fill="#BC4D4D"/>
<path d="M189.693 42.4914C189.693 42.315 189.788 42.1793 189.977 42.0844H202.884C203.087 42.1929 203.188 42.3286 203.188 42.4914C203.188 42.6406 203.094 42.7695 202.905 42.878L196.461 42.8983H190.018C189.801 42.8305 189.693 42.6948 189.693 42.4914ZM189.693 46.439C189.693 46.2355 189.801 46.0999 190.018 46.0321H202.905C203.094 46.1677 203.188 46.3034 203.188 46.439C203.188 46.6154 203.087 46.751 202.884 46.846H189.977C189.788 46.751 189.693 46.6154 189.693 46.439Z" fill="#BC4D4D"/>
<path d="M211.897 37.6483C212.654 36.5494 213.687 36 214.997 36C215.646 36 216.294 36.1764 216.943 36.5291C217.591 36.8818 218.118 37.5058 218.523 38.4012C219.023 39.5271 219.273 41.0736 219.273 43.0407C219.273 45.1434 218.982 46.751 218.401 47.8634C218.131 48.4331 217.76 48.8876 217.287 49.2267C216.814 49.5659 216.402 49.7762 216.051 49.8576C215.7 49.939 215.355 49.9864 215.018 50C214.666 50 214.315 49.9593 213.964 49.8779C213.613 49.7965 213.201 49.5795 212.728 49.2267C212.255 48.874 211.884 48.4196 211.613 47.8634C211.033 46.751 210.742 45.1434 210.742 43.0407C210.742 40.6802 211.127 38.8828 211.897 37.6483ZM216.456 37.4041C216.051 36.97 215.571 36.7529 215.018 36.7529C214.45 36.7529 213.964 36.97 213.559 37.4041C213.221 37.7568 212.998 38.2452 212.89 38.8692C212.782 39.4932 212.728 40.7955 212.728 42.7762C212.728 44.9196 212.782 46.3304 212.89 47.0087C212.998 47.687 213.241 48.2229 213.619 48.6163C213.998 49.0233 214.464 49.2267 215.018 49.2267C215.558 49.2267 216.017 49.0233 216.395 48.6163C216.787 48.2093 217.03 47.6395 217.125 46.907C217.219 46.1744 217.273 44.7975 217.287 42.7762C217.287 40.8091 217.233 39.5136 217.125 38.8895C217.017 38.2655 216.794 37.7704 216.456 37.4041Z" fill="#BC4D4D"/>
<path d="M135.154 5.2967C135.051 5.19414 135 5.12088 135 5.07692C135 5.01831 135.022 4.9011 135.066 4.72527C135.11 4.54945 135.147 4.44689 135.176 4.41758C135.205 4.34432 135.271 4.30769 135.374 4.30769C135.476 4.30769 135.85 4.30037 136.495 4.28571H137.659L138.077 2.52747C138.121 2.3663 138.172 2.15385 138.231 1.89011C138.289 1.62637 138.341 1.4359 138.385 1.31868C138.429 1.20146 138.473 1.05494 138.516 0.879121C138.56 0.703296 138.619 0.578754 138.692 0.505494C138.766 0.432234 138.839 0.344322 138.912 0.241758C138.985 0.139194 139.088 0.0732597 139.22 0.0439557C139.352 0.0146517 139.484 -3.5204e-07 139.615 -3.5204e-07C139.879 0.0146517 140.062 0.0952377 140.165 0.241758C140.267 0.388278 140.319 0.527472 140.319 0.65934C140.319 0.761904 140.253 1.10623 140.121 1.69231C139.989 2.27839 139.842 2.85714 139.681 3.42857L139.462 4.24176C139.462 4.27106 139.828 4.28571 140.56 4.28571H141.681C141.784 4.38828 141.835 4.46886 141.835 4.52747C141.835 4.84982 141.74 5.10623 141.549 5.2967H139.198L138.407 8.48352C137.835 10.8278 137.549 12.0879 137.549 12.2637C137.549 12.8791 137.747 13.1868 138.143 13.1868C138.656 13.1868 139.154 12.9377 139.637 12.4396C140.121 11.9414 140.509 11.326 140.802 10.5934C140.832 10.5055 140.868 10.4542 140.912 10.4396C140.956 10.4249 141.066 10.4103 141.242 10.3956H141.33C141.549 10.3956 141.659 10.4542 141.659 10.5714C141.659 10.6154 141.637 10.7033 141.593 10.8352C141.52 11.0696 141.388 11.348 141.198 11.6703C141.007 11.9927 140.758 12.337 140.451 12.7033C140.143 13.0696 139.769 13.3773 139.33 13.6264C138.89 13.8755 138.443 14 137.989 14C137.549 14 137.132 13.8901 136.736 13.6703C136.341 13.4505 136.055 13.0696 135.879 12.5275C135.85 12.4103 135.835 12.2125 135.835 11.9341V11.5385L136.604 8.46154C137.117 6.3956 137.381 5.35531 137.396 5.34066C137.396 5.31136 137.022 5.2967 136.275 5.2967H135.154Z" fill="#BC4D4D"/>
</svg>
